<?xml version="1.0" encoding="utf-8"?>
<!-- Generator: Adobe Illustrator 20.1.0, SVG Export Plug-In . SVG Version: 6.00 Build 0)  -->
<svg version="1.1" xmlns="http://www.w3.org/2000/svg" xmlns:xlink="http://www.w3.org/1999/xlink" x="0px" y="0px"
	 viewBox="0 0 2091.7 502.1" style="enable-background:new 0 0 2091.7 502.1;" xml:space="preserve">
<style type="text/css">
	.st0{display:none;}
	.st1{display:inline;}
	.st2{fill:#FFFFFF;}
	.st3{font-family:'Dosis-ExtraBold';}
	.st4{font-size:199.3566px;}
	.st5{letter-spacing:9;}
	.st6{display:inline;fill:#FA004F;}
	.st7{fill:#FA004F;}
</style>
<g id="Black_inverted" class="st0">
	<rect id="Background_1_" class="st1" width="2091.7" height="500"/>
	<g id="Logo_1_" class="st1">
		<ellipse class="st2" cx="237.7" cy="248.8" rx="158.9" ry="157.4"/>
		<path d="M243.4,193.6c0,0-0.8-16.5,17.5-17.5c20.3-1.1,63,19.7,58.6,79.3c-4.3,57.6-12,66.4-12,66.4s2,7.9,4,14.4
			c0.8,2.7,3.6,12.1-3.3,13.6c-7.1,1.6-17.3-0.1-25.8,0.4c-4.6,0.3-6.3-2.9-6.7-6.7c0,0-2.4-13.6-2.6-13.5c-3.1,1.4-16.5,3.4-26,3.1
			c-10.2-0.3-27.4-2.9-27.4-2.9s0,9.6,0,14c0,2.2-1.7,5.7-5.9,5.9c-2.3,0.1-25.9,0.1-27.9,0c-4-0.2-5.8-4.2-5.2-9s1.2-6.8,1.2-6.8
			s10.9-3.2,7.5-21.1c0,0-25.2,31.9-62.8,33.1c0,0,27.2-20.3,36-51.7c7.9-28.1,41.8-39,58.4-38.4s27.3,5.8,41.1,4
			c5.6-0.7,24.2-3.2,24.6-24.6c0.3-20.6-21.1-24.6-24.6-24.6C256.5,211.2,243,207.6,243.4,193.6z"/>
		<circle cx="257.3" cy="140.2" r="17.2"/>
	</g>
	<g id="Text_1_" class="st1">
		<text transform="matrix(1 0 0 1 454.3588 324.7874)" class="st2 st3 st4 st5">IMPACTASAURUS</text>
	</g>
	<g id="Guides_1_" class="st1">
	</g>
</g>
<g id="Fuschia_inverted" class="st0">
	<rect id="Background" y="1" class="st6" width="2091.7" height="500"/>
	<g id="Logo" class="st1">
		<ellipse class="st2" cx="237.7" cy="248.8" rx="158.9" ry="157.4"/>
		<path class="st7" d="M243.4,193.6c0,0-0.8-16.5,17.5-17.5c20.3-1.1,63,19.7,58.6,79.3c-4.3,57.6-12,66.4-12,66.4s2,7.9,4,14.4
			c0.8,2.7,3.6,12.1-3.3,13.6c-7.1,1.6-17.3-0.1-25.8,0.4c-4.6,0.3-6.3-2.9-6.7-6.7c0,0-2.4-13.6-2.6-13.5c-3.1,1.4-16.5,3.4-26,3.1
			c-10.2-0.3-27.4-2.9-27.4-2.9s0,9.6,0,14c0,2.2-1.7,5.7-5.9,5.9c-2.3,0.1-25.9,0.1-27.9,0c-4-0.2-5.8-4.2-5.2-9s1.2-6.8,1.2-6.8
			s10.9-3.2,7.5-21.1c0,0-25.2,31.9-62.8,33.1c0,0,27.2-20.3,36-51.7c7.9-28.1,41.8-39,58.4-38.4s27.3,5.8,41.1,4
			c5.6-0.7,24.2-3.2,24.6-24.6c0.3-20.6-21.1-24.6-24.6-24.6C256.5,211.2,243,207.6,243.4,193.6z"/>
		<circle class="st7" cx="257.3" cy="140.2" r="17.2"/>
	</g>
	<g id="Text" class="st1">
		<text transform="matrix(1 0 0 1 454.3588 324.7874)" class="st2 st3 st4 st5">IMPACTASAURUS</text>
	</g>
	<g id="Guides" class="st1">
	</g>
</g>
<g id="Black_normal" class="st0">
	<g id="Logo_3_" class="st1">
		<ellipse cx="237.7" cy="248.8" rx="158.9" ry="157.4"/>
		<path class="st2" d="M243.4,193.6c0,0-0.8-16.5,17.5-17.5c20.3-1.1,63,19.7,58.6,79.3c-4.3,57.6-12,66.4-12,66.4s2,7.9,4,14.4
			c0.8,2.7,3.6,12.1-3.3,13.6c-7.1,1.6-17.3-0.1-25.8,0.4c-4.6,0.3-6.3-2.9-6.7-6.7c0,0-2.4-13.6-2.6-13.5c-3.1,1.4-16.5,3.4-26,3.1
			c-10.2-0.3-27.4-2.9-27.4-2.9s0,9.6,0,14c0,2.2-1.7,5.7-5.9,5.9c-2.3,0.1-25.9,0.1-27.9,0c-4-0.2-5.8-4.2-5.2-9s1.2-6.8,1.2-6.8
			s10.9-3.2,7.5-21.1c0,0-25.2,31.9-62.8,33.1c0,0,27.2-20.3,36-51.7c7.9-28.1,41.8-39,58.4-38.4s27.3,5.8,41.1,4
			c5.6-0.7,24.2-3.2,24.6-24.6c0.3-20.6-21.1-24.6-24.6-24.6C256.5,211.2,243,207.6,243.4,193.6z"/>
		<circle class="st2" cx="257.3" cy="140.2" r="17.2"/>
	</g>
	<g id="Text_3_" class="st1">
		<text transform="matrix(1 0 0 1 454.3588 324.7874)" class="st3 st4 st5">IMPACTASAURUS</text>
	</g>
	<g id="Guides_3_" class="st1">
	</g>
</g>
<g id="Fuschia_normal">
	<g id="Logo_2_">
		<ellipse class="st7" cx="237.7" cy="248.8" rx="158.9" ry="157.4"/>
		<path class="st2" d="M243.4,193.6c0,0-0.8-16.5,17.5-17.5c20.3-1.1,63,19.7,58.6,79.3c-4.3,57.6-12,66.4-12,66.4s2,7.9,4,14.4
			c0.8,2.7,3.6,12.1-3.3,13.6c-7.1,1.6-17.3-0.1-25.8,0.4c-4.6,0.3-6.3-2.9-6.7-6.7c0,0-2.4-13.6-2.6-13.5c-3.1,1.4-16.5,3.4-26,3.1
			c-10.2-0.3-27.4-2.9-27.4-2.9s0,9.6,0,14c0,2.2-1.7,5.7-5.9,5.9c-2.3,0.1-25.9,0.1-27.9,0c-4-0.2-5.8-4.2-5.2-9s1.2-6.8,1.2-6.8
			s10.9-3.2,7.5-21.1c0,0-25.2,31.9-62.8,33.1c0,0,27.2-20.3,36-51.7c7.9-28.1,41.8-39,58.4-38.4s27.3,5.8,41.1,4
			c5.6-0.7,24.2-3.2,24.6-24.6c0.3-20.6-21.1-24.6-24.6-24.6C256.5,211.2,243,207.6,243.4,193.6z"/>
		<circle class="st2" cx="257.3" cy="140.2" r="17.2"/>
	</g>
	<g id="Text_2_">
		<text transform="matrix(1 0 0 1 454.3588 324.7874)" class="st7 st3 st4 st5">IMPACTASAURUS</text>
	</g>
	<g id="Guides_2_">
	</g>
</g>
</svg>
