<?xml version="1.0" encoding="UTF-8" standalone="no"?>
<!-- Created with Inkscape (http://www.inkscape.org/) -->

<svg
   xmlns:dc="http://purl.org/dc/elements/1.1/"
   xmlns:cc="http://creativecommons.org/ns#"
   xmlns:rdf="http://www.w3.org/1999/02/22-rdf-syntax-ns#"
   xmlns:svg="http://www.w3.org/2000/svg"
   xmlns="http://www.w3.org/2000/svg"
   version="1.1"
   width="100%"
   height="100%"
   viewBox="0 0 1050 320"
   id="svg2"
   xml:space="preserve"><metadata
     id="metadata60"><rdf:RDF><cc:Work
         rdf:about=""><dc:format>image/svg+xml</dc:format><dc:type
           rdf:resource="http://purl.org/dc/dcmitype/StillImage" /><dc:title></dc:title></cc:Work></rdf:RDF></metadata><defs
     id="defs58" /><style
     type="text/css"
     id="style4" /><g
     transform="translate(0,-182.1)"
     id="Black_inverted"
     style="display:none"><rect
       width="2091.7"
       height="500"
       x="0"
       y="0"
       id="Background_1_"
       style="display:inline" /><g
       id="Logo_1_"
       style="display:inline"><ellipse
         cx="237.7"
         cy="248.8"
         rx="158.89999"
         ry="157.39999"
         id="ellipse9"
         style="fill:#ffffff" /><path
         d="m 243.4,193.6 c 0,0 -0.8,-16.5 17.5,-17.5 20.3,-1.1 63,19.7 58.6,79.3 -4.3,57.6 -12,66.4 -12,66.4 0,0 2,7.9 4,14.4 0.8,2.7 3.6,12.1 -3.3,13.6 -7.1,1.6 -17.3,-0.1 -25.8,0.4 -4.6,0.3 -6.3,-2.9 -6.7,-6.7 0,0 -2.4,-13.6 -2.6,-13.5 -3.1,1.4 -16.5,3.4 -26,3.1 -10.2,-0.3 -27.4,-2.9 -27.4,-2.9 0,0 0,9.6 0,14 0,2.2 -1.7,5.7 -5.9,5.9 -2.3,0.1 -25.9,0.1 -27.9,0 -4,-0.2 -5.8,-4.2 -5.2,-9 0.6,-4.8 1.2,-6.8 1.2,-6.8 0,0 10.9,-3.2 7.5,-21.1 0,0 -25.2,31.9 -62.8,33.1 0,0 27.2,-20.3 36,-51.7 7.9,-28.1 41.8,-39 58.4,-38.4 16.6,0.6 27.3,5.8 41.1,4 5.6,-0.7 24.2,-3.2 24.6,-24.6 C 287,215 265.6,211 262.1,211 c -5.6,0.2 -19.1,-3.4 -18.7,-17.4 z"
         id="path11" /><circle
         cx="257.29999"
         cy="140.2"
         r="17.200001"
         id="circle13" /></g><g
       id="Text_1_"
       style="display:inline"><text
         transform="translate(454.3588,324.7874)"
         id="text16"
         style="font-size:199.3565979px;letter-spacing:9;fill:#ffffff;font-family:Dosis-ExtraBold">IMPACTASAURUS</text>
</g><g
       id="Guides_1_"
       style="display:inline" /></g><g
     transform="translate(0,-182.1)"
     id="Fuschia_inverted"
     style="display:none"><rect
       width="2091.7"
       height="500"
       x="0"
       y="1"
       id="Background"
       style="fill:#fa004f;display:inline" /><g
       id="Logo"
       style="display:inline"><ellipse
         cx="237.7"
         cy="248.8"
         rx="158.89999"
         ry="157.39999"
         id="ellipse22"
         style="fill:#ffffff" /><path
         d="m 243.4,193.6 c 0,0 -0.8,-16.5 17.5,-17.5 20.3,-1.1 63,19.7 58.6,79.3 -4.3,57.6 -12,66.4 -12,66.4 0,0 2,7.9 4,14.4 0.8,2.7 3.6,12.1 -3.3,13.6 -7.1,1.6 -17.3,-0.1 -25.8,0.4 -4.6,0.3 -6.3,-2.9 -6.7,-6.7 0,0 -2.4,-13.6 -2.6,-13.5 -3.1,1.4 -16.5,3.4 -26,3.1 -10.2,-0.3 -27.4,-2.9 -27.4,-2.9 0,0 0,9.6 0,14 0,2.2 -1.7,5.7 -5.9,5.9 -2.3,0.1 -25.9,0.1 -27.9,0 -4,-0.2 -5.8,-4.2 -5.2,-9 0.6,-4.8 1.2,-6.8 1.2,-6.8 0,0 10.9,-3.2 7.5,-21.1 0,0 -25.2,31.9 -62.8,33.1 0,0 27.2,-20.3 36,-51.7 7.9,-28.1 41.8,-39 58.4,-38.4 16.6,0.6 27.3,5.8 41.1,4 5.6,-0.7 24.2,-3.2 24.6,-24.6 C 287,215 265.6,211 262.1,211 c -5.6,0.2 -19.1,-3.4 -18.7,-17.4 z"
         id="path24"
         style="fill:#fa004f" /><circle
         cx="257.29999"
         cy="140.2"
         r="17.200001"
         id="circle26"
         style="fill:#fa004f" /></g><g
       id="Text"
       style="display:inline"><text
         transform="translate(454.3588,324.7874)"
         id="text29"
         style="font-size:199.3565979px;letter-spacing:9;fill:#ffffff;font-family:Dosis-ExtraBold">IMPACTASAURUS</text>
</g><g
       id="Guides"
       style="display:inline" /></g><g
     transform="translate(0,-182.1)"
     id="Black_normal"
     style="display:none"><g
       id="Logo_3_"
       style="display:inline"><ellipse
         cx="237.7"
         cy="248.8"
         rx="158.89999"
         ry="157.39999"
         id="ellipse34" /><path
         d="m 243.4,193.6 c 0,0 -0.8,-16.5 17.5,-17.5 20.3,-1.1 63,19.7 58.6,79.3 -4.3,57.6 -12,66.4 -12,66.4 0,0 2,7.9 4,14.4 0.8,2.7 3.6,12.1 -3.3,13.6 -7.1,1.6 -17.3,-0.1 -25.8,0.4 -4.6,0.3 -6.3,-2.9 -6.7,-6.7 0,0 -2.4,-13.6 -2.6,-13.5 -3.1,1.4 -16.5,3.4 -26,3.1 -10.2,-0.3 -27.4,-2.9 -27.4,-2.9 0,0 0,9.6 0,14 0,2.2 -1.7,5.7 -5.9,5.9 -2.3,0.1 -25.9,0.1 -27.9,0 -4,-0.2 -5.8,-4.2 -5.2,-9 0.6,-4.8 1.2,-6.8 1.2,-6.8 0,0 10.9,-3.2 7.5,-21.1 0,0 -25.2,31.9 -62.8,33.1 0,0 27.2,-20.3 36,-51.7 7.9,-28.1 41.8,-39 58.4,-38.4 16.6,0.6 27.3,5.8 41.1,4 5.6,-0.7 24.2,-3.2 24.6,-24.6 C 287,215 265.6,211 262.1,211 c -5.6,0.2 -19.1,-3.4 -18.7,-17.4 z"
         id="path36"
         style="fill:#ffffff" /><circle
         cx="257.29999"
         cy="140.2"
         r="17.200001"
         id="circle38"
         style="fill:#ffffff" /></g><g
       id="Text_3_"
       style="display:inline"><text
         transform="translate(454.3588,324.7874)"
         id="text41"
         style="font-size:199.3565979px;letter-spacing:9;font-family:Dosis-ExtraBold">IMPACTASAURUS</text>
</g><g
       id="Guides_3_"
       style="display:inline" /></g><style
     type="text/css"
     id="style3169" /><g
     transform="translate(-61.374958,275.53857)"
     id="Black_inverted-6"
     style="display:none"><rect
       width="2091.7"
       height="500"
       x="0"
       y="0"
       id="Background_1_-3"
       style="display:inline" /><g
       id="Logo_1_-1"
       style="display:inline"><ellipse
         cx="237.7"
         cy="248.8"
         rx="158.89999"
         ry="157.39999"
         id="ellipse3174"
         style="fill:#ffffff" /><path
         d="m 243.4,193.6 c 0,0 -0.8,-16.5 17.5,-17.5 20.3,-1.1 63,19.7 58.6,79.3 -4.3,57.6 -12,66.4 -12,66.4 0,0 2,7.9 4,14.4 0.8,2.7 3.6,12.1 -3.3,13.6 -7.1,1.6 -17.3,-0.1 -25.8,0.4 -4.6,0.3 -6.3,-2.9 -6.7,-6.7 0,0 -2.4,-13.6 -2.6,-13.5 -3.1,1.4 -16.5,3.4 -26,3.1 -10.2,-0.3 -27.4,-2.9 -27.4,-2.9 0,0 0,9.6 0,14 0,2.2 -1.7,5.7 -5.9,5.9 -2.3,0.1 -25.9,0.1 -27.9,0 -4,-0.2 -5.8,-4.2 -5.2,-9 0.6,-4.8 1.2,-6.8 1.2,-6.8 0,0 10.9,-3.2 7.5,-21.1 0,0 -25.2,31.9 -62.8,33.1 0,0 27.2,-20.3 36,-51.7 7.9,-28.1 41.8,-39 58.4,-38.4 16.6,0.6 27.3,5.8 41.1,4 5.6,-0.7 24.2,-3.2 24.6,-24.6 C 287,215 265.6,211 262.1,211 c -5.6,0.2 -19.1,-3.4 -18.7,-17.4 z"
         id="path3176" /><circle
         cx="257.29999"
         cy="140.2"
         r="17.200001"
         id="circle3178" /></g><g
       id="Text_1_-1"
       style="display:inline"><text
         transform="translate(454.3588,324.7874)"
         id="text3181"
         style="font-size:199.3565979px;letter-spacing:9;fill:#ffffff;font-family:Dosis-ExtraBold">IMPACTASAURUS</text>
</g><g
       id="Guides_1_-9"
       style="display:inline" /></g><g
     transform="translate(-61.374958,275.53857)"
     id="Fuschia_inverted-6"
     style="display:none"><rect
       width="2091.7"
       height="500"
       x="0"
       y="1"
       id="Background-2"
       style="fill:#fa004f;display:inline" /><g
       id="Logo-2"
       style="display:inline"><ellipse
         cx="237.7"
         cy="248.8"
         rx="158.89999"
         ry="157.39999"
         id="ellipse3187"
         style="fill:#ffffff" /><path
         d="m 243.4,193.6 c 0,0 -0.8,-16.5 17.5,-17.5 20.3,-1.1 63,19.7 58.6,79.3 -4.3,57.6 -12,66.4 -12,66.4 0,0 2,7.9 4,14.4 0.8,2.7 3.6,12.1 -3.3,13.6 -7.1,1.6 -17.3,-0.1 -25.8,0.4 -4.6,0.3 -6.3,-2.9 -6.7,-6.7 0,0 -2.4,-13.6 -2.6,-13.5 -3.1,1.4 -16.5,3.4 -26,3.1 -10.2,-0.3 -27.4,-2.9 -27.4,-2.9 0,0 0,9.6 0,14 0,2.2 -1.7,5.7 -5.9,5.9 -2.3,0.1 -25.9,0.1 -27.9,0 -4,-0.2 -5.8,-4.2 -5.2,-9 0.6,-4.8 1.2,-6.8 1.2,-6.8 0,0 10.9,-3.2 7.5,-21.1 0,0 -25.2,31.9 -62.8,33.1 0,0 27.2,-20.3 36,-51.7 7.9,-28.1 41.8,-39 58.4,-38.4 16.6,0.6 27.3,5.8 41.1,4 5.6,-0.7 24.2,-3.2 24.6,-24.6 C 287,215 265.6,211 262.1,211 c -5.6,0.2 -19.1,-3.4 -18.7,-17.4 z"
         id="path3189"
         style="fill:#fa004f" /><circle
         cx="257.29999"
         cy="140.2"
         r="17.200001"
         id="circle3191"
         style="fill:#fa004f" /></g><g
       id="Text-1"
       style="display:inline"><text
         transform="translate(454.3588,324.7874)"
         id="text3194"
         style="font-size:199.3565979px;letter-spacing:9;fill:#ffffff;font-family:Dosis-ExtraBold">IMPACTASAURUS</text>
</g><g
       id="Guides-9"
       style="display:inline" /></g><g
     transform="translate(-61.374958,275.53857)"
     id="Black_normal-8"
     style="display:none"><g
       id="Logo_3_-6"
       style="display:inline"><ellipse
         cx="237.7"
         cy="248.8"
         rx="158.89999"
         ry="157.39999"
         id="ellipse3199" /><path
         d="m 243.4,193.6 c 0,0 -0.8,-16.5 17.5,-17.5 20.3,-1.1 63,19.7 58.6,79.3 -4.3,57.6 -12,66.4 -12,66.4 0,0 2,7.9 4,14.4 0.8,2.7 3.6,12.1 -3.3,13.6 -7.1,1.6 -17.3,-0.1 -25.8,0.4 -4.6,0.3 -6.3,-2.9 -6.7,-6.7 0,0 -2.4,-13.6 -2.6,-13.5 -3.1,1.4 -16.5,3.4 -26,3.1 -10.2,-0.3 -27.4,-2.9 -27.4,-2.9 0,0 0,9.6 0,14 0,2.2 -1.7,5.7 -5.9,5.9 -2.3,0.1 -25.9,0.1 -27.9,0 -4,-0.2 -5.8,-4.2 -5.2,-9 0.6,-4.8 1.2,-6.8 1.2,-6.8 0,0 10.9,-3.2 7.5,-21.1 0,0 -25.2,31.9 -62.8,33.1 0,0 27.2,-20.3 36,-51.7 7.9,-28.1 41.8,-39 58.4,-38.4 16.6,0.6 27.3,5.8 41.1,4 5.6,-0.7 24.2,-3.2 24.6,-24.6 C 287,215 265.6,211 262.1,211 c -5.6,0.2 -19.1,-3.4 -18.7,-17.4 z"
         id="path3201"
         style="fill:#ffffff" /><circle
         cx="257.29999"
         cy="140.2"
         r="17.200001"
         id="circle3203"
         style="fill:#ffffff" /></g><g
       id="Text_3_-6"
       style="display:inline"><text
         transform="translate(454.3588,324.7874)"
         id="text3206"
         style="font-size:199.3565979px;letter-spacing:9;font-family:Dosis-ExtraBold">IMPACTASAURUS</text>
</g><g
       id="Guides_3_-0"
       style="display:inline" /></g><ellipse
     cx="237.7"
     cy="248.8"
     rx="158.89999"
     ry="157.39999"
     transform="translate(-77.699997,-88.800003)"
     id="ellipse3211"
     style="fill:#fa004f" /><path
     d="m 165.7,104.8 c 0,0 -0.8,-16.500003 17.5,-17.500003 20.3,-1.1 63,19.700003 58.6,79.300003 -4.3,57.6 -12,66.4 -12,66.4 0,0 2,7.9 4,14.4 0.8,2.7 3.6,12.1 -3.3,13.6 -7.1,1.6 -17.3,-0.1 -25.8,0.4 -4.6,0.3 -6.3,-2.9 -6.7,-6.7 0,0 -2.4,-13.6 -2.6,-13.5 -3.1,1.4 -16.5,3.4 -26,3.1 -10.2,-0.3 -27.4,-2.9 -27.4,-2.9 0,0 0,9.6 0,14 0,2.2 -1.7,5.7 -5.9,5.9 -2.3,0.1 -25.9,0.1 -27.9,0 -4,-0.2 -5.8,-4.2 -5.2,-9 0.6,-4.8 1.2,-6.8 1.2,-6.8 0,0 10.9,-3.2 7.5,-21.1 0,0 -25.199997,31.9 -62.799997,33.1 0,0 27.2,-20.3 36,-51.7 7.9,-28.1 41.799997,-39 58.399997,-38.4 16.6,0.6 27.3,5.8 41.1,4 5.6,-0.7 24.2,-3.2 24.6,-24.6 0.3,-20.6 -21.1,-24.6 -24.6,-24.6 -5.6,0.2 -19.1,-3.4 -18.7,-17.4 z"
     id="path3213"
     style="fill:#ffffff" /><circle
     cx="257.29999"
     cy="140.2"
     r="17.200001"
     transform="translate(-77.699997,-88.800003)"
     id="circle3215"
     style="fill:#ffffff" /><g
     transform="translate(-61.374958,275.53857)"
     id="Guides_2_-7" /><path
     d="M 144.28692,316.54052 C 101.30918,312.54326 59.116308,289.00043 33.147808,254.52696 12.805088,227.52177 2.5064794,198.2442 1.5485057,164.69433 0.7512633,136.77355 5.8579591,113.59352 18.128767,89.434145 42.168673,42.103176 88.269638,9.9822134 141.01603,3.8121364 c 23.20013,-2.7138654 47.91708,-0.2008639 69.71849,7.0883616 24.02271,8.031911 43.62329,20.239034 61.87484,38.535285 23.83294,23.891293 37.96536,50.976557 44.00796,84.342727 1.84001,10.16025 2.50731,31.54125 1.32426,42.43083 -9.36889,86.23709 -86.35586,148.45063 -173.65466,140.33118 z m -4.03309,-57.44192 c 1.53395,-1.78459 1.64532,-2.44871 1.64532,-9.81148 l 0,-7.89733 2.89944,0.41321 c 19.16252,2.7309 33.1643,2.98303 44.56014,0.80239 2.97691,-0.56964 5.58935,-1.03576 5.80546,-1.03583 0.21609,-6e-5 0.93951,3.14663 1.60759,6.99265 1.41235,8.13059 2.46577,11.03112 4.37799,12.05451 2.18415,1.16892 27.54618,0.97584 30.43625,-0.2317 4.29159,-1.79314 4.37293,-6.08494 0.37537,-19.8078 l -2.16985,-7.44872 1.38066,-3.1134 c 4.21664,-9.50853 7.19446,-26.0305 9.79608,-54.35207 1.34216,-14.6109 1.42088,-17.42668 0.70571,-25.24218 -0.8722,-9.53151 -2.46054,-16.64729 -5.34221,-23.93306 -6.91735,-17.48929 -20.75692,-30.866152 -38.14939,-36.873948 -4.67199,-1.613821 -6.53823,-1.88525 -12.9622,-1.88525 -6.44254,0 -7.90434,0.213877 -10.33057,1.511468 -5.81802,3.111576 -9.11274,8.927279 -9.11274,16.08547 0,9.45782 6.48384,15.40291 18.42311,16.89231 10.31115,1.2863 18.96384,6.69722 22.63806,14.15661 1.34519,2.731 1.57765,4.25843 1.57765,10.36626 0,6.45218 -0.18827,7.54671 -1.89642,11.02506 -6.03516,12.28954 -19.67756,15.93664 -44.49461,11.89499 -14.73059,-2.39899 -19.81431,-2.73399 -26.73607,-1.76185 -15.46755,2.17237 -31.06551,9.96403 -40.406042,20.18405 -4.625534,5.06107 -7.631203,10.62635 -10.972606,20.31677 -5.776475,16.75243 -13.383553,28.37218 -27.922907,42.65204 l -6.528855,6.41233 4.434437,-0.44598 c 18.229644,-1.83338 37.937387,-12.13924 53.311453,-27.8784 l 4.53264,-4.64029 0.31235,2.90669 c 0.78459,7.30135 -1.99868,15.00507 -6.20751,17.18154 -1.59315,0.82385 -2.033,1.59798 -2.39069,4.20757 -0.88308,6.44278 -0.58577,8.4228 1.59163,10.60021 l 2.02996,2.02996 15.76802,-0.20633 15.76803,-0.20633 1.64532,-1.91414 z M 186.59977,67.008803 c 6.18832,-2.811159 9.83748,-8.594706 9.86208,-15.630396 0.0175,-5.015557 -0.99496,-7.789277 -4.15859,-11.392456 -6.26873,-7.139697 -17.57153,-7.661257 -24.31002,-1.121771 -11.32822,10.993668 -3.94724,29.431403 11.76918,29.399464 2.49193,-0.005 5.16684,-0.495984 6.83735,-1.254841 l 0,0 z"
     id="path3043"
     style="fill:#935d8c;fill-opacity:1;stroke:#935d8c;stroke-width:0.68222106;stroke-opacity:1" /><g
     id="text3040"
     style="font-size:40px;font-style:normal;font-variant:normal;font-weight:bold;font-stretch:normal;line-height:125%;letter-spacing:0px;word-spacing:0px;fill:#935d8c;fill-opacity:1;stroke:none;font-family:Nunito;-inkscape-font-specification:Sans Bold"><path
       d="m 391.65613,186.85 c -1.93335,0 -3.50001,-0.6 -4.7,-1.8 -1.13334,-1.2 -1.70001,-2.76666 -1.7,-4.7 l 0,-58.7 c -10e-6,-1.93327 0.56666,-3.4666 1.7,-4.6 1.19999,-1.19993 2.76665,-1.79993 4.7,-1.8 1.99998,7e-5 3.56665,0.60007 4.7,1.8 1.19998,1.1334 1.79998,2.66673 1.8,4.6 l 0,58.7 c -2e-5,1.93334 -0.60002,3.5 -1.8,4.7 -1.13335,1.2 -2.70002,1.8 -4.7,1.8"
       id="path4163"
       style="font-size:100px;fill:#935d8c;fill-opacity:1" /><path
       d="m 470.38113,136.15 c 5.33326,5e-5 9.39992,1.60005 12.2,4.8 2.86658,3.13338 4.29992,8.23337 4.3,15.3 l 0,24.6 c -8e-5,1.93334 -0.60008,3.43334 -1.8,4.5 -1.13341,1 -2.63341,1.5 -4.5,1.5 -1.80008,0 -3.30007,-0.5 -4.5,-1.5 -1.1334,-1.06666 -1.70007,-2.56666 -1.7,-4.5 l 0,-24.6 c -7e-5,-3.66663 -0.66674,-6.26663 -2,-7.8 -1.26673,-1.59996 -3.2334,-2.39996 -5.9,-2.4 -3.26673,4e-5 -5.86672,1.13337 -7.8,3.4 -1.93339,2.20003 -2.90005,5.23336 -2.9,9.1 l 0,22.3 c -5e-5,1.93334 -0.60005,3.43334 -1.8,4.5 -1.13338,1 -2.60005,1.5 -4.4,1.5 -1.80004,0 -3.30004,-0.5 -4.5,-1.5 -1.20004,-1.06666 -1.80004,-2.56666 -1.8,-4.5 l 0,-24.6 c -4e-5,-3.66663 -0.66671,-6.26663 -2,-7.8 -1.2667,-1.59996 -3.23337,-2.39996 -5.9,-2.4 -3.2667,4e-5 -5.86669,1.13337 -7.8,3.4 -1.86669,2.20003 -2.80002,5.23336 -2.8,9.1 l 0,22.3 c -2e-5,1.93334 -0.60002,3.43334 -1.8,4.5 -1.20002,1 -2.70002,1.5 -4.5,1.5 -1.80001,0 -3.30001,-0.5 -4.5,-1.5 -1.13334,-1.06666 -1.70001,-2.56666 -1.7,-4.5 l 0,-38.7 c -1e-5,-1.86662 0.59999,-3.29995 1.8,-4.3 1.19999,-0.99995 2.69999,-1.49995 4.5,-1.5 1.73332,5e-5 3.13332,0.50005 4.2,1.5 1.13331,0.93338 1.69998,2.30005 1.7,4.1 l 0,2.4 c 1.53331,-2.66662 3.56664,-4.69995 6.1,-6.1 2.59997,-1.39995 5.56663,-2.09995 8.9,-2.1 7.33329,5e-5 12.23329,3.06671 14.7,9.2 1.46661,-2.79996 3.63328,-5.03329 6.5,-6.7 2.86661,-1.66662 6.09994,-2.49995 9.7,-2.5"
       id="path4165"
       style="font-size:100px;fill:#935d8c;fill-opacity:1" /><path
       d="m 527.68582,136.15 c 4.19996,5e-5 7.93329,1.06672 11.2,3.2 3.33328,2.13338 5.89994,5.16671 7.7,9.1 1.86661,3.8667 2.79994,8.33336 2.8,13.4 -6e-5,5.06669 -0.93339,9.50001 -2.8,13.3 -1.80006,3.80001 -4.33339,6.73334 -7.6,8.8 -3.26671,2.06667 -7.03338,3.1 -11.3,3.1 -3.4667,0 -6.5667,-0.73333 -9.3,-2.2 -2.73336,-1.46666 -4.83336,-3.5 -6.3,-6.1 l 0,20.4 c -2e-5,1.73332 -0.56669,3.09998 -1.7,4.1 -1.13335,0.99998 -2.63335,1.49998 -4.5,1.5 -1.86668,-2e-5 -3.40001,-0.53335 -4.6,-1.6 -1.13334,-1.06668 -1.70001,-2.46668 -1.7,-4.2 l 0,-56.7 c -1e-5,-1.79995 0.53332,-3.23329 1.6,-4.3 1.13332,-1.06662 2.63332,-1.59995 4.5,-1.6 1.86665,5e-5 3.36665,0.53338 4.5,1.6 1.13331,1.06671 1.69998,2.50005 1.7,4.3 l 0,2.5 c 1.46664,-2.73329 3.56664,-4.83329 6.3,-6.3 2.79997,-1.53328 5.96663,-2.29995 9.5,-2.3 m -3.3,41.2 c 3.93329,1e-5 6.99996,-1.33332 9.2,-4 2.19995,-2.73332 3.29995,-6.56665 3.3,-11.5 -5e-5,-5.06664 -1.10005,-8.99997 -3.3,-11.8 -2.20004,-2.79996 -5.26671,-4.19996 -9.2,-4.2 -4.00003,4e-5 -7.10003,1.36671 -9.3,4.1 -2.13336,2.73337 -3.20002,6.63336 -3.2,11.7 -2e-5,5.00002 1.06664,8.86668 3.2,11.6 2.19997,2.73334 5.29997,4.10001 9.3,4.1"
       id="path4167"
       style="font-size:100px;fill:#935d8c;fill-opacity:1" /><path
       d="m 580.94207,136.15 c 6.79996,5e-5 11.83329,1.70005 15.1,5.1 3.33328,3.33337 4.99995,8.43337 5,15.3 l 0,24.4 c -5e-5,1.8 -0.53339,3.23334 -1.6,4.3 -1.06672,1 -2.53338,1.5 -4.4,1.5 -1.73338,0 -3.16671,-0.53333 -4.3,-1.6 -1.06671,-1.06666 -1.60004,-2.46666 -1.6,-4.2 l 0,-2.2 c -1.13337,2.6 -2.93337,4.63334 -5.4,6.1 -2.40003,1.46667 -5.20003,2.2 -8.4,2.2 -3.26669,0 -6.23335,-0.66667 -8.9,-2 -2.66668,-1.33333 -4.76668,-3.16666 -6.3,-5.5 -1.53334,-2.33332 -2.30001,-4.93332 -2.3,-7.8 -1e-5,-3.59998 0.89999,-6.43331 2.7,-8.5 1.86665,-2.06664 4.86665,-3.56664 9,-4.5 4.13331,-0.9333 9.8333,-1.39997 17.1,-1.4 l 2.5,0 0,-2.3 c -4e-5,-3.26663 -0.70004,-5.6333 -2.1,-7.1 -1.40004,-1.53329 -3.6667,-2.29996 -6.8,-2.3 -1.93336,4e-5 -3.90003,0.30004 -5.9,0.9 -2.00002,0.53337 -4.36669,1.33337 -7.1,2.4 -1.73335,0.8667 -3.00002,1.30004 -3.8,1.3 -1.20001,4e-5 -2.20001,-0.4333 -3,-1.3 -0.73334,-0.86663 -1.10001,-1.99996 -1.1,-3.4 -1e-5,-1.13329 0.26666,-2.09996 0.8,-2.9 0.59999,-0.86662 1.56665,-1.66662 2.9,-2.4 2.33332,-1.26662 5.09998,-2.26662 8.3,-3 3.26664,-0.73328 6.46664,-1.09995 9.6,-1.1 m -3.1,41.9 c 3.3333,10e-6 6.0333,-1.09999 8.1,-3.3 2.13329,-2.26665 3.19996,-5.16665 3.2,-8.7 l 0,-2.1 -1.8,0 c -4.4667,2e-5 -7.93336,0.20002 -10.4,0.6 -2.46669,0.40002 -4.23336,1.10002 -5.3,2.1 -1.06669,1.00002 -1.60002,2.36668 -1.6,4.1 -2e-5,2.13335 0.73331,3.90001 2.2,5.3 1.53331,1.33334 3.39997,2.00001 5.6,2"
       id="path4169"
       style="font-size:100px;fill:#935d8c;fill-opacity:1" /><path
       d="m 635.34832,187.05 c -4.86669,0 -9.16669,-1.03333 -12.9,-3.1 -3.66668,-2.06666 -6.50001,-4.99999 -8.5,-8.8 -2.00001,-3.79999 -3.00001,-8.23331 -3,-13.3 -10e-6,-5.06664 1.03332,-9.5333 3.1,-13.4 2.13332,-3.93329 5.09998,-6.96662 8.9,-9.1 3.79998,-2.13328 8.16664,-3.19995 13.1,-3.2 2.59996,5e-5 5.19996,0.36672 7.8,1.1 2.66662,0.73338 4.99995,1.73338 7,3 2.13328,1.40004 3.19995,3.16671 3.2,5.3 -5e-5,1.46671 -0.36672,2.6667 -1.1,3.6 -0.66672,0.8667 -1.56672,1.30004 -2.7,1.3 -0.73338,4e-5 -1.50005,-0.16663 -2.3,-0.5 -0.80004,-0.3333 -1.60004,-0.7333 -2.4,-1.2 -1.46671,-0.86663 -2.86671,-1.53329 -4.2,-2 -1.33337,-0.53329 -2.8667,-0.79996 -4.6,-0.8 -4.13336,4e-5 -7.33336,1.36671 -9.6,4.1 -2.20002,2.6667 -3.30002,6.53336 -3.3,11.6 -2e-5,5.00002 1.09998,8.86668 3.3,11.6 2.26664,2.66668 5.46664,4.00001 9.6,4 1.66663,1e-5 3.1333,-0.23332 4.4,-0.7 1.33329,-0.53332 2.79996,-1.23332 4.4,-2.1 0.99996,-0.59999 1.86662,-1.03332 2.6,-1.3 0.73329,-0.33332 1.46662,-0.49999 2.2,-0.5 1.06662,1e-5 1.96662,0.46668 2.7,1.4 0.73328,0.93334 1.09995,2.10001 1.1,3.5 -5e-5,1.13334 -0.26672,2.13334 -0.8,3 -0.46672,0.8 -1.26672,1.53334 -2.4,2.2 -2.06671,1.33334 -4.46671,2.4 -7.2,3.2 -2.73337,0.73333 -5.53337,1.1 -8.4,1.1"
       id="path4171"
       style="font-size:100px;fill:#935d8c;fill-opacity:1" /><path
       d="m 688.26707,177.55 c 3.33329,0.20001 4.99996,1.70001 5,4.5 -4e-5,1.6 -0.66671,2.83333 -2,3.7 -1.2667,0.8 -3.10004,1.13333 -5.5,1 l -2.7,-0.2 c -11.20002,-0.8 -16.80001,-6.79999 -16.8,-18 l 0,-21.8 -5,0 c -1.80001,4e-5 -3.20001,-0.39996 -4.2,-1.2 -0.93334,-0.79996 -1.4,-1.96662 -1.4,-3.5 0,-1.53329 0.46666,-2.69995 1.4,-3.5 0.99999,-0.79995 2.39999,-1.19995 4.2,-1.2 l 5,0 0,-9.2 c -10e-6,-1.79994 0.56665,-3.23327 1.7,-4.3 1.13332,-1.0666 2.66665,-1.59994 4.6,-1.6 1.86664,6e-5 3.36664,0.5334 4.5,1.6 1.13331,1.06673 1.69997,2.50006 1.7,4.3 l 0,9.2 8.5,0 c 1.79996,5e-5 3.16663,0.40005 4.1,1.2 0.99996,0.80005 1.49996,1.96671 1.5,3.5 -4e-5,1.53338 -0.50004,2.70004 -1.5,3.5 -0.93337,0.80004 -2.30004,1.20004 -4.1,1.2 l -8.5,0 0,22.7 c -3e-5,4.93335 2.26664,7.56668 6.8,7.9 l 2.7,0.2"
       id="path4173"
       style="font-size:100px;fill:#935d8c;fill-opacity:1" /><path
       d="m 720.98113,136.15 c 6.79996,5e-5 11.83329,1.70005 15.1,5.1 3.33329,3.33337 4.99995,8.43337 5,15.3 l 0,24.4 c -5e-5,1.8 -0.53338,3.23334 -1.6,4.3 -1.06671,1 -2.53338,1.5 -4.4,1.5 -1.73338,0 -3.16671,-0.53333 -4.3,-1.6 -1.06671,-1.06666 -1.60004,-2.46666 -1.6,-4.2 l 0,-2.2 c -1.13337,2.6 -2.93337,4.63334 -5.4,6.1 -2.40003,1.46667 -5.20003,2.2 -8.4,2.2 -3.26669,0 -6.23335,-0.66667 -8.9,-2 -2.66668,-1.33333 -4.76668,-3.16666 -6.3,-5.5 -1.53334,-2.33332 -2.30001,-4.93332 -2.3,-7.8 -10e-6,-3.59998 0.89999,-6.43331 2.7,-8.5 1.86666,-2.06664 4.86665,-3.56664 9,-4.5 4.13331,-0.9333 9.83331,-1.39997 17.1,-1.4 l 2.5,0 0,-2.3 c -4e-5,-3.26663 -0.70004,-5.6333 -2.1,-7.1 -1.40003,-1.53329 -3.6667,-2.29996 -6.8,-2.3 -1.93336,4e-5 -3.90003,0.30004 -5.9,0.9 -2.00002,0.53337 -4.36669,1.33337 -7.1,2.4 -1.73335,0.8667 -3.00001,1.30004 -3.8,1.3 -1.20001,4e-5 -2.20001,-0.4333 -3,-1.3 -0.73334,-0.86663 -1.10001,-1.99996 -1.1,-3.4 -10e-6,-1.13329 0.26666,-2.09996 0.8,-2.9 0.59999,-0.86662 1.56666,-1.66662 2.9,-2.4 2.33332,-1.26662 5.09998,-2.26662 8.3,-3 3.26664,-0.73328 6.46664,-1.09995 9.6,-1.1 m -3.1,41.9 c 3.3333,10e-6 6.0333,-1.09999 8.1,-3.3 2.1333,-2.26665 3.19996,-5.16665 3.2,-8.7 l 0,-2.1 -1.8,0 c -4.4667,2e-5 -7.93336,0.20002 -10.4,0.6 -2.46669,0.40002 -4.23335,1.10002 -5.3,2.1 -1.06669,1.00002 -1.60002,2.36668 -1.6,4.1 -2e-5,2.13335 0.73331,3.90001 2.2,5.3 1.53331,1.33334 3.39998,2.00001 5.6,2"
       id="path4175"
       style="font-size:100px;fill:#935d8c;fill-opacity:1" /><path
       d="m 771.38738,187.05 c -7.26669,0 -13.13335,-1.43333 -17.6,-4.3 -2.13334,-1.26666 -3.20001,-3.06666 -3.2,-5.4 -1e-5,-1.33332 0.36666,-2.39999 1.1,-3.2 0.73333,-0.86665 1.63333,-1.29999 2.7,-1.3 1.13332,1e-5 2.69999,0.53335 4.7,1.6 2.13332,1.00001 4.06665,1.76668 5.8,2.3 1.79998,0.53334 4.06664,0.80001 6.8,0.8 2.79997,10e-6 4.96664,-0.46666 6.5,-1.4 1.59997,-0.93332 2.39996,-2.23332 2.4,-3.9 -4e-5,-1.13332 -0.33337,-2.03332 -1,-2.7 -0.60003,-0.66665 -1.73337,-1.26665 -3.4,-1.8 -1.60003,-0.59998 -4.06669,-1.26665 -7.4,-2 -5.93335,-1.19998 -10.20001,-2.89998 -12.8,-5.1 -2.53334,-2.19997 -3.80001,-5.2333 -3.8,-9.1 -10e-6,-2.9333 0.86666,-5.56663 2.6,-7.9 1.73332,-2.39996 4.09999,-4.23329 7.1,-5.5 3.06665,-1.33328 6.53331,-1.99995 10.4,-2 2.79997,5e-5 5.49997,0.36672 8.1,1.1 2.59996,0.66671 4.93329,1.66671 7,3 2.13329,1.33338 3.19995,3.10004 3.2,5.3 -5e-5,1.33337 -0.36671,2.4667 -1.1,3.4 -0.73338,0.8667 -1.63338,1.30004 -2.7,1.3 -0.73337,4e-5 -1.46671,-0.1333 -2.2,-0.4 -0.66671,-0.3333 -1.53337,-0.79996 -2.6,-1.4 -1.93337,-0.99996 -3.60003,-1.73329 -5,-2.2 -1.40003,-0.53329 -3.13336,-0.79996 -5.2,-0.8 -2.46669,4e-5 -4.43336,0.50004 -5.9,1.5 -1.40002,1.00004 -2.10002,2.3667 -2.1,4.1 -2e-5,1.6667 0.73331,2.93337 2.2,3.8 1.46664,0.8667 4.29997,1.73336 8.5,2.6 4.46663,0.93336 7.96663,2.00003 10.5,3.2 2.53329,1.20002 4.33329,2.70002 5.4,4.5 1.13329,1.80002 1.69995,4.10002 1.7,6.9 -5e-5,4.53334 -1.90005,8.16667 -5.7,10.9 -3.73337,2.73333 -8.73337,4.1 -15,4.1"
       id="path4177"
       style="font-size:100px;fill:#935d8c;fill-opacity:1" /><path
       d="m 823.32488,136.15 c 6.79996,5e-5 11.83329,1.70005 15.1,5.1 3.33329,3.33337 4.99995,8.43337 5,15.3 l 0,24.4 c -5e-5,1.8 -0.53338,3.23334 -1.6,4.3 -1.06671,1 -2.53338,1.5 -4.4,1.5 -1.73338,0 -3.16671,-0.53333 -4.3,-1.6 -1.06671,-1.06666 -1.60004,-2.46666 -1.6,-4.2 l 0,-2.2 c -1.13337,2.6 -2.93337,4.63334 -5.4,6.1 -2.40003,1.46667 -5.20003,2.2 -8.4,2.2 -3.26669,0 -6.23335,-0.66667 -8.9,-2 -2.66668,-1.33333 -4.76668,-3.16666 -6.3,-5.5 -1.53334,-2.33332 -2.30001,-4.93332 -2.3,-7.8 -10e-6,-3.59998 0.89999,-6.43331 2.7,-8.5 1.86666,-2.06664 4.86665,-3.56664 9,-4.5 4.13331,-0.9333 9.83331,-1.39997 17.1,-1.4 l 2.5,0 0,-2.3 c -4e-5,-3.26663 -0.70004,-5.6333 -2.1,-7.1 -1.40003,-1.53329 -3.6667,-2.29996 -6.8,-2.3 -1.93336,4e-5 -3.90003,0.30004 -5.9,0.9 -2.00002,0.53337 -4.36669,1.33337 -7.1,2.4 -1.73335,0.8667 -3.00001,1.30004 -3.8,1.3 -1.20001,4e-5 -2.20001,-0.4333 -3,-1.3 -0.73334,-0.86663 -1.10001,-1.99996 -1.1,-3.4 -10e-6,-1.13329 0.26666,-2.09996 0.8,-2.9 0.59999,-0.86662 1.56666,-1.66662 2.9,-2.4 2.33332,-1.26662 5.09998,-2.26662 8.3,-3 3.26664,-0.73328 6.46664,-1.09995 9.6,-1.1 m -3.1,41.9 c 3.3333,10e-6 6.0333,-1.09999 8.1,-3.3 2.1333,-2.26665 3.19996,-5.16665 3.2,-8.7 l 0,-2.1 -1.8,0 c -4.4667,2e-5 -7.93336,0.20002 -10.4,0.6 -2.46669,0.40002 -4.23335,1.10002 -5.3,2.1 -1.06669,1.00002 -1.60002,2.36668 -1.6,4.1 -2e-5,2.13335 0.73331,3.90001 2.2,5.3 1.53331,1.33334 3.39998,2.00001 5.6,2"
       id="path4179"
       style="font-size:100px;fill:#935d8c;fill-opacity:1" /><path
       d="m 894.63113,136.35 c 1.93328,5e-5 3.46662,0.53338 4.6,1.6 1.13328,1.06671 1.69995,2.50005 1.7,4.3 l 0,38.8 c -5e-5,1.73334 -0.60005,3.13334 -1.8,4.2 -1.13338,1.06667 -2.63338,1.6 -4.5,1.6 -1.80005,0 -3.23338,-0.5 -4.3,-1.5 -1.06671,-1 -1.60004,-2.36666 -1.6,-4.1 l 0,-2.5 c -1.53337,2.66667 -3.60004,4.73334 -6.2,6.2 -2.60003,1.4 -5.53336,2.1 -8.8,2.1 -12.00001,0 -18.00001,-6.73333 -18,-20.2 l 0,-24.6 c -10e-6,-1.79995 0.56666,-3.23329 1.7,-4.3 1.13332,-1.06662 2.63332,-1.59995 4.5,-1.6 1.93332,5e-5 3.46665,0.53338 4.6,1.6 1.13331,1.06671 1.69998,2.50005 1.7,4.3 l 0,24.7 c -2e-5,3.46668 0.69998,6.03335 2.1,7.7 1.39998,1.66668 3.59997,2.50001 6.6,2.5 3.46663,1e-5 6.2333,-1.13332 8.3,-3.4 2.13329,-2.33332 3.19996,-5.39998 3.2,-9.2 l 0,-22.3 c -4e-5,-1.79995 0.56663,-3.23329 1.7,-4.3 1.13329,-1.06662 2.63329,-1.59995 4.5,-1.6"
       id="path4181"
       style="font-size:100px;fill:#935d8c;fill-opacity:1" /><path
       d="m 941.14363,136.35 c 1.7333,-0.13328 3.09996,0.23338 4.1,1.1 0.99996,0.86671 1.49996,2.16671 1.5,3.9 -4e-5,1.80004 -0.43337,3.13338 -1.3,4 -0.86671,0.86671 -2.43337,1.43337 -4.7,1.7 l -3,0.3 c -3.93336,0.40004 -6.83336,1.73337 -8.7,4 -1.80002,2.2667 -2.70002,5.10003 -2.7,8.5 l 0,21 c -2e-5,1.93334 -0.60002,3.43334 -1.8,4.5 -1.20002,1 -2.70002,1.5 -4.5,1.5 -1.80001,0 -3.30001,-0.5 -4.5,-1.5 -1.13334,-1.06666 -1.70001,-2.56666 -1.7,-4.5 l 0,-38.7 c -10e-6,-1.86662 0.56666,-3.29995 1.7,-4.3 1.19999,-0.99995 2.66665,-1.49995 4.4,-1.5 1.73332,5e-5 3.13332,0.50005 4.2,1.5 1.06665,0.93338 1.59998,2.30005 1.6,4.1 l 0,4 c 1.26664,-2.93329 3.13331,-5.19995 5.6,-6.8 2.5333,-1.59995 5.3333,-2.49995 8.4,-2.7 l 1.4,-0.1"
       id="path4183"
       style="font-size:100px;fill:#935d8c;fill-opacity:1" /><path
       d="m 990.72488,136.35 c 1.93328,5e-5 3.46662,0.53338 4.6,1.6 1.13328,1.06671 1.69995,2.50005 1.7,4.3 l 0,38.8 c -5e-5,1.73334 -0.60005,3.13334 -1.8,4.2 -1.13338,1.06667 -2.63338,1.6 -4.5,1.6 -1.80005,0 -3.23338,-0.5 -4.3,-1.5 -1.06671,-1 -1.60004,-2.36666 -1.6,-4.1 l 0,-2.5 c -1.53337,2.66667 -3.60004,4.73334 -6.2,6.2 -2.60003,1.4 -5.53336,2.1 -8.8,2.1 -12.00001,0 -18.00001,-6.73333 -18,-20.2 l 0,-24.6 c -10e-6,-1.79995 0.56666,-3.23329 1.7,-4.3 1.13332,-1.06662 2.63332,-1.59995 4.5,-1.6 1.93332,5e-5 3.46665,0.53338 4.6,1.6 1.13331,1.06671 1.69998,2.50005 1.7,4.3 l 0,24.7 c -2e-5,3.46668 0.69998,6.03335 2.1,7.7 1.39998,1.66668 3.59997,2.50001 6.6,2.5 3.46663,1e-5 6.2333,-1.13332 8.3,-3.4 2.13329,-2.33332 3.19996,-5.39998 3.2,-9.2 l 0,-22.3 c -4e-5,-1.79995 0.56663,-3.23329 1.7,-4.3 1.13329,-1.06662 2.63329,-1.59995 4.5,-1.6"
       id="path4185"
       style="font-size:100px;fill:#935d8c;fill-opacity:1" /><path
       d="m 1027.6374,187.05 c -7.2667,0 -13.1334,-1.43333 -17.6,-4.3 -2.1334,-1.26666 -3.2,-3.06666 -3.2,-5.4 0,-1.33332 0.3666,-2.39999 1.1,-3.2 0.7333,-0.86665 1.6333,-1.29999 2.7,-1.3 1.1333,1e-5 2.7,0.53335 4.7,1.6 2.1333,1.00001 4.0666,1.76668 5.8,2.3 1.8,0.53334 4.0666,0.80001 6.8,0.8 2.8,10e-6 4.9666,-0.46666 6.5,-1.4 1.5999,-0.93332 2.3999,-2.23332 2.4,-3.9 -10e-5,-1.13332 -0.3334,-2.03332 -1,-2.7 -0.6001,-0.66665 -1.7334,-1.26665 -3.4,-1.8 -1.6,-0.59998 -4.0667,-1.26665 -7.4,-2 -5.9334,-1.19998 -10.2,-2.89998 -12.8,-5.1 -2.5334,-2.19997 -3.8,-5.2333 -3.8,-9.1 0,-2.9333 0.8666,-5.56663 2.6,-7.9 1.7333,-2.39996 4.1,-4.23329 7.1,-5.5 3.0666,-1.33328 6.5333,-1.99995 10.4,-2 2.8,5e-5 5.4999,0.36672 8.1,1.1 2.5999,0.66671 4.9333,1.66671 7,3 2.1333,1.33338 3.1999,3.10004 3.2,5.3 -10e-5,1.33337 -0.3667,2.4667 -1.1,3.4 -0.7334,0.8667 -1.6334,1.30004 -2.7,1.3 -0.7334,4e-5 -1.4667,-0.1333 -2.2,-0.4 -0.6667,-0.3333 -1.5334,-0.79996 -2.6,-1.4 -1.9334,-0.99996 -3.6001,-1.73329 -5,-2.2 -1.4001,-0.53329 -3.1334,-0.79996 -5.2,-0.8 -2.4667,4e-5 -4.4334,0.50004 -5.9,1.5 -1.4,1.00004 -2.1,2.3667 -2.1,4.1 0,1.6667 0.7333,2.93337 2.2,3.8 1.4666,0.8667 4.3,1.73336 8.5,2.6 4.4666,0.93336 7.9666,2.00003 10.5,3.2 2.5333,1.20002 4.3333,2.70002 5.4,4.5 1.1333,1.80002 1.6999,4.10002 1.7,6.9 -10e-5,4.53334 -1.9001,8.16667 -5.7,10.9 -3.7334,2.73333 -8.7334,4.1 -15,4.1"
       id="path4187"
       style="font-size:100px;fill:#935d8c;fill-opacity:1" /></g></svg>