<?xml version="1.0" encoding="UTF-8" standalone="no"?>
<!-- Generator: Adobe Illustrator 20.1.0, SVG Export Plug-In . SVG Version: 6.00 Build 0)  -->

<svg
   xmlns:dc="http://purl.org/dc/elements/1.1/"
   xmlns:cc="http://creativecommons.org/ns#"
   xmlns:rdf="http://www.w3.org/1999/02/22-rdf-syntax-ns#"
   xmlns:svg="http://www.w3.org/2000/svg"
   xmlns="http://www.w3.org/2000/svg"
   xmlns:sodipodi="http://sodipodi.sourceforge.net/DTD/sodipodi-0.dtd"
   xmlns:inkscape="http://www.inkscape.org/namespaces/inkscape"
   version="1.1"
   x="0px"
   y="0px"
   viewBox="0 0 320 320"
   xml:space="preserve"
   id="svg2"
   inkscape:version="0.48.4 r9939"
   width="100%"
   height="100%"
   sodipodi:docname="logo.svg"><metadata
     id="metadata60"><rdf:RDF><cc:Work
         rdf:about=""><dc:format>image/svg+xml</dc:format><dc:type
           rdf:resource="http://purl.org/dc/dcmitype/StillImage" /><dc:title></dc:title></cc:Work></rdf:RDF></metadata><defs
     id="defs58" /><sodipodi:namedview
     pagecolor="#ffffff"
     bordercolor="#666666"
     borderopacity="1"
     objecttolerance="10"
     gridtolerance="10"
     guidetolerance="10"
     inkscape:pageopacity="0"
     inkscape:pageshadow="2"
     inkscape:window-width="640"
     inkscape:window-height="480"
     id="namedview56"
     showgrid="false"
     inkscape:zoom="1.4658005"
     inkscape:cx="157.86312"
     inkscape:cy="210.85296"
     inkscape:window-x="28"
     inkscape:window-y="76"
     inkscape:window-maximized="0"
     inkscape:current-layer="svg2" /><style
     type="text/css"
     id="style4">
	.st0{display:none;}
	.st1{display:inline;}
	.st2{fill:#FFFFFF;}
	.st3{font-family:'Dosis-ExtraBold';}
	.st4{font-size:199.3566px;}
	.st5{letter-spacing:9;}
	.st6{display:inline;fill:#FA004F;}
	.st7{fill:#FA004F;}
</style><g
     id="Black_inverted"
     class="st0"
     style="display:none"
     transform="translate(0,-182.1)"><rect
       id="Background_1_"
       class="st1"
       width="2091.7"
       height="500"
       x="0"
       y="0"
       style="display:inline" /><g
       id="Logo_1_"
       class="st1"
       style="display:inline"><ellipse
         class="st2"
         cx="237.7"
         cy="248.8"
         rx="158.89999"
         ry="157.39999"
         id="ellipse9"
         sodipodi:cx="237.7"
         sodipodi:cy="248.8"
         sodipodi:rx="158.89999"
         sodipodi:ry="157.39999"
         style="fill:#ffffff"
         d="m 396.59999,248.8 c 0,86.92962 -71.14195,157.4 -158.89999,157.4 -87.75805,0 -158.899997,-70.47038 -158.899997,-157.4 0,-86.92961 71.141947,-157.399991 158.899997,-157.399991 87.75804,0 158.89999,70.470381 158.89999,157.399991 z" /><path
         d="m 243.4,193.6 c 0,0 -0.8,-16.5 17.5,-17.5 20.3,-1.1 63,19.7 58.6,79.3 -4.3,57.6 -12,66.4 -12,66.4 0,0 2,7.9 4,14.4 0.8,2.7 3.6,12.1 -3.3,13.6 -7.1,1.6 -17.3,-0.1 -25.8,0.4 -4.6,0.3 -6.3,-2.9 -6.7,-6.7 0,0 -2.4,-13.6 -2.6,-13.5 -3.1,1.4 -16.5,3.4 -26,3.1 -10.2,-0.3 -27.4,-2.9 -27.4,-2.9 0,0 0,9.6 0,14 0,2.2 -1.7,5.7 -5.9,5.9 -2.3,0.1 -25.9,0.1 -27.9,0 -4,-0.2 -5.8,-4.2 -5.2,-9 0.6,-4.8 1.2,-6.8 1.2,-6.8 0,0 10.9,-3.2 7.5,-21.1 0,0 -25.2,31.9 -62.8,33.1 0,0 27.2,-20.3 36,-51.7 7.9,-28.1 41.8,-39 58.4,-38.4 16.6,0.6 27.3,5.8 41.1,4 5.6,-0.7 24.2,-3.2 24.6,-24.6 C 287,215 265.6,211 262.1,211 c -5.6,0.2 -19.1,-3.4 -18.7,-17.4 z"
         id="path11"
         inkscape:connector-curvature="0" /><circle
         cx="257.29999"
         cy="140.2"
         r="17.200001"
         id="circle13"
         sodipodi:cx="257.29999"
         sodipodi:cy="140.2"
         sodipodi:rx="17.200001"
         sodipodi:ry="17.200001"
         d="m 274.49999,140.2 c 0,9.4993 -7.7007,17.2 -17.2,17.2 -9.4993,0 -17.2,-7.7007 -17.2,-17.2 0,-9.4993 7.7007,-17.2 17.2,-17.2 9.4993,0 17.2,7.7007 17.2,17.2 z" /></g><g
       id="Text_1_"
       class="st1"
       style="display:inline"><text
         transform="translate(454.3588,324.7874)"
         class="st2 st3 st4 st5"
         id="text16"
         style="font-size:199.3565979px;letter-spacing:9;fill:#ffffff;font-family:Dosis-ExtraBold">IMPACTASAURUS</text>
</g><g
       id="Guides_1_"
       class="st1"
       style="display:inline" /></g><g
     id="Fuschia_inverted"
     class="st0"
     style="display:none"
     transform="translate(0,-182.1)"><rect
       id="Background"
       y="1"
       class="st6"
       width="2091.7"
       height="500"
       x="0"
       style="fill:#fa004f;display:inline" /><g
       id="Logo"
       class="st1"
       style="display:inline"><ellipse
         class="st2"
         cx="237.7"
         cy="248.8"
         rx="158.89999"
         ry="157.39999"
         id="ellipse22"
         sodipodi:cx="237.7"
         sodipodi:cy="248.8"
         sodipodi:rx="158.89999"
         sodipodi:ry="157.39999"
         style="fill:#ffffff"
         d="m 396.59999,248.8 c 0,86.92962 -71.14195,157.4 -158.89999,157.4 -87.75805,0 -158.899997,-70.47038 -158.899997,-157.4 0,-86.92961 71.141947,-157.399991 158.899997,-157.399991 87.75804,0 158.89999,70.470381 158.89999,157.399991 z" /><path
         class="st7"
         d="m 243.4,193.6 c 0,0 -0.8,-16.5 17.5,-17.5 20.3,-1.1 63,19.7 58.6,79.3 -4.3,57.6 -12,66.4 -12,66.4 0,0 2,7.9 4,14.4 0.8,2.7 3.6,12.1 -3.3,13.6 -7.1,1.6 -17.3,-0.1 -25.8,0.4 -4.6,0.3 -6.3,-2.9 -6.7,-6.7 0,0 -2.4,-13.6 -2.6,-13.5 -3.1,1.4 -16.5,3.4 -26,3.1 -10.2,-0.3 -27.4,-2.9 -27.4,-2.9 0,0 0,9.6 0,14 0,2.2 -1.7,5.7 -5.9,5.9 -2.3,0.1 -25.9,0.1 -27.9,0 -4,-0.2 -5.8,-4.2 -5.2,-9 0.6,-4.8 1.2,-6.8 1.2,-6.8 0,0 10.9,-3.2 7.5,-21.1 0,0 -25.2,31.9 -62.8,33.1 0,0 27.2,-20.3 36,-51.7 7.9,-28.1 41.8,-39 58.4,-38.4 16.6,0.6 27.3,5.8 41.1,4 5.6,-0.7 24.2,-3.2 24.6,-24.6 C 287,215 265.6,211 262.1,211 c -5.6,0.2 -19.1,-3.4 -18.7,-17.4 z"
         id="path24"
         inkscape:connector-curvature="0"
         style="fill:#fa004f" /><circle
         class="st7"
         cx="257.29999"
         cy="140.2"
         r="17.200001"
         id="circle26"
         sodipodi:cx="257.29999"
         sodipodi:cy="140.2"
         sodipodi:rx="17.200001"
         sodipodi:ry="17.200001"
         style="fill:#fa004f"
         d="m 274.49999,140.2 c 0,9.4993 -7.7007,17.2 -17.2,17.2 -9.4993,0 -17.2,-7.7007 -17.2,-17.2 0,-9.4993 7.7007,-17.2 17.2,-17.2 9.4993,0 17.2,7.7007 17.2,17.2 z" /></g><g
       id="Text"
       class="st1"
       style="display:inline"><text
         transform="translate(454.3588,324.7874)"
         class="st2 st3 st4 st5"
         id="text29"
         style="font-size:199.3565979px;letter-spacing:9;fill:#ffffff;font-family:Dosis-ExtraBold">IMPACTASAURUS</text>
</g><g
       id="Guides"
       class="st1"
       style="display:inline" /></g><g
     id="Black_normal"
     class="st0"
     style="display:none"
     transform="translate(0,-182.1)"><g
       id="Logo_3_"
       class="st1"
       style="display:inline"><ellipse
         cx="237.7"
         cy="248.8"
         rx="158.89999"
         ry="157.39999"
         id="ellipse34"
         sodipodi:cx="237.7"
         sodipodi:cy="248.8"
         sodipodi:rx="158.89999"
         sodipodi:ry="157.39999"
         d="m 396.59999,248.8 c 0,86.92962 -71.14195,157.4 -158.89999,157.4 -87.75805,0 -158.899997,-70.47038 -158.899997,-157.4 0,-86.92961 71.141947,-157.399991 158.899997,-157.399991 87.75804,0 158.89999,70.470381 158.89999,157.399991 z" /><path
         class="st2"
         d="m 243.4,193.6 c 0,0 -0.8,-16.5 17.5,-17.5 20.3,-1.1 63,19.7 58.6,79.3 -4.3,57.6 -12,66.4 -12,66.4 0,0 2,7.9 4,14.4 0.8,2.7 3.6,12.1 -3.3,13.6 -7.1,1.6 -17.3,-0.1 -25.8,0.4 -4.6,0.3 -6.3,-2.9 -6.7,-6.7 0,0 -2.4,-13.6 -2.6,-13.5 -3.1,1.4 -16.5,3.4 -26,3.1 -10.2,-0.3 -27.4,-2.9 -27.4,-2.9 0,0 0,9.6 0,14 0,2.2 -1.7,5.7 -5.9,5.9 -2.3,0.1 -25.9,0.1 -27.9,0 -4,-0.2 -5.8,-4.2 -5.2,-9 0.6,-4.8 1.2,-6.8 1.2,-6.8 0,0 10.9,-3.2 7.5,-21.1 0,0 -25.2,31.9 -62.8,33.1 0,0 27.2,-20.3 36,-51.7 7.9,-28.1 41.8,-39 58.4,-38.4 16.6,0.6 27.3,5.8 41.1,4 5.6,-0.7 24.2,-3.2 24.6,-24.6 C 287,215 265.6,211 262.1,211 c -5.6,0.2 -19.1,-3.4 -18.7,-17.4 z"
         id="path36"
         inkscape:connector-curvature="0"
         style="fill:#ffffff" /><circle
         class="st2"
         cx="257.29999"
         cy="140.2"
         r="17.200001"
         id="circle38"
         sodipodi:cx="257.29999"
         sodipodi:cy="140.2"
         sodipodi:rx="17.200001"
         sodipodi:ry="17.200001"
         style="fill:#ffffff"
         d="m 274.49999,140.2 c 0,9.4993 -7.7007,17.2 -17.2,17.2 -9.4993,0 -17.2,-7.7007 -17.2,-17.2 0,-9.4993 7.7007,-17.2 17.2,-17.2 9.4993,0 17.2,7.7007 17.2,17.2 z" /></g><g
       id="Text_3_"
       class="st1"
       style="display:inline"><text
         transform="translate(454.3588,324.7874)"
         class="st3 st4 st5"
         id="text41"
         style="font-size:199.3565979px;letter-spacing:9;font-family:Dosis-ExtraBold">IMPACTASAURUS</text>
</g><g
       id="Guides_3_"
       class="st1"
       style="display:inline" /></g><style
     id="style3169"
     type="text/css">
	.st0{display:none;}
	.st1{display:inline;}
	.st2{fill:#FFFFFF;}
	.st3{font-family:'Dosis-ExtraBold';}
	.st4{font-size:199.3566px;}
	.st5{letter-spacing:9;}
	.st6{display:inline;fill:#FA004F;}
	.st7{fill:#FA004F;}
</style><g
     style="display:none"
     id="Black_inverted-6"
     class="st0"
     transform="translate(-61.374958,275.53857)"><rect
       style="display:inline"
       y="0"
       x="0"
       id="Background_1_-3"
       class="st1"
       width="2091.7"
       height="500" /><g
       style="display:inline"
       id="Logo_1_-1"
       class="st1"><ellipse
         d="m 396.59999,248.8 c 0,86.92962 -71.14195,157.4 -158.89999,157.4 -87.75805,0 -158.899997,-70.47038 -158.899997,-157.4 0,-86.92961 71.141947,-157.399991 158.899997,-157.399991 87.75804,0 158.89999,70.470381 158.89999,157.399991 z"
         style="fill:#ffffff"
         sodipodi:ry="157.39999"
         sodipodi:rx="158.89999"
         sodipodi:cy="248.8"
         sodipodi:cx="237.7"
         class="st2"
         cx="237.7"
         cy="248.8"
         rx="158.89999"
         ry="157.39999"
         id="ellipse3174" /><path
         inkscape:connector-curvature="0"
         d="m 243.4,193.6 c 0,0 -0.8,-16.5 17.5,-17.5 20.3,-1.1 63,19.7 58.6,79.3 -4.3,57.6 -12,66.4 -12,66.4 0,0 2,7.9 4,14.4 0.8,2.7 3.6,12.1 -3.3,13.6 -7.1,1.6 -17.3,-0.1 -25.8,0.4 -4.6,0.3 -6.3,-2.9 -6.7,-6.7 0,0 -2.4,-13.6 -2.6,-13.5 -3.1,1.4 -16.5,3.4 -26,3.1 -10.2,-0.3 -27.4,-2.9 -27.4,-2.9 0,0 0,9.6 0,14 0,2.2 -1.7,5.7 -5.9,5.9 -2.3,0.1 -25.9,0.1 -27.9,0 -4,-0.2 -5.8,-4.2 -5.2,-9 0.6,-4.8 1.2,-6.8 1.2,-6.8 0,0 10.9,-3.2 7.5,-21.1 0,0 -25.2,31.9 -62.8,33.1 0,0 27.2,-20.3 36,-51.7 7.9,-28.1 41.8,-39 58.4,-38.4 16.6,0.6 27.3,5.8 41.1,4 5.6,-0.7 24.2,-3.2 24.6,-24.6 C 287,215 265.6,211 262.1,211 c -5.6,0.2 -19.1,-3.4 -18.7,-17.4 z"
         id="path3176" /><circle
         d="m 274.49999,140.2 c 0,9.4993 -7.7007,17.2 -17.2,17.2 -9.4993,0 -17.2,-7.7007 -17.2,-17.2 0,-9.4993 7.7007,-17.2 17.2,-17.2 9.4993,0 17.2,7.7007 17.2,17.2 z"
         sodipodi:ry="17.200001"
         sodipodi:rx="17.200001"
         sodipodi:cy="140.2"
         sodipodi:cx="257.29999"
         cx="257.29999"
         cy="140.2"
         r="17.200001"
         id="circle3178" /></g><g
       style="display:inline"
       id="Text_1_-1"
       class="st1"><text
         style="font-size:199.3565979px;letter-spacing:9;fill:#ffffff;font-family:Dosis-ExtraBold"
         transform="translate(454.3588,324.7874)"
         class="st2 st3 st4 st5"
         id="text3181">IMPACTASAURUS</text>
</g><g
       style="display:inline"
       id="Guides_1_-9"
       class="st1" /></g><g
     style="display:none"
     id="Fuschia_inverted-6"
     class="st0"
     transform="translate(-61.374958,275.53857)"><rect
       style="fill:#fa004f;display:inline"
       x="0"
       id="Background-2"
       y="1"
       class="st6"
       width="2091.7"
       height="500" /><g
       style="display:inline"
       id="Logo-2"
       class="st1"><ellipse
         d="m 396.59999,248.8 c 0,86.92962 -71.14195,157.4 -158.89999,157.4 -87.75805,0 -158.899997,-70.47038 -158.899997,-157.4 0,-86.92961 71.141947,-157.399991 158.899997,-157.399991 87.75804,0 158.89999,70.470381 158.89999,157.399991 z"
         style="fill:#ffffff"
         sodipodi:ry="157.39999"
         sodipodi:rx="158.89999"
         sodipodi:cy="248.8"
         sodipodi:cx="237.7"
         class="st2"
         cx="237.7"
         cy="248.8"
         rx="158.89999"
         ry="157.39999"
         id="ellipse3187" /><path
         style="fill:#fa004f"
         inkscape:connector-curvature="0"
         class="st7"
         d="m 243.4,193.6 c 0,0 -0.8,-16.5 17.5,-17.5 20.3,-1.1 63,19.7 58.6,79.3 -4.3,57.6 -12,66.4 -12,66.4 0,0 2,7.9 4,14.4 0.8,2.7 3.6,12.1 -3.3,13.6 -7.1,1.6 -17.3,-0.1 -25.8,0.4 -4.6,0.3 -6.3,-2.9 -6.7,-6.7 0,0 -2.4,-13.6 -2.6,-13.5 -3.1,1.4 -16.5,3.4 -26,3.1 -10.2,-0.3 -27.4,-2.9 -27.4,-2.9 0,0 0,9.6 0,14 0,2.2 -1.7,5.7 -5.9,5.9 -2.3,0.1 -25.9,0.1 -27.9,0 -4,-0.2 -5.8,-4.2 -5.2,-9 0.6,-4.8 1.2,-6.8 1.2,-6.8 0,0 10.9,-3.2 7.5,-21.1 0,0 -25.2,31.9 -62.8,33.1 0,0 27.2,-20.3 36,-51.7 7.9,-28.1 41.8,-39 58.4,-38.4 16.6,0.6 27.3,5.8 41.1,4 5.6,-0.7 24.2,-3.2 24.6,-24.6 C 287,215 265.6,211 262.1,211 c -5.6,0.2 -19.1,-3.4 -18.7,-17.4 z"
         id="path3189" /><circle
         d="m 274.49999,140.2 c 0,9.4993 -7.7007,17.2 -17.2,17.2 -9.4993,0 -17.2,-7.7007 -17.2,-17.2 0,-9.4993 7.7007,-17.2 17.2,-17.2 9.4993,0 17.2,7.7007 17.2,17.2 z"
         style="fill:#fa004f"
         sodipodi:ry="17.200001"
         sodipodi:rx="17.200001"
         sodipodi:cy="140.2"
         sodipodi:cx="257.29999"
         class="st7"
         cx="257.29999"
         cy="140.2"
         r="17.200001"
         id="circle3191" /></g><g
       style="display:inline"
       id="Text-1"
       class="st1"><text
         style="font-size:199.3565979px;letter-spacing:9;fill:#ffffff;font-family:Dosis-ExtraBold"
         transform="translate(454.3588,324.7874)"
         class="st2 st3 st4 st5"
         id="text3194">IMPACTASAURUS</text>
</g><g
       style="display:inline"
       id="Guides-9"
       class="st1" /></g><g
     style="display:none"
     id="Black_normal-8"
     class="st0"
     transform="translate(-61.374958,275.53857)"><g
       style="display:inline"
       id="Logo_3_-6"
       class="st1"><ellipse
         d="m 396.59999,248.8 c 0,86.92962 -71.14195,157.4 -158.89999,157.4 -87.75805,0 -158.899997,-70.47038 -158.899997,-157.4 0,-86.92961 71.141947,-157.399991 158.899997,-157.399991 87.75804,0 158.89999,70.470381 158.89999,157.399991 z"
         sodipodi:ry="157.39999"
         sodipodi:rx="158.89999"
         sodipodi:cy="248.8"
         sodipodi:cx="237.7"
         cx="237.7"
         cy="248.8"
         rx="158.89999"
         ry="157.39999"
         id="ellipse3199" /><path
         style="fill:#ffffff"
         inkscape:connector-curvature="0"
         class="st2"
         d="m 243.4,193.6 c 0,0 -0.8,-16.5 17.5,-17.5 20.3,-1.1 63,19.7 58.6,79.3 -4.3,57.6 -12,66.4 -12,66.4 0,0 2,7.9 4,14.4 0.8,2.7 3.6,12.1 -3.3,13.6 -7.1,1.6 -17.3,-0.1 -25.8,0.4 -4.6,0.3 -6.3,-2.9 -6.7,-6.7 0,0 -2.4,-13.6 -2.6,-13.5 -3.1,1.4 -16.5,3.4 -26,3.1 -10.2,-0.3 -27.4,-2.9 -27.4,-2.9 0,0 0,9.6 0,14 0,2.2 -1.7,5.7 -5.9,5.9 -2.3,0.1 -25.9,0.1 -27.9,0 -4,-0.2 -5.8,-4.2 -5.2,-9 0.6,-4.8 1.2,-6.8 1.2,-6.8 0,0 10.9,-3.2 7.5,-21.1 0,0 -25.2,31.9 -62.8,33.1 0,0 27.2,-20.3 36,-51.7 7.9,-28.1 41.8,-39 58.4,-38.4 16.6,0.6 27.3,5.8 41.1,4 5.6,-0.7 24.2,-3.2 24.6,-24.6 C 287,215 265.6,211 262.1,211 c -5.6,0.2 -19.1,-3.4 -18.7,-17.4 z"
         id="path3201" /><circle
         d="m 274.49999,140.2 c 0,9.4993 -7.7007,17.2 -17.2,17.2 -9.4993,0 -17.2,-7.7007 -17.2,-17.2 0,-9.4993 7.7007,-17.2 17.2,-17.2 9.4993,0 17.2,7.7007 17.2,17.2 z"
         style="fill:#ffffff"
         sodipodi:ry="17.200001"
         sodipodi:rx="17.200001"
         sodipodi:cy="140.2"
         sodipodi:cx="257.29999"
         class="st2"
         cx="257.29999"
         cy="140.2"
         r="17.200001"
         id="circle3203" /></g><g
       style="display:inline"
       id="Text_3_-6"
       class="st1"><text
         style="font-size:199.3565979px;letter-spacing:9;font-family:Dosis-ExtraBold"
         transform="translate(454.3588,324.7874)"
         class="st3 st4 st5"
         id="text3206">IMPACTASAURUS</text>
</g><g
       style="display:inline"
       id="Guides_3_-0"
       class="st1" /></g><g
     id="Logo_2_-9"
     transform="translate(-77.699997,-88.800003)"><ellipse
       id="ellipse3211"
       ry="157.39999"
       rx="158.89999"
       cy="248.8"
       cx="237.7"
       class="st7"
       sodipodi:cx="237.7"
       sodipodi:cy="248.8"
       sodipodi:rx="158.89999"
       sodipodi:ry="157.39999"
       style="fill:#fa004f"
       d="m 396.59999,248.8 c 0,86.92962 -71.14195,157.4 -158.89999,157.4 -87.75805,0 -158.899997,-70.47038 -158.899997,-157.4 0,-86.92961 71.141947,-157.399991 158.899997,-157.399991 87.75804,0 158.89999,70.470381 158.89999,157.399991 z" /><path
       id="path3213"
       d="m 243.4,193.6 c 0,0 -0.8,-16.5 17.5,-17.5 20.3,-1.1 63,19.7 58.6,79.3 -4.3,57.6 -12,66.4 -12,66.4 0,0 2,7.9 4,14.4 0.8,2.7 3.6,12.1 -3.3,13.6 -7.1,1.6 -17.3,-0.1 -25.8,0.4 -4.6,0.3 -6.3,-2.9 -6.7,-6.7 0,0 -2.4,-13.6 -2.6,-13.5 -3.1,1.4 -16.5,3.4 -26,3.1 -10.2,-0.3 -27.4,-2.9 -27.4,-2.9 0,0 0,9.6 0,14 0,2.2 -1.7,5.7 -5.9,5.9 -2.3,0.1 -25.9,0.1 -27.9,0 -4,-0.2 -5.8,-4.2 -5.2,-9 0.6,-4.8 1.2,-6.8 1.2,-6.8 0,0 10.9,-3.2 7.5,-21.1 0,0 -25.2,31.9 -62.8,33.1 0,0 27.2,-20.3 36,-51.7 7.9,-28.1 41.8,-39 58.4,-38.4 16.6,0.6 27.3,5.8 41.1,4 5.6,-0.7 24.2,-3.2 24.6,-24.6 C 287,215 265.6,211 262.1,211 c -5.6,0.2 -19.1,-3.4 -18.7,-17.4 z"
       class="st2"
       inkscape:connector-curvature="0"
       style="fill:#ffffff" /><circle
       id="circle3215"
       r="17.200001"
       cy="140.2"
       cx="257.29999"
       class="st2"
       sodipodi:cx="257.29999"
       sodipodi:cy="140.2"
       sodipodi:rx="17.200001"
       sodipodi:ry="17.200001"
       style="fill:#ffffff"
       d="m 274.49999,140.2 c 0,9.4993 -7.7007,17.2 -17.2,17.2 -9.4993,0 -17.2,-7.7007 -17.2,-17.2 0,-9.4993 7.7007,-17.2 17.2,-17.2 9.4993,0 17.2,7.7007 17.2,17.2 z" /></g><g
     id="Guides_2_-7"
     transform="translate(-61.374958,275.53857)" /></svg>