<?xml version="1.0" encoding="UTF-8" standalone="no"?>
<!-- Generator: Adobe Illustrator 20.1.0, SVG Export Plug-In . SVG Version: 6.00 Build 0)  -->

<svg
   xmlns:dc="http://purl.org/dc/elements/1.1/"
   xmlns:cc="http://creativecommons.org/ns#"
   xmlns:rdf="http://www.w3.org/1999/02/22-rdf-syntax-ns#"
   xmlns:svg="http://www.w3.org/2000/svg"
   xmlns="http://www.w3.org/2000/svg"
   xmlns:sodipodi="http://sodipodi.sourceforge.net/DTD/sodipodi-0.dtd"
   xmlns:inkscape="http://www.inkscape.org/namespaces/inkscape"
   version="1.1"
   x="0px"
   y="0px"
   viewBox="0 0 320 320"
   xml:space="preserve"
   id="svg2"
   inkscape:version="0.48.4 r9939"
   width="100%"
   height="100%"
   sodipodi:docname="logo.svg"><metadata
     id="metadata60"><rdf:RDF><cc:Work
         rdf:about=""><dc:format>image/svg+xml</dc:format><dc:type
           rdf:resource="http://purl.org/dc/dcmitype/StillImage" /><dc:title /></cc:Work></rdf:RDF></metadata><defs
     id="defs58" /><sodipodi:namedview
     pagecolor="#ffffff"
     bordercolor="#666666"
     borderopacity="1"
     objecttolerance="10"
     gridtolerance="10"
     guidetolerance="10"
     inkscape:pageopacity="0"
     inkscape:pageshadow="2"
     inkscape:window-width="919"
     inkscape:window-height="803"
     id="namedview56"
     showgrid="false"
     inkscape:zoom="1.4658005"
     inkscape:cx="157.86312"
     inkscape:cy="128.98643"
     inkscape:window-x="28"
     inkscape:window-y="76"
     inkscape:window-maximized="0"
     inkscape:current-layer="svg2" /><style
     type="text/css"
     id="style4">
	.st0{display:none;}
	.st1{display:inline;}
	.st2{fill:#FFFFFF;}
	.st3{font-family:'Dosis-ExtraBold';}
	.st4{font-size:199.3566px;}
	.st5{letter-spacing:9;}
	.st6{display:inline;fill:#FA004F;}
	.st7{fill:#FA004F;}
</style><g
     id="Black_inverted"
     class="st0"
     style="display:none"
     transform="translate(0,-182.1)"><rect
       id="Background_1_"
       class="st1"
       width="2091.7"
       height="500"
       x="0"
       y="0"
       style="display:inline" /><g
       id="Logo_1_"
       class="st1"
       style="display:inline"><ellipse
         class="st2"
         cx="237.7"
         cy="248.8"
         rx="158.89999"
         ry="157.39999"
         id="ellipse9"
         sodipodi:cx="237.7"
         sodipodi:cy="248.8"
         sodipodi:rx="158.89999"
         sodipodi:ry="157.39999"
         style="fill:#ffffff"
         d="m 396.59999,248.8 c 0,86.92962 -71.14195,157.4 -158.89999,157.4 -87.75805,0 -158.899997,-70.47038 -158.899997,-157.4 0,-86.92961 71.141947,-157.399991 158.899997,-157.399991 87.75804,0 158.89999,70.470381 158.89999,157.399991 z" /><path
         d="m 243.4,193.6 c 0,0 -0.8,-16.5 17.5,-17.5 20.3,-1.1 63,19.7 58.6,79.3 -4.3,57.6 -12,66.4 -12,66.4 0,0 2,7.9 4,14.4 0.8,2.7 3.6,12.1 -3.3,13.6 -7.1,1.6 -17.3,-0.1 -25.8,0.4 -4.6,0.3 -6.3,-2.9 -6.7,-6.7 0,0 -2.4,-13.6 -2.6,-13.5 -3.1,1.4 -16.5,3.4 -26,3.1 -10.2,-0.3 -27.4,-2.9 -27.4,-2.9 0,0 0,9.6 0,14 0,2.2 -1.7,5.7 -5.9,5.9 -2.3,0.1 -25.9,0.1 -27.9,0 -4,-0.2 -5.8,-4.2 -5.2,-9 0.6,-4.8 1.2,-6.8 1.2,-6.8 0,0 10.9,-3.2 7.5,-21.1 0,0 -25.2,31.9 -62.8,33.1 0,0 27.2,-20.3 36,-51.7 7.9,-28.1 41.8,-39 58.4,-38.4 16.6,0.6 27.3,5.8 41.1,4 5.6,-0.7 24.2,-3.2 24.6,-24.6 C 287,215 265.6,211 262.1,211 c -5.6,0.2 -19.1,-3.4 -18.7,-17.4 z"
         id="path11"
         inkscape:connector-curvature="0" /><circle
         cx="257.29999"
         cy="140.2"
         r="17.200001"
         id="circle13"
         sodipodi:cx="257.29999"
         sodipodi:cy="140.2"
         sodipodi:rx="17.200001"
         sodipodi:ry="17.200001"
         d="m 274.49999,140.2 c 0,9.4993 -7.7007,17.2 -17.2,17.2 -9.4993,0 -17.2,-7.7007 -17.2,-17.2 0,-9.4993 7.7007,-17.2 17.2,-17.2 9.4993,0 17.2,7.7007 17.2,17.2 z" /></g><g
       id="Text_1_"
       class="st1"
       style="display:inline"><text
         transform="translate(454.3588,324.7874)"
         class="st2 st3 st4 st5"
         id="text16"
         style="font-size:199.3565979px;letter-spacing:9;fill:#ffffff;font-family:Dosis-ExtraBold">IMPACTASAURUS</text>
</g><g
       id="Guides_1_"
       class="st1"
       style="display:inline" /></g><g
     id="Fuschia_inverted"
     class="st0"
     style="display:none"
     transform="translate(0,-182.1)"><rect
       id="Background"
       y="1"
       class="st6"
       width="2091.7"
       height="500"
       x="0"
       style="fill:#fa004f;display:inline" /><g
       id="Logo"
       class="st1"
       style="display:inline"><ellipse
         class="st2"
         cx="237.7"
         cy="248.8"
         rx="158.89999"
         ry="157.39999"
         id="ellipse22"
         sodipodi:cx="237.7"
         sodipodi:cy="248.8"
         sodipodi:rx="158.89999"
         sodipodi:ry="157.39999"
         style="fill:#ffffff"
         d="m 396.59999,248.8 c 0,86.92962 -71.14195,157.4 -158.89999,157.4 -87.75805,0 -158.899997,-70.47038 -158.899997,-157.4 0,-86.92961 71.141947,-157.399991 158.899997,-157.399991 87.75804,0 158.89999,70.470381 158.89999,157.399991 z" /><path
         class="st7"
         d="m 243.4,193.6 c 0,0 -0.8,-16.5 17.5,-17.5 20.3,-1.1 63,19.7 58.6,79.3 -4.3,57.6 -12,66.4 -12,66.4 0,0 2,7.9 4,14.4 0.8,2.7 3.6,12.1 -3.3,13.6 -7.1,1.6 -17.3,-0.1 -25.8,0.4 -4.6,0.3 -6.3,-2.9 -6.7,-6.7 0,0 -2.4,-13.6 -2.6,-13.5 -3.1,1.4 -16.5,3.4 -26,3.1 -10.2,-0.3 -27.4,-2.9 -27.4,-2.9 0,0 0,9.6 0,14 0,2.2 -1.7,5.7 -5.9,5.9 -2.3,0.1 -25.9,0.1 -27.9,0 -4,-0.2 -5.8,-4.2 -5.2,-9 0.6,-4.8 1.2,-6.8 1.2,-6.8 0,0 10.9,-3.2 7.5,-21.1 0,0 -25.2,31.9 -62.8,33.1 0,0 27.2,-20.3 36,-51.7 7.9,-28.1 41.8,-39 58.4,-38.4 16.6,0.6 27.3,5.8 41.1,4 5.6,-0.7 24.2,-3.2 24.6,-24.6 C 287,215 265.6,211 262.1,211 c -5.6,0.2 -19.1,-3.4 -18.7,-17.4 z"
         id="path24"
         inkscape:connector-curvature="0"
         style="fill:#fa004f" /><circle
         class="st7"
         cx="257.29999"
         cy="140.2"
         r="17.200001"
         id="circle26"
         sodipodi:cx="257.29999"
         sodipodi:cy="140.2"
         sodipodi:rx="17.200001"
         sodipodi:ry="17.200001"
         style="fill:#fa004f"
         d="m 274.49999,140.2 c 0,9.4993 -7.7007,17.2 -17.2,17.2 -9.4993,0 -17.2,-7.7007 -17.2,-17.2 0,-9.4993 7.7007,-17.2 17.2,-17.2 9.4993,0 17.2,7.7007 17.2,17.2 z" /></g><g
       id="Text"
       class="st1"
       style="display:inline"><text
         transform="translate(454.3588,324.7874)"
         class="st2 st3 st4 st5"
         id="text29"
         style="font-size:199.3565979px;letter-spacing:9;fill:#ffffff;font-family:Dosis-ExtraBold">IMPACTASAURUS</text>
</g><g
       id="Guides"
       class="st1"
       style="display:inline" /></g><g
     id="Black_normal"
     class="st0"
     style="display:none"
     transform="translate(0,-182.1)"><g
       id="Logo_3_"
       class="st1"
       style="display:inline"><ellipse
         cx="237.7"
         cy="248.8"
         rx="158.89999"
         ry="157.39999"
         id="ellipse34"
         sodipodi:cx="237.7"
         sodipodi:cy="248.8"
         sodipodi:rx="158.89999"
         sodipodi:ry="157.39999"
         d="m 396.59999,248.8 c 0,86.92962 -71.14195,157.4 -158.89999,157.4 -87.75805,0 -158.899997,-70.47038 -158.899997,-157.4 0,-86.92961 71.141947,-157.399991 158.899997,-157.399991 87.75804,0 158.89999,70.470381 158.89999,157.399991 z" /><path
         class="st2"
         d="m 243.4,193.6 c 0,0 -0.8,-16.5 17.5,-17.5 20.3,-1.1 63,19.7 58.6,79.3 -4.3,57.6 -12,66.4 -12,66.4 0,0 2,7.9 4,14.4 0.8,2.7 3.6,12.1 -3.3,13.6 -7.1,1.6 -17.3,-0.1 -25.8,0.4 -4.6,0.3 -6.3,-2.9 -6.7,-6.7 0,0 -2.4,-13.6 -2.6,-13.5 -3.1,1.4 -16.5,3.4 -26,3.1 -10.2,-0.3 -27.4,-2.9 -27.4,-2.9 0,0 0,9.6 0,14 0,2.2 -1.7,5.7 -5.9,5.9 -2.3,0.1 -25.9,0.1 -27.9,0 -4,-0.2 -5.8,-4.2 -5.2,-9 0.6,-4.8 1.2,-6.8 1.2,-6.8 0,0 10.9,-3.2 7.5,-21.1 0,0 -25.2,31.9 -62.8,33.1 0,0 27.2,-20.3 36,-51.7 7.9,-28.1 41.8,-39 58.4,-38.4 16.6,0.6 27.3,5.8 41.1,4 5.6,-0.7 24.2,-3.2 24.6,-24.6 C 287,215 265.6,211 262.1,211 c -5.6,0.2 -19.1,-3.4 -18.7,-17.4 z"
         id="path36"
         inkscape:connector-curvature="0"
         style="fill:#ffffff" /><circle
         class="st2"
         cx="257.29999"
         cy="140.2"
         r="17.200001"
         id="circle38"
         sodipodi:cx="257.29999"
         sodipodi:cy="140.2"
         sodipodi:rx="17.200001"
         sodipodi:ry="17.200001"
         style="fill:#ffffff"
         d="m 274.49999,140.2 c 0,9.4993 -7.7007,17.2 -17.2,17.2 -9.4993,0 -17.2,-7.7007 -17.2,-17.2 0,-9.4993 7.7007,-17.2 17.2,-17.2 9.4993,0 17.2,7.7007 17.2,17.2 z" /></g><g
       id="Text_3_"
       class="st1"
       style="display:inline"><text
         transform="translate(454.3588,324.7874)"
         class="st3 st4 st5"
         id="text41"
         style="font-size:199.3565979px;letter-spacing:9;font-family:Dosis-ExtraBold">IMPACTASAURUS</text>
</g><g
       id="Guides_3_"
       class="st1"
       style="display:inline" /></g><style
     id="style3169"
     type="text/css">
	.st0{display:none;}
	.st1{display:inline;}
	.st2{fill:#FFFFFF;}
	.st3{font-family:'Dosis-ExtraBold';}
	.st4{font-size:199.3566px;}
	.st5{letter-spacing:9;}
	.st6{display:inline;fill:#FA004F;}
	.st7{fill:#FA004F;}
</style><g
     style="display:none"
     id="Black_inverted-6"
     class="st0"
     transform="translate(-61.374958,275.53857)"><rect
       style="display:inline"
       y="0"
       x="0"
       id="Background_1_-3"
       class="st1"
       width="2091.7"
       height="500" /><g
       style="display:inline"
       id="Logo_1_-1"
       class="st1"><ellipse
         d="m 396.59999,248.8 c 0,86.92962 -71.14195,157.4 -158.89999,157.4 -87.75805,0 -158.899997,-70.47038 -158.899997,-157.4 0,-86.92961 71.141947,-157.399991 158.899997,-157.399991 87.75804,0 158.89999,70.470381 158.89999,157.399991 z"
         style="fill:#ffffff"
         sodipodi:ry="157.39999"
         sodipodi:rx="158.89999"
         sodipodi:cy="248.8"
         sodipodi:cx="237.7"
         class="st2"
         cx="237.7"
         cy="248.8"
         rx="158.89999"
         ry="157.39999"
         id="ellipse3174" /><path
         inkscape:connector-curvature="0"
         d="m 243.4,193.6 c 0,0 -0.8,-16.5 17.5,-17.5 20.3,-1.1 63,19.7 58.6,79.3 -4.3,57.6 -12,66.4 -12,66.4 0,0 2,7.9 4,14.4 0.8,2.7 3.6,12.1 -3.3,13.6 -7.1,1.6 -17.3,-0.1 -25.8,0.4 -4.6,0.3 -6.3,-2.9 -6.7,-6.7 0,0 -2.4,-13.6 -2.6,-13.5 -3.1,1.4 -16.5,3.4 -26,3.1 -10.2,-0.3 -27.4,-2.9 -27.4,-2.9 0,0 0,9.6 0,14 0,2.2 -1.7,5.7 -5.9,5.9 -2.3,0.1 -25.9,0.1 -27.9,0 -4,-0.2 -5.8,-4.2 -5.2,-9 0.6,-4.8 1.2,-6.8 1.2,-6.8 0,0 10.9,-3.2 7.5,-21.1 0,0 -25.2,31.9 -62.8,33.1 0,0 27.2,-20.3 36,-51.7 7.9,-28.1 41.8,-39 58.4,-38.4 16.6,0.6 27.3,5.8 41.1,4 5.6,-0.7 24.2,-3.2 24.6,-24.6 C 287,215 265.6,211 262.1,211 c -5.6,0.2 -19.1,-3.4 -18.7,-17.4 z"
         id="path3176" /><circle
         d="m 274.49999,140.2 c 0,9.4993 -7.7007,17.2 -17.2,17.2 -9.4993,0 -17.2,-7.7007 -17.2,-17.2 0,-9.4993 7.7007,-17.2 17.2,-17.2 9.4993,0 17.2,7.7007 17.2,17.2 z"
         sodipodi:ry="17.200001"
         sodipodi:rx="17.200001"
         sodipodi:cy="140.2"
         sodipodi:cx="257.29999"
         cx="257.29999"
         cy="140.2"
         r="17.200001"
         id="circle3178" /></g><g
       style="display:inline"
       id="Text_1_-1"
       class="st1"><text
         style="font-size:199.3565979px;letter-spacing:9;fill:#ffffff;font-family:Dosis-ExtraBold"
         transform="translate(454.3588,324.7874)"
         class="st2 st3 st4 st5"
         id="text3181">IMPACTASAURUS</text>
</g><g
       style="display:inline"
       id="Guides_1_-9"
       class="st1" /></g><g
     style="display:none"
     id="Fuschia_inverted-6"
     class="st0"
     transform="translate(-61.374958,275.53857)"><rect
       style="fill:#fa004f;display:inline"
       x="0"
       id="Background-2"
       y="1"
       class="st6"
       width="2091.7"
       height="500" /><g
       style="display:inline"
       id="Logo-2"
       class="st1"><ellipse
         d="m 396.59999,248.8 c 0,86.92962 -71.14195,157.4 -158.89999,157.4 -87.75805,0 -158.899997,-70.47038 -158.899997,-157.4 0,-86.92961 71.141947,-157.399991 158.899997,-157.399991 87.75804,0 158.89999,70.470381 158.89999,157.399991 z"
         style="fill:#ffffff"
         sodipodi:ry="157.39999"
         sodipodi:rx="158.89999"
         sodipodi:cy="248.8"
         sodipodi:cx="237.7"
         class="st2"
         cx="237.7"
         cy="248.8"
         rx="158.89999"
         ry="157.39999"
         id="ellipse3187" /><path
         style="fill:#fa004f"
         inkscape:connector-curvature="0"
         class="st7"
         d="m 243.4,193.6 c 0,0 -0.8,-16.5 17.5,-17.5 20.3,-1.1 63,19.7 58.6,79.3 -4.3,57.6 -12,66.4 -12,66.4 0,0 2,7.9 4,14.4 0.8,2.7 3.6,12.1 -3.3,13.6 -7.1,1.6 -17.3,-0.1 -25.8,0.4 -4.6,0.3 -6.3,-2.9 -6.7,-6.7 0,0 -2.4,-13.6 -2.6,-13.5 -3.1,1.4 -16.5,3.4 -26,3.1 -10.2,-0.3 -27.4,-2.9 -27.4,-2.9 0,0 0,9.6 0,14 0,2.2 -1.7,5.7 -5.9,5.9 -2.3,0.1 -25.9,0.1 -27.9,0 -4,-0.2 -5.8,-4.2 -5.2,-9 0.6,-4.8 1.2,-6.8 1.2,-6.8 0,0 10.9,-3.2 7.5,-21.1 0,0 -25.2,31.9 -62.8,33.1 0,0 27.2,-20.3 36,-51.7 7.9,-28.1 41.8,-39 58.4,-38.4 16.6,0.6 27.3,5.8 41.1,4 5.6,-0.7 24.2,-3.2 24.6,-24.6 C 287,215 265.6,211 262.1,211 c -5.6,0.2 -19.1,-3.4 -18.7,-17.4 z"
         id="path3189" /><circle
         d="m 274.49999,140.2 c 0,9.4993 -7.7007,17.2 -17.2,17.2 -9.4993,0 -17.2,-7.7007 -17.2,-17.2 0,-9.4993 7.7007,-17.2 17.2,-17.2 9.4993,0 17.2,7.7007 17.2,17.2 z"
         style="fill:#fa004f"
         sodipodi:ry="17.200001"
         sodipodi:rx="17.200001"
         sodipodi:cy="140.2"
         sodipodi:cx="257.29999"
         class="st7"
         cx="257.29999"
         cy="140.2"
         r="17.200001"
         id="circle3191" /></g><g
       style="display:inline"
       id="Text-1"
       class="st1"><text
         style="font-size:199.3565979px;letter-spacing:9;fill:#ffffff;font-family:Dosis-ExtraBold"
         transform="translate(454.3588,324.7874)"
         class="st2 st3 st4 st5"
         id="text3194">IMPACTASAURUS</text>
</g><g
       style="display:inline"
       id="Guides-9"
       class="st1" /></g><g
     style="display:none"
     id="Black_normal-8"
     class="st0"
     transform="translate(-61.374958,275.53857)"><g
       style="display:inline"
       id="Logo_3_-6"
       class="st1"><ellipse
         d="m 396.59999,248.8 c 0,86.92962 -71.14195,157.4 -158.89999,157.4 -87.75805,0 -158.899997,-70.47038 -158.899997,-157.4 0,-86.92961 71.141947,-157.399991 158.899997,-157.399991 87.75804,0 158.89999,70.470381 158.89999,157.399991 z"
         sodipodi:ry="157.39999"
         sodipodi:rx="158.89999"
         sodipodi:cy="248.8"
         sodipodi:cx="237.7"
         cx="237.7"
         cy="248.8"
         rx="158.89999"
         ry="157.39999"
         id="ellipse3199" /><path
         style="fill:#ffffff"
         inkscape:connector-curvature="0"
         class="st2"
         d="m 243.4,193.6 c 0,0 -0.8,-16.5 17.5,-17.5 20.3,-1.1 63,19.7 58.6,79.3 -4.3,57.6 -12,66.4 -12,66.4 0,0 2,7.9 4,14.4 0.8,2.7 3.6,12.1 -3.3,13.6 -7.1,1.6 -17.3,-0.1 -25.8,0.4 -4.6,0.3 -6.3,-2.9 -6.7,-6.7 0,0 -2.4,-13.6 -2.6,-13.5 -3.1,1.4 -16.5,3.4 -26,3.1 -10.2,-0.3 -27.4,-2.9 -27.4,-2.9 0,0 0,9.6 0,14 0,2.2 -1.7,5.7 -5.9,5.9 -2.3,0.1 -25.9,0.1 -27.9,0 -4,-0.2 -5.8,-4.2 -5.2,-9 0.6,-4.8 1.2,-6.8 1.2,-6.8 0,0 10.9,-3.2 7.5,-21.1 0,0 -25.2,31.9 -62.8,33.1 0,0 27.2,-20.3 36,-51.7 7.9,-28.1 41.8,-39 58.4,-38.4 16.6,0.6 27.3,5.8 41.1,4 5.6,-0.7 24.2,-3.2 24.6,-24.6 C 287,215 265.6,211 262.1,211 c -5.6,0.2 -19.1,-3.4 -18.7,-17.4 z"
         id="path3201" /><circle
         d="m 274.49999,140.2 c 0,9.4993 -7.7007,17.2 -17.2,17.2 -9.4993,0 -17.2,-7.7007 -17.2,-17.2 0,-9.4993 7.7007,-17.2 17.2,-17.2 9.4993,0 17.2,7.7007 17.2,17.2 z"
         style="fill:#ffffff"
         sodipodi:ry="17.200001"
         sodipodi:rx="17.200001"
         sodipodi:cy="140.2"
         sodipodi:cx="257.29999"
         class="st2"
         cx="257.29999"
         cy="140.2"
         r="17.200001"
         id="circle3203" /></g><g
       style="display:inline"
       id="Text_3_-6"
       class="st1"><text
         style="font-size:199.3565979px;letter-spacing:9;font-family:Dosis-ExtraBold"
         transform="translate(454.3588,324.7874)"
         class="st3 st4 st5"
         id="text3206">IMPACTASAURUS</text>
</g><g
       style="display:inline"
       id="Guides_3_-0"
       class="st1" /></g><ellipse
     d="m 396.59999,248.8 c 0,86.92962 -71.14195,157.4 -158.89999,157.4 -87.75805,0 -158.899997,-70.47038 -158.899997,-157.4 0,-86.92961 71.141947,-157.399991 158.899997,-157.399991 87.75804,0 158.89999,70.470381 158.89999,157.399991 z"
     style="fill:#fa004f"
     sodipodi:ry="157.39999"
     sodipodi:rx="158.89999"
     sodipodi:cy="248.8"
     sodipodi:cx="237.7"
     class="st7"
     cx="237.7"
     cy="248.8"
     rx="158.89999"
     ry="157.39999"
     id="ellipse3211"
     transform="translate(-77.699997,-88.800003)" /><path
     style="fill:#ffffff"
     inkscape:connector-curvature="0"
     class="st2"
     d="m 165.7,104.8 c 0,0 -0.8,-16.500003 17.5,-17.500003 20.3,-1.1 63,19.700003 58.6,79.300003 -4.3,57.6 -12,66.4 -12,66.4 0,0 2,7.9 4,14.4 0.8,2.7 3.6,12.1 -3.3,13.6 -7.1,1.6 -17.3,-0.1 -25.8,0.4 -4.6,0.3 -6.3,-2.9 -6.7,-6.7 0,0 -2.4,-13.6 -2.6,-13.5 -3.1,1.4 -16.5,3.4 -26,3.1 -10.2,-0.3 -27.4,-2.9 -27.4,-2.9 0,0 0,9.6 0,14 0,2.2 -1.7,5.7 -5.9,5.9 -2.3,0.1 -25.9,0.1 -27.9,0 -4,-0.2 -5.8,-4.2 -5.2,-9 0.6,-4.8 1.2,-6.8 1.2,-6.8 0,0 10.9,-3.2 7.5,-21.1 0,0 -25.199997,31.9 -62.799997,33.1 0,0 27.2,-20.3 36,-51.7 7.9,-28.1 41.799997,-39 58.399997,-38.4 16.6,0.6 27.3,5.8 41.1,4 5.6,-0.7 24.2,-3.2 24.6,-24.6 0.3,-20.6 -21.1,-24.6 -24.6,-24.6 -5.6,0.2 -19.1,-3.4 -18.7,-17.4 z"
     id="path3213" /><circle
     d="m 274.49999,140.2 c 0,9.4993 -7.7007,17.2 -17.2,17.2 -9.4993,0 -17.2,-7.7007 -17.2,-17.2 0,-9.4993 7.7007,-17.2 17.2,-17.2 9.4993,0 17.2,7.7007 17.2,17.2 z"
     style="fill:#ffffff"
     sodipodi:ry="17.200001"
     sodipodi:rx="17.200001"
     sodipodi:cy="140.2"
     sodipodi:cx="257.29999"
     class="st2"
     cx="257.29999"
     cy="140.2"
     r="17.200001"
     id="circle3215"
     transform="translate(-77.699997,-88.800003)" /><g
     id="Guides_2_-7"
     transform="translate(-61.374958,275.53857)" /><path
     style="fill:#935d8c;fill-opacity:1;stroke:#935d8c;stroke-width:0.68222106000000005;stroke-opacity:1"
     d="M 144.28692,316.60545 C 101.30918,312.60819 59.116308,289.06536 33.147808,254.59189 12.805088,227.5867 2.5064794,198.30913 1.5485057,164.75926 0.7512633,136.83848 5.8579591,113.65845 18.128767,89.499073 42.168673,42.168104 88.269638,10.047141 141.01603,3.877064 c 23.20013,-2.7138654 47.91708,-0.2008639 69.71849,7.088362 24.02271,8.031911 43.62329,20.239034 61.87484,38.535285 23.83294,23.891293 37.96536,50.976559 44.00796,84.342729 1.84001,10.16025 2.50731,31.54125 1.32426,42.43083 -9.36889,86.23709 -86.35586,148.45063 -173.65466,140.33118 z m -4.03309,-57.44192 c 1.53395,-1.78459 1.64532,-2.44871 1.64532,-9.81148 l 0,-7.89733 2.89944,0.41321 c 19.16252,2.7309 33.1643,2.98303 44.56014,0.80239 2.97691,-0.56964 5.58935,-1.03576 5.80546,-1.03583 0.21609,-6e-5 0.93951,3.14663 1.60759,6.99265 1.41235,8.13059 2.46577,11.03112 4.37799,12.05451 2.18415,1.16892 27.54618,0.97584 30.43625,-0.2317 4.29159,-1.79314 4.37293,-6.08494 0.37537,-19.8078 l -2.16985,-7.44872 1.38066,-3.1134 c 4.21664,-9.50853 7.19446,-26.0305 9.79608,-54.35207 1.34216,-14.6109 1.42088,-17.42668 0.70571,-25.24218 -0.8722,-9.53151 -2.46054,-16.64729 -5.34221,-23.93306 -6.91735,-17.48929 -20.75692,-30.866154 -38.14939,-36.87395 -4.67199,-1.613821 -6.53823,-1.88525 -12.9622,-1.88525 -6.44254,0 -7.90434,0.213877 -10.33057,1.511468 -5.81802,3.111576 -9.11274,8.927279 -9.11274,16.085472 0,9.45782 6.48384,15.40291 18.42311,16.89231 10.31115,1.2863 18.96384,6.69722 22.63806,14.15661 1.34519,2.731 1.57765,4.25843 1.57765,10.36626 0,6.45218 -0.18827,7.54671 -1.89642,11.02506 -6.03516,12.28954 -19.67756,15.93664 -44.49461,11.89499 -14.73059,-2.39899 -19.81431,-2.73399 -26.73607,-1.76185 -15.46755,2.17237 -31.06551,9.96403 -40.406042,20.18405 -4.625534,5.06107 -7.631203,10.62635 -10.972606,20.31677 -5.776475,16.75243 -13.383553,28.37218 -27.922907,42.65204 l -6.528855,6.41233 4.434437,-0.44598 c 18.229644,-1.83338 37.937387,-12.13924 53.311453,-27.8784 l 4.53264,-4.64029 0.31235,2.90669 c 0.78459,7.30135 -1.99868,15.00507 -6.20751,17.18154 -1.59315,0.82385 -2.033,1.59798 -2.39069,4.20757 -0.88308,6.44278 -0.58577,8.4228 1.59163,10.60021 l 2.02996,2.02996 15.76802,-0.20633 15.76803,-0.20633 1.64532,-1.91414 z M 186.59977,67.073731 c 6.18832,-2.811159 9.83748,-8.594706 9.86208,-15.630396 0.0175,-5.015557 -0.99496,-7.789277 -4.15859,-11.392456 -6.26873,-7.139697 -17.57153,-7.661257 -24.31002,-1.121771 -11.32822,10.993668 -3.94724,29.431403 11.76918,29.399464 2.49193,-0.005 5.16684,-0.495984 6.83735,-1.254841 l 0,0 z"
     id="path3043"
     inkscape:connector-curvature="0" /></svg>