<?xml version="1.0" encoding="UTF-8" standalone="no"?>
<!-- Generator: Adobe Illustrator 20.1.0, SVG Export Plug-In . SVG Version: 6.00 Build 0)  -->

<svg
   xmlns:dc="http://purl.org/dc/elements/1.1/"
   xmlns:cc="http://creativecommons.org/ns#"
   xmlns:rdf="http://www.w3.org/1999/02/22-rdf-syntax-ns#"
   xmlns:svg="http://www.w3.org/2000/svg"
   xmlns="http://www.w3.org/2000/svg"
   xmlns:sodipodi="http://sodipodi.sourceforge.net/DTD/sodipodi-0.dtd"
   xmlns:inkscape="http://www.inkscape.org/namespaces/inkscape"
   version="1.1"
   x="0px"
   y="0px"
   viewBox="0 0 1050 320"
   xml:space="preserve"
   id="svg2"
   inkscape:version="0.48.4 r9939"
   width="100%"
   height="100%"
   sodipodi:docname="logo-inverse-full.svg"
   inkscape:export-filename="/home/dan/go/src/github.com/impactasaurus/landing/static/images/logos/logo-full.png"
   inkscape:export-xdpi="84.342857"
   inkscape:export-ydpi="84.342857"><metadata
     id="metadata60"><rdf:RDF><cc:Work
         rdf:about=""><dc:format>image/svg+xml</dc:format><dc:type
           rdf:resource="http://purl.org/dc/dcmitype/StillImage" /><dc:title></dc:title></cc:Work></rdf:RDF></metadata><defs
     id="defs58" /><sodipodi:namedview
     pagecolor="#ffffff"
     bordercolor="#666666"
     borderopacity="1"
     objecttolerance="10"
     gridtolerance="10"
     guidetolerance="10"
     inkscape:pageopacity="0"
     inkscape:pageshadow="2"
     inkscape:window-width="919"
     inkscape:window-height="803"
     id="namedview56"
     showgrid="false"
     inkscape:zoom="0.51823874"
     inkscape:cx="608.42816"
     inkscape:cy="158.71309"
     inkscape:window-x="356"
     inkscape:window-y="121"
     inkscape:window-maximized="0"
     inkscape:current-layer="svg2" /><style
     type="text/css"
     id="style4">
	.st0{display:none;}
	.st1{display:inline;}
	.st2{fill:#FFFFFF;}
	.st3{font-family:'Dosis-ExtraBold';}
	.st4{font-size:199.3566px;}
	.st5{letter-spacing:9;}
	.st6{display:inline;fill:#FA004F;}
	.st7{fill:#FA004F;}
</style><g
     id="Black_inverted"
     class="st0"
     style="display:none"
     transform="translate(0,-182.1)"><rect
       id="Background_1_"
       class="st1"
       width="2091.7"
       height="500"
       x="0"
       y="0"
       style="display:inline" /><g
       id="Logo_1_"
       class="st1"
       style="display:inline"><ellipse
         class="st2"
         cx="237.7"
         cy="248.8"
         rx="158.89999"
         ry="157.39999"
         id="ellipse9"
         sodipodi:cx="237.7"
         sodipodi:cy="248.8"
         sodipodi:rx="158.89999"
         sodipodi:ry="157.39999"
         style="fill:#ffffff"
         d="m 396.59999,248.8 c 0,86.92962 -71.14195,157.4 -158.89999,157.4 -87.75805,0 -158.899997,-70.47038 -158.899997,-157.4 0,-86.92961 71.141947,-157.399991 158.899997,-157.399991 87.75804,0 158.89999,70.470381 158.89999,157.399991 z" /><path
         d="m 243.4,193.6 c 0,0 -0.8,-16.5 17.5,-17.5 20.3,-1.1 63,19.7 58.6,79.3 -4.3,57.6 -12,66.4 -12,66.4 0,0 2,7.9 4,14.4 0.8,2.7 3.6,12.1 -3.3,13.6 -7.1,1.6 -17.3,-0.1 -25.8,0.4 -4.6,0.3 -6.3,-2.9 -6.7,-6.7 0,0 -2.4,-13.6 -2.6,-13.5 -3.1,1.4 -16.5,3.4 -26,3.1 -10.2,-0.3 -27.4,-2.9 -27.4,-2.9 0,0 0,9.6 0,14 0,2.2 -1.7,5.7 -5.9,5.9 -2.3,0.1 -25.9,0.1 -27.9,0 -4,-0.2 -5.8,-4.2 -5.2,-9 0.6,-4.8 1.2,-6.8 1.2,-6.8 0,0 10.9,-3.2 7.5,-21.1 0,0 -25.2,31.9 -62.8,33.1 0,0 27.2,-20.3 36,-51.7 7.9,-28.1 41.8,-39 58.4,-38.4 16.6,0.6 27.3,5.8 41.1,4 5.6,-0.7 24.2,-3.2 24.6,-24.6 C 287,215 265.6,211 262.1,211 c -5.6,0.2 -19.1,-3.4 -18.7,-17.4 z"
         id="path11"
         inkscape:connector-curvature="0" /><circle
         cx="257.29999"
         cy="140.2"
         r="17.200001"
         id="circle13"
         sodipodi:cx="257.29999"
         sodipodi:cy="140.2"
         sodipodi:rx="17.200001"
         sodipodi:ry="17.200001"
         d="m 274.49999,140.2 c 0,9.4993 -7.7007,17.2 -17.2,17.2 -9.4993,0 -17.2,-7.7007 -17.2,-17.2 0,-9.4993 7.7007,-17.2 17.2,-17.2 9.4993,0 17.2,7.7007 17.2,17.2 z" /></g><g
       id="Text_1_"
       class="st1"
       style="display:inline"><text
         transform="translate(454.3588,324.7874)"
         class="st2 st3 st4 st5"
         id="text16"
         style="font-size:199.3565979px;letter-spacing:9;fill:#ffffff;font-family:Dosis-ExtraBold">IMPACTASAURUS</text>
</g><g
       id="Guides_1_"
       class="st1"
       style="display:inline" /></g><g
     id="Fuschia_inverted"
     class="st0"
     style="display:none"
     transform="translate(0,-182.1)"><rect
       id="Background"
       y="1"
       class="st6"
       width="2091.7"
       height="500"
       x="0"
       style="fill:#fa004f;display:inline" /><g
       id="Logo"
       class="st1"
       style="display:inline"><ellipse
         class="st2"
         cx="237.7"
         cy="248.8"
         rx="158.89999"
         ry="157.39999"
         id="ellipse22"
         sodipodi:cx="237.7"
         sodipodi:cy="248.8"
         sodipodi:rx="158.89999"
         sodipodi:ry="157.39999"
         style="fill:#ffffff"
         d="m 396.59999,248.8 c 0,86.92962 -71.14195,157.4 -158.89999,157.4 -87.75805,0 -158.899997,-70.47038 -158.899997,-157.4 0,-86.92961 71.141947,-157.399991 158.899997,-157.399991 87.75804,0 158.89999,70.470381 158.89999,157.399991 z" /><path
         class="st7"
         d="m 243.4,193.6 c 0,0 -0.8,-16.5 17.5,-17.5 20.3,-1.1 63,19.7 58.6,79.3 -4.3,57.6 -12,66.4 -12,66.4 0,0 2,7.9 4,14.4 0.8,2.7 3.6,12.1 -3.3,13.6 -7.1,1.6 -17.3,-0.1 -25.8,0.4 -4.6,0.3 -6.3,-2.9 -6.7,-6.7 0,0 -2.4,-13.6 -2.6,-13.5 -3.1,1.4 -16.5,3.4 -26,3.1 -10.2,-0.3 -27.4,-2.9 -27.4,-2.9 0,0 0,9.6 0,14 0,2.2 -1.7,5.7 -5.9,5.9 -2.3,0.1 -25.9,0.1 -27.9,0 -4,-0.2 -5.8,-4.2 -5.2,-9 0.6,-4.8 1.2,-6.8 1.2,-6.8 0,0 10.9,-3.2 7.5,-21.1 0,0 -25.2,31.9 -62.8,33.1 0,0 27.2,-20.3 36,-51.7 7.9,-28.1 41.8,-39 58.4,-38.4 16.6,0.6 27.3,5.8 41.1,4 5.6,-0.7 24.2,-3.2 24.6,-24.6 C 287,215 265.6,211 262.1,211 c -5.6,0.2 -19.1,-3.4 -18.7,-17.4 z"
         id="path24"
         inkscape:connector-curvature="0"
         style="fill:#fa004f" /><circle
         class="st7"
         cx="257.29999"
         cy="140.2"
         r="17.200001"
         id="circle26"
         sodipodi:cx="257.29999"
         sodipodi:cy="140.2"
         sodipodi:rx="17.200001"
         sodipodi:ry="17.200001"
         style="fill:#fa004f"
         d="m 274.49999,140.2 c 0,9.4993 -7.7007,17.2 -17.2,17.2 -9.4993,0 -17.2,-7.7007 -17.2,-17.2 0,-9.4993 7.7007,-17.2 17.2,-17.2 9.4993,0 17.2,7.7007 17.2,17.2 z" /></g><g
       id="Text"
       class="st1"
       style="display:inline"><text
         transform="translate(454.3588,324.7874)"
         class="st2 st3 st4 st5"
         id="text29"
         style="font-size:199.3565979px;letter-spacing:9;fill:#ffffff;font-family:Dosis-ExtraBold">IMPACTASAURUS</text>
</g><g
       id="Guides"
       class="st1"
       style="display:inline" /></g><g
     id="Black_normal"
     class="st0"
     style="display:none"
     transform="translate(0,-182.1)"><g
       id="Logo_3_"
       class="st1"
       style="display:inline"><ellipse
         cx="237.7"
         cy="248.8"
         rx="158.89999"
         ry="157.39999"
         id="ellipse34"
         sodipodi:cx="237.7"
         sodipodi:cy="248.8"
         sodipodi:rx="158.89999"
         sodipodi:ry="157.39999"
         d="m 396.59999,248.8 c 0,86.92962 -71.14195,157.4 -158.89999,157.4 -87.75805,0 -158.899997,-70.47038 -158.899997,-157.4 0,-86.92961 71.141947,-157.399991 158.899997,-157.399991 87.75804,0 158.89999,70.470381 158.89999,157.399991 z" /><path
         class="st2"
         d="m 243.4,193.6 c 0,0 -0.8,-16.5 17.5,-17.5 20.3,-1.1 63,19.7 58.6,79.3 -4.3,57.6 -12,66.4 -12,66.4 0,0 2,7.9 4,14.4 0.8,2.7 3.6,12.1 -3.3,13.6 -7.1,1.6 -17.3,-0.1 -25.8,0.4 -4.6,0.3 -6.3,-2.9 -6.7,-6.7 0,0 -2.4,-13.6 -2.6,-13.5 -3.1,1.4 -16.5,3.4 -26,3.1 -10.2,-0.3 -27.4,-2.9 -27.4,-2.9 0,0 0,9.6 0,14 0,2.2 -1.7,5.7 -5.9,5.9 -2.3,0.1 -25.9,0.1 -27.9,0 -4,-0.2 -5.8,-4.2 -5.2,-9 0.6,-4.8 1.2,-6.8 1.2,-6.8 0,0 10.9,-3.2 7.5,-21.1 0,0 -25.2,31.9 -62.8,33.1 0,0 27.2,-20.3 36,-51.7 7.9,-28.1 41.8,-39 58.4,-38.4 16.6,0.6 27.3,5.8 41.1,4 5.6,-0.7 24.2,-3.2 24.6,-24.6 C 287,215 265.6,211 262.1,211 c -5.6,0.2 -19.1,-3.4 -18.7,-17.4 z"
         id="path36"
         inkscape:connector-curvature="0"
         style="fill:#ffffff" /><circle
         class="st2"
         cx="257.29999"
         cy="140.2"
         r="17.200001"
         id="circle38"
         sodipodi:cx="257.29999"
         sodipodi:cy="140.2"
         sodipodi:rx="17.200001"
         sodipodi:ry="17.200001"
         style="fill:#ffffff"
         d="m 274.49999,140.2 c 0,9.4993 -7.7007,17.2 -17.2,17.2 -9.4993,0 -17.2,-7.7007 -17.2,-17.2 0,-9.4993 7.7007,-17.2 17.2,-17.2 9.4993,0 17.2,7.7007 17.2,17.2 z" /></g><g
       id="Text_3_"
       class="st1"
       style="display:inline"><text
         transform="translate(454.3588,324.7874)"
         class="st3 st4 st5"
         id="text41"
         style="font-size:199.3565979px;letter-spacing:9;font-family:Dosis-ExtraBold">IMPACTASAURUS</text>
</g><g
       id="Guides_3_"
       class="st1"
       style="display:inline" /></g><style
     id="style3169"
     type="text/css">
	.st0{display:none;}
	.st1{display:inline;}
	.st2{fill:#FFFFFF;}
	.st3{font-family:'Dosis-ExtraBold';}
	.st4{font-size:199.3566px;}
	.st5{letter-spacing:9;}
	.st6{display:inline;fill:#FA004F;}
	.st7{fill:#FA004F;}
</style><g
     style="display:none"
     id="Black_inverted-6"
     class="st0"
     transform="translate(-61.374958,275.53857)"><rect
       style="display:inline"
       y="0"
       x="0"
       id="Background_1_-3"
       class="st1"
       width="2091.7"
       height="500" /><g
       style="display:inline"
       id="Logo_1_-1"
       class="st1"><ellipse
         d="m 396.59999,248.8 c 0,86.92962 -71.14195,157.4 -158.89999,157.4 -87.75805,0 -158.899997,-70.47038 -158.899997,-157.4 0,-86.92961 71.141947,-157.399991 158.899997,-157.399991 87.75804,0 158.89999,70.470381 158.89999,157.399991 z"
         style="fill:#ffffff"
         sodipodi:ry="157.39999"
         sodipodi:rx="158.89999"
         sodipodi:cy="248.8"
         sodipodi:cx="237.7"
         class="st2"
         cx="237.7"
         cy="248.8"
         rx="158.89999"
         ry="157.39999"
         id="ellipse3174" /><path
         inkscape:connector-curvature="0"
         d="m 243.4,193.6 c 0,0 -0.8,-16.5 17.5,-17.5 20.3,-1.1 63,19.7 58.6,79.3 -4.3,57.6 -12,66.4 -12,66.4 0,0 2,7.9 4,14.4 0.8,2.7 3.6,12.1 -3.3,13.6 -7.1,1.6 -17.3,-0.1 -25.8,0.4 -4.6,0.3 -6.3,-2.9 -6.7,-6.7 0,0 -2.4,-13.6 -2.6,-13.5 -3.1,1.4 -16.5,3.4 -26,3.1 -10.2,-0.3 -27.4,-2.9 -27.4,-2.9 0,0 0,9.6 0,14 0,2.2 -1.7,5.7 -5.9,5.9 -2.3,0.1 -25.9,0.1 -27.9,0 -4,-0.2 -5.8,-4.2 -5.2,-9 0.6,-4.8 1.2,-6.8 1.2,-6.8 0,0 10.9,-3.2 7.5,-21.1 0,0 -25.2,31.9 -62.8,33.1 0,0 27.2,-20.3 36,-51.7 7.9,-28.1 41.8,-39 58.4,-38.4 16.6,0.6 27.3,5.8 41.1,4 5.6,-0.7 24.2,-3.2 24.6,-24.6 C 287,215 265.6,211 262.1,211 c -5.6,0.2 -19.1,-3.4 -18.7,-17.4 z"
         id="path3176" /><circle
         d="m 274.49999,140.2 c 0,9.4993 -7.7007,17.2 -17.2,17.2 -9.4993,0 -17.2,-7.7007 -17.2,-17.2 0,-9.4993 7.7007,-17.2 17.2,-17.2 9.4993,0 17.2,7.7007 17.2,17.2 z"
         sodipodi:ry="17.200001"
         sodipodi:rx="17.200001"
         sodipodi:cy="140.2"
         sodipodi:cx="257.29999"
         cx="257.29999"
         cy="140.2"
         r="17.200001"
         id="circle3178" /></g><g
       style="display:inline"
       id="Text_1_-1"
       class="st1"><text
         style="font-size:199.3565979px;letter-spacing:9;fill:#ffffff;font-family:Dosis-ExtraBold"
         transform="translate(454.3588,324.7874)"
         class="st2 st3 st4 st5"
         id="text3181">IMPACTASAURUS</text>
</g><g
       style="display:inline"
       id="Guides_1_-9"
       class="st1" /></g><g
     style="display:none"
     id="Fuschia_inverted-6"
     class="st0"
     transform="translate(-61.374958,275.53857)"><rect
       style="fill:#fa004f;display:inline"
       x="0"
       id="Background-2"
       y="1"
       class="st6"
       width="2091.7"
       height="500" /><g
       style="display:inline"
       id="Logo-2"
       class="st1"><ellipse
         d="m 396.59999,248.8 c 0,86.92962 -71.14195,157.4 -158.89999,157.4 -87.75805,0 -158.899997,-70.47038 -158.899997,-157.4 0,-86.92961 71.141947,-157.399991 158.899997,-157.399991 87.75804,0 158.89999,70.470381 158.89999,157.399991 z"
         style="fill:#ffffff"
         sodipodi:ry="157.39999"
         sodipodi:rx="158.89999"
         sodipodi:cy="248.8"
         sodipodi:cx="237.7"
         class="st2"
         cx="237.7"
         cy="248.8"
         rx="158.89999"
         ry="157.39999"
         id="ellipse3187" /><path
         style="fill:#fa004f"
         inkscape:connector-curvature="0"
         class="st7"
         d="m 243.4,193.6 c 0,0 -0.8,-16.5 17.5,-17.5 20.3,-1.1 63,19.7 58.6,79.3 -4.3,57.6 -12,66.4 -12,66.4 0,0 2,7.9 4,14.4 0.8,2.7 3.6,12.1 -3.3,13.6 -7.1,1.6 -17.3,-0.1 -25.8,0.4 -4.6,0.3 -6.3,-2.9 -6.7,-6.7 0,0 -2.4,-13.6 -2.6,-13.5 -3.1,1.4 -16.5,3.4 -26,3.1 -10.2,-0.3 -27.4,-2.9 -27.4,-2.9 0,0 0,9.6 0,14 0,2.2 -1.7,5.7 -5.9,5.9 -2.3,0.1 -25.9,0.1 -27.9,0 -4,-0.2 -5.8,-4.2 -5.2,-9 0.6,-4.8 1.2,-6.8 1.2,-6.8 0,0 10.9,-3.2 7.5,-21.1 0,0 -25.2,31.9 -62.8,33.1 0,0 27.2,-20.3 36,-51.7 7.9,-28.1 41.8,-39 58.4,-38.4 16.6,0.6 27.3,5.8 41.1,4 5.6,-0.7 24.2,-3.2 24.6,-24.6 C 287,215 265.6,211 262.1,211 c -5.6,0.2 -19.1,-3.4 -18.7,-17.4 z"
         id="path3189" /><circle
         d="m 274.49999,140.2 c 0,9.4993 -7.7007,17.2 -17.2,17.2 -9.4993,0 -17.2,-7.7007 -17.2,-17.2 0,-9.4993 7.7007,-17.2 17.2,-17.2 9.4993,0 17.2,7.7007 17.2,17.2 z"
         style="fill:#fa004f"
         sodipodi:ry="17.200001"
         sodipodi:rx="17.200001"
         sodipodi:cy="140.2"
         sodipodi:cx="257.29999"
         class="st7"
         cx="257.29999"
         cy="140.2"
         r="17.200001"
         id="circle3191" /></g><g
       style="display:inline"
       id="Text-1"
       class="st1"><text
         style="font-size:199.3565979px;letter-spacing:9;fill:#ffffff;font-family:Dosis-ExtraBold"
         transform="translate(454.3588,324.7874)"
         class="st2 st3 st4 st5"
         id="text3194">IMPACTASAURUS</text>
</g><g
       style="display:inline"
       id="Guides-9"
       class="st1" /></g><g
     style="display:none"
     id="Black_normal-8"
     class="st0"
     transform="translate(-61.374958,275.53857)"><g
       style="display:inline"
       id="Logo_3_-6"
       class="st1"><ellipse
         d="m 396.59999,248.8 c 0,86.92962 -71.14195,157.4 -158.89999,157.4 -87.75805,0 -158.899997,-70.47038 -158.899997,-157.4 0,-86.92961 71.141947,-157.399991 158.899997,-157.399991 87.75804,0 158.89999,70.470381 158.89999,157.399991 z"
         sodipodi:ry="157.39999"
         sodipodi:rx="158.89999"
         sodipodi:cy="248.8"
         sodipodi:cx="237.7"
         cx="237.7"
         cy="248.8"
         rx="158.89999"
         ry="157.39999"
         id="ellipse3199" /><path
         style="fill:#ffffff"
         inkscape:connector-curvature="0"
         class="st2"
         d="m 243.4,193.6 c 0,0 -0.8,-16.5 17.5,-17.5 20.3,-1.1 63,19.7 58.6,79.3 -4.3,57.6 -12,66.4 -12,66.4 0,0 2,7.9 4,14.4 0.8,2.7 3.6,12.1 -3.3,13.6 -7.1,1.6 -17.3,-0.1 -25.8,0.4 -4.6,0.3 -6.3,-2.9 -6.7,-6.7 0,0 -2.4,-13.6 -2.6,-13.5 -3.1,1.4 -16.5,3.4 -26,3.1 -10.2,-0.3 -27.4,-2.9 -27.4,-2.9 0,0 0,9.6 0,14 0,2.2 -1.7,5.7 -5.9,5.9 -2.3,0.1 -25.9,0.1 -27.9,0 -4,-0.2 -5.8,-4.2 -5.2,-9 0.6,-4.8 1.2,-6.8 1.2,-6.8 0,0 10.9,-3.2 7.5,-21.1 0,0 -25.2,31.9 -62.8,33.1 0,0 27.2,-20.3 36,-51.7 7.9,-28.1 41.8,-39 58.4,-38.4 16.6,0.6 27.3,5.8 41.1,4 5.6,-0.7 24.2,-3.2 24.6,-24.6 C 287,215 265.6,211 262.1,211 c -5.6,0.2 -19.1,-3.4 -18.7,-17.4 z"
         id="path3201" /><circle
         d="m 274.49999,140.2 c 0,9.4993 -7.7007,17.2 -17.2,17.2 -9.4993,0 -17.2,-7.7007 -17.2,-17.2 0,-9.4993 7.7007,-17.2 17.2,-17.2 9.4993,0 17.2,7.7007 17.2,17.2 z"
         style="fill:#ffffff"
         sodipodi:ry="17.200001"
         sodipodi:rx="17.200001"
         sodipodi:cy="140.2"
         sodipodi:cx="257.29999"
         class="st2"
         cx="257.29999"
         cy="140.2"
         r="17.200001"
         id="circle3203" /></g><g
       style="display:inline"
       id="Text_3_-6"
       class="st1"><text
         style="font-size:199.3565979px;letter-spacing:9;font-family:Dosis-ExtraBold"
         transform="translate(454.3588,324.7874)"
         class="st3 st4 st5"
         id="text3206">IMPACTASAURUS</text>
</g><g
       style="display:inline"
       id="Guides_3_-0"
       class="st1" /></g><g
     id="Guides_2_-7"
     transform="translate(-61.374958,275.53857)" /><g
     style="font-size:40px;font-style:normal;font-variant:normal;font-weight:bold;font-stretch:normal;line-height:125%;letter-spacing:0px;word-spacing:0px;fill:#ffffff;fill-opacity:1;stroke:none;font-family:Nunito;-inkscape-font-specification:Sans Bold"
     id="text3040"><path
       d="m 391.65613,186.85 c -1.93335,0 -3.50001,-0.6 -4.7,-1.8 -1.13334,-1.2 -1.70001,-2.76666 -1.7,-4.7 l 0,-58.7 c -10e-6,-1.93327 0.56666,-3.4666 1.7,-4.6 1.19999,-1.19993 2.76665,-1.79993 4.7,-1.8 1.99998,7e-5 3.56665,0.60007 4.7,1.8 1.19998,1.1334 1.79998,2.66673 1.8,4.6 l 0,58.7 c -2e-5,1.93334 -0.60002,3.5 -1.8,4.7 -1.13335,1.2 -2.70002,1.8 -4.7,1.8"
       style="font-size:100px;fill:#ffffff"
       id="path4310" /><path
       d="m 470.38113,136.15 c 5.33326,5e-5 9.39992,1.60005 12.2,4.8 2.86658,3.13338 4.29992,8.23337 4.3,15.3 l 0,24.6 c -8e-5,1.93334 -0.60008,3.43334 -1.8,4.5 -1.13341,1 -2.63341,1.5 -4.5,1.5 -1.80008,0 -3.30007,-0.5 -4.5,-1.5 -1.1334,-1.06666 -1.70007,-2.56666 -1.7,-4.5 l 0,-24.6 c -7e-5,-3.66663 -0.66674,-6.26663 -2,-7.8 -1.26673,-1.59996 -3.2334,-2.39996 -5.9,-2.4 -3.26673,4e-5 -5.86672,1.13337 -7.8,3.4 -1.93339,2.20003 -2.90005,5.23336 -2.9,9.1 l 0,22.3 c -5e-5,1.93334 -0.60005,3.43334 -1.8,4.5 -1.13338,1 -2.60005,1.5 -4.4,1.5 -1.80004,0 -3.30004,-0.5 -4.5,-1.5 -1.20004,-1.06666 -1.80004,-2.56666 -1.8,-4.5 l 0,-24.6 c -4e-5,-3.66663 -0.66671,-6.26663 -2,-7.8 -1.2667,-1.59996 -3.23337,-2.39996 -5.9,-2.4 -3.2667,4e-5 -5.86669,1.13337 -7.8,3.4 -1.86669,2.20003 -2.80002,5.23336 -2.8,9.1 l 0,22.3 c -2e-5,1.93334 -0.60002,3.43334 -1.8,4.5 -1.20002,1 -2.70002,1.5 -4.5,1.5 -1.80001,0 -3.30001,-0.5 -4.5,-1.5 -1.13334,-1.06666 -1.70001,-2.56666 -1.7,-4.5 l 0,-38.7 c -1e-5,-1.86662 0.59999,-3.29995 1.8,-4.3 1.19999,-0.99995 2.69999,-1.49995 4.5,-1.5 1.73332,5e-5 3.13332,0.50005 4.2,1.5 1.13331,0.93338 1.69998,2.30005 1.7,4.1 l 0,2.4 c 1.53331,-2.66662 3.56664,-4.69995 6.1,-6.1 2.59997,-1.39995 5.56663,-2.09995 8.9,-2.1 7.33329,5e-5 12.23329,3.06671 14.7,9.2 1.46661,-2.79996 3.63328,-5.03329 6.5,-6.7 2.86661,-1.66662 6.09994,-2.49995 9.7,-2.5"
       style="font-size:100px;fill:#ffffff"
       id="path4312" /><path
       d="m 527.68582,136.15 c 4.19996,5e-5 7.93329,1.06672 11.2,3.2 3.33328,2.13338 5.89994,5.16671 7.7,9.1 1.86661,3.8667 2.79994,8.33336 2.8,13.4 -6e-5,5.06669 -0.93339,9.50001 -2.8,13.3 -1.80006,3.80001 -4.33339,6.73334 -7.6,8.8 -3.26671,2.06667 -7.03338,3.1 -11.3,3.1 -3.4667,0 -6.5667,-0.73333 -9.3,-2.2 -2.73336,-1.46666 -4.83336,-3.5 -6.3,-6.1 l 0,20.4 c -2e-5,1.73332 -0.56669,3.09998 -1.7,4.1 -1.13335,0.99998 -2.63335,1.49998 -4.5,1.5 -1.86668,-2e-5 -3.40001,-0.53335 -4.6,-1.6 -1.13334,-1.06668 -1.70001,-2.46668 -1.7,-4.2 l 0,-56.7 c -1e-5,-1.79995 0.53332,-3.23329 1.6,-4.3 1.13332,-1.06662 2.63332,-1.59995 4.5,-1.6 1.86665,5e-5 3.36665,0.53338 4.5,1.6 1.13331,1.06671 1.69998,2.50005 1.7,4.3 l 0,2.5 c 1.46664,-2.73329 3.56664,-4.83329 6.3,-6.3 2.79997,-1.53328 5.96663,-2.29995 9.5,-2.3 m -3.3,41.2 c 3.93329,1e-5 6.99996,-1.33332 9.2,-4 2.19995,-2.73332 3.29995,-6.56665 3.3,-11.5 -5e-5,-5.06664 -1.10005,-8.99997 -3.3,-11.8 -2.20004,-2.79996 -5.26671,-4.19996 -9.2,-4.2 -4.00003,4e-5 -7.10003,1.36671 -9.3,4.1 -2.13336,2.73337 -3.20002,6.63336 -3.2,11.7 -2e-5,5.00002 1.06664,8.86668 3.2,11.6 2.19997,2.73334 5.29997,4.10001 9.3,4.1"
       style="font-size:100px;fill:#ffffff"
       id="path4314" /><path
       d="m 580.94207,136.15 c 6.79996,5e-5 11.83329,1.70005 15.1,5.1 3.33328,3.33337 4.99995,8.43337 5,15.3 l 0,24.4 c -5e-5,1.8 -0.53339,3.23334 -1.6,4.3 -1.06672,1 -2.53338,1.5 -4.4,1.5 -1.73338,0 -3.16671,-0.53333 -4.3,-1.6 -1.06671,-1.06666 -1.60004,-2.46666 -1.6,-4.2 l 0,-2.2 c -1.13337,2.6 -2.93337,4.63334 -5.4,6.1 -2.40003,1.46667 -5.20003,2.2 -8.4,2.2 -3.26669,0 -6.23335,-0.66667 -8.9,-2 -2.66668,-1.33333 -4.76668,-3.16666 -6.3,-5.5 -1.53334,-2.33332 -2.30001,-4.93332 -2.3,-7.8 -1e-5,-3.59998 0.89999,-6.43331 2.7,-8.5 1.86665,-2.06664 4.86665,-3.56664 9,-4.5 4.13331,-0.9333 9.8333,-1.39997 17.1,-1.4 l 2.5,0 0,-2.3 c -4e-5,-3.26663 -0.70004,-5.6333 -2.1,-7.1 -1.40004,-1.53329 -3.6667,-2.29996 -6.8,-2.3 -1.93336,4e-5 -3.90003,0.30004 -5.9,0.9 -2.00002,0.53337 -4.36669,1.33337 -7.1,2.4 -1.73335,0.8667 -3.00002,1.30004 -3.8,1.3 -1.20001,4e-5 -2.20001,-0.4333 -3,-1.3 -0.73334,-0.86663 -1.10001,-1.99996 -1.1,-3.4 -1e-5,-1.13329 0.26666,-2.09996 0.8,-2.9 0.59999,-0.86662 1.56665,-1.66662 2.9,-2.4 2.33332,-1.26662 5.09998,-2.26662 8.3,-3 3.26664,-0.73328 6.46664,-1.09995 9.6,-1.1 m -3.1,41.9 c 3.3333,10e-6 6.0333,-1.09999 8.1,-3.3 2.13329,-2.26665 3.19996,-5.16665 3.2,-8.7 l 0,-2.1 -1.8,0 c -4.4667,2e-5 -7.93336,0.20002 -10.4,0.6 -2.46669,0.40002 -4.23336,1.10002 -5.3,2.1 -1.06669,1.00002 -1.60002,2.36668 -1.6,4.1 -2e-5,2.13335 0.73331,3.90001 2.2,5.3 1.53331,1.33334 3.39997,2.00001 5.6,2"
       style="font-size:100px;fill:#ffffff"
       id="path4316" /><path
       d="m 635.34832,187.05 c -4.86669,0 -9.16669,-1.03333 -12.9,-3.1 -3.66668,-2.06666 -6.50001,-4.99999 -8.5,-8.8 -2.00001,-3.79999 -3.00001,-8.23331 -3,-13.3 -10e-6,-5.06664 1.03332,-9.5333 3.1,-13.4 2.13332,-3.93329 5.09998,-6.96662 8.9,-9.1 3.79998,-2.13328 8.16664,-3.19995 13.1,-3.2 2.59996,5e-5 5.19996,0.36672 7.8,1.1 2.66662,0.73338 4.99995,1.73338 7,3 2.13328,1.40004 3.19995,3.16671 3.2,5.3 -5e-5,1.46671 -0.36672,2.6667 -1.1,3.6 -0.66672,0.8667 -1.56672,1.30004 -2.7,1.3 -0.73338,4e-5 -1.50005,-0.16663 -2.3,-0.5 -0.80004,-0.3333 -1.60004,-0.7333 -2.4,-1.2 -1.46671,-0.86663 -2.86671,-1.53329 -4.2,-2 -1.33337,-0.53329 -2.8667,-0.79996 -4.6,-0.8 -4.13336,4e-5 -7.33336,1.36671 -9.6,4.1 -2.20002,2.6667 -3.30002,6.53336 -3.3,11.6 -2e-5,5.00002 1.09998,8.86668 3.3,11.6 2.26664,2.66668 5.46664,4.00001 9.6,4 1.66663,1e-5 3.1333,-0.23332 4.4,-0.7 1.33329,-0.53332 2.79996,-1.23332 4.4,-2.1 0.99996,-0.59999 1.86662,-1.03332 2.6,-1.3 0.73329,-0.33332 1.46662,-0.49999 2.2,-0.5 1.06662,1e-5 1.96662,0.46668 2.7,1.4 0.73328,0.93334 1.09995,2.10001 1.1,3.5 -5e-5,1.13334 -0.26672,2.13334 -0.8,3 -0.46672,0.8 -1.26672,1.53334 -2.4,2.2 -2.06671,1.33334 -4.46671,2.4 -7.2,3.2 -2.73337,0.73333 -5.53337,1.1 -8.4,1.1"
       style="font-size:100px;fill:#ffffff"
       id="path4318" /><path
       d="m 688.26707,177.55 c 3.33329,0.20001 4.99996,1.70001 5,4.5 -4e-5,1.6 -0.66671,2.83333 -2,3.7 -1.2667,0.8 -3.10004,1.13333 -5.5,1 l -2.7,-0.2 c -11.20002,-0.8 -16.80001,-6.79999 -16.8,-18 l 0,-21.8 -5,0 c -1.80001,4e-5 -3.20001,-0.39996 -4.2,-1.2 -0.93334,-0.79996 -1.4,-1.96662 -1.4,-3.5 0,-1.53329 0.46666,-2.69995 1.4,-3.5 0.99999,-0.79995 2.39999,-1.19995 4.2,-1.2 l 5,0 0,-9.2 c -10e-6,-1.79994 0.56665,-3.23327 1.7,-4.3 1.13332,-1.0666 2.66665,-1.59994 4.6,-1.6 1.86664,6e-5 3.36664,0.5334 4.5,1.6 1.13331,1.06673 1.69997,2.50006 1.7,4.3 l 0,9.2 8.5,0 c 1.79996,5e-5 3.16663,0.40005 4.1,1.2 0.99996,0.80005 1.49996,1.96671 1.5,3.5 -4e-5,1.53338 -0.50004,2.70004 -1.5,3.5 -0.93337,0.80004 -2.30004,1.20004 -4.1,1.2 l -8.5,0 0,22.7 c -3e-5,4.93335 2.26664,7.56668 6.8,7.9 l 2.7,0.2"
       style="font-size:100px;fill:#ffffff"
       id="path4320" /><path
       d="m 720.98113,136.15 c 6.79996,5e-5 11.83329,1.70005 15.1,5.1 3.33329,3.33337 4.99995,8.43337 5,15.3 l 0,24.4 c -5e-5,1.8 -0.53338,3.23334 -1.6,4.3 -1.06671,1 -2.53338,1.5 -4.4,1.5 -1.73338,0 -3.16671,-0.53333 -4.3,-1.6 -1.06671,-1.06666 -1.60004,-2.46666 -1.6,-4.2 l 0,-2.2 c -1.13337,2.6 -2.93337,4.63334 -5.4,6.1 -2.40003,1.46667 -5.20003,2.2 -8.4,2.2 -3.26669,0 -6.23335,-0.66667 -8.9,-2 -2.66668,-1.33333 -4.76668,-3.16666 -6.3,-5.5 -1.53334,-2.33332 -2.30001,-4.93332 -2.3,-7.8 -10e-6,-3.59998 0.89999,-6.43331 2.7,-8.5 1.86666,-2.06664 4.86665,-3.56664 9,-4.5 4.13331,-0.9333 9.83331,-1.39997 17.1,-1.4 l 2.5,0 0,-2.3 c -4e-5,-3.26663 -0.70004,-5.6333 -2.1,-7.1 -1.40003,-1.53329 -3.6667,-2.29996 -6.8,-2.3 -1.93336,4e-5 -3.90003,0.30004 -5.9,0.9 -2.00002,0.53337 -4.36669,1.33337 -7.1,2.4 -1.73335,0.8667 -3.00001,1.30004 -3.8,1.3 -1.20001,4e-5 -2.20001,-0.4333 -3,-1.3 -0.73334,-0.86663 -1.10001,-1.99996 -1.1,-3.4 -10e-6,-1.13329 0.26666,-2.09996 0.8,-2.9 0.59999,-0.86662 1.56666,-1.66662 2.9,-2.4 2.33332,-1.26662 5.09998,-2.26662 8.3,-3 3.26664,-0.73328 6.46664,-1.09995 9.6,-1.1 m -3.1,41.9 c 3.3333,10e-6 6.0333,-1.09999 8.1,-3.3 2.1333,-2.26665 3.19996,-5.16665 3.2,-8.7 l 0,-2.1 -1.8,0 c -4.4667,2e-5 -7.93336,0.20002 -10.4,0.6 -2.46669,0.40002 -4.23335,1.10002 -5.3,2.1 -1.06669,1.00002 -1.60002,2.36668 -1.6,4.1 -2e-5,2.13335 0.73331,3.90001 2.2,5.3 1.53331,1.33334 3.39998,2.00001 5.6,2"
       style="font-size:100px;fill:#ffffff"
       id="path4322" /><path
       d="m 771.38738,187.05 c -7.26669,0 -13.13335,-1.43333 -17.6,-4.3 -2.13334,-1.26666 -3.20001,-3.06666 -3.2,-5.4 -1e-5,-1.33332 0.36666,-2.39999 1.1,-3.2 0.73333,-0.86665 1.63333,-1.29999 2.7,-1.3 1.13332,1e-5 2.69999,0.53335 4.7,1.6 2.13332,1.00001 4.06665,1.76668 5.8,2.3 1.79998,0.53334 4.06664,0.80001 6.8,0.8 2.79997,10e-6 4.96664,-0.46666 6.5,-1.4 1.59997,-0.93332 2.39996,-2.23332 2.4,-3.9 -4e-5,-1.13332 -0.33337,-2.03332 -1,-2.7 -0.60003,-0.66665 -1.73337,-1.26665 -3.4,-1.8 -1.60003,-0.59998 -4.06669,-1.26665 -7.4,-2 -5.93335,-1.19998 -10.20001,-2.89998 -12.8,-5.1 -2.53334,-2.19997 -3.80001,-5.2333 -3.8,-9.1 -10e-6,-2.9333 0.86666,-5.56663 2.6,-7.9 1.73332,-2.39996 4.09999,-4.23329 7.1,-5.5 3.06665,-1.33328 6.53331,-1.99995 10.4,-2 2.79997,5e-5 5.49997,0.36672 8.1,1.1 2.59996,0.66671 4.93329,1.66671 7,3 2.13329,1.33338 3.19995,3.10004 3.2,5.3 -5e-5,1.33337 -0.36671,2.4667 -1.1,3.4 -0.73338,0.8667 -1.63338,1.30004 -2.7,1.3 -0.73337,4e-5 -1.46671,-0.1333 -2.2,-0.4 -0.66671,-0.3333 -1.53337,-0.79996 -2.6,-1.4 -1.93337,-0.99996 -3.60003,-1.73329 -5,-2.2 -1.40003,-0.53329 -3.13336,-0.79996 -5.2,-0.8 -2.46669,4e-5 -4.43336,0.50004 -5.9,1.5 -1.40002,1.00004 -2.10002,2.3667 -2.1,4.1 -2e-5,1.6667 0.73331,2.93337 2.2,3.8 1.46664,0.8667 4.29997,1.73336 8.5,2.6 4.46663,0.93336 7.96663,2.00003 10.5,3.2 2.53329,1.20002 4.33329,2.70002 5.4,4.5 1.13329,1.80002 1.69995,4.10002 1.7,6.9 -5e-5,4.53334 -1.90005,8.16667 -5.7,10.9 -3.73337,2.73333 -8.73337,4.1 -15,4.1"
       style="font-size:100px;fill:#ffffff"
       id="path4324" /><path
       d="m 823.32488,136.15 c 6.79996,5e-5 11.83329,1.70005 15.1,5.1 3.33329,3.33337 4.99995,8.43337 5,15.3 l 0,24.4 c -5e-5,1.8 -0.53338,3.23334 -1.6,4.3 -1.06671,1 -2.53338,1.5 -4.4,1.5 -1.73338,0 -3.16671,-0.53333 -4.3,-1.6 -1.06671,-1.06666 -1.60004,-2.46666 -1.6,-4.2 l 0,-2.2 c -1.13337,2.6 -2.93337,4.63334 -5.4,6.1 -2.40003,1.46667 -5.20003,2.2 -8.4,2.2 -3.26669,0 -6.23335,-0.66667 -8.9,-2 -2.66668,-1.33333 -4.76668,-3.16666 -6.3,-5.5 -1.53334,-2.33332 -2.30001,-4.93332 -2.3,-7.8 -10e-6,-3.59998 0.89999,-6.43331 2.7,-8.5 1.86666,-2.06664 4.86665,-3.56664 9,-4.5 4.13331,-0.9333 9.83331,-1.39997 17.1,-1.4 l 2.5,0 0,-2.3 c -4e-5,-3.26663 -0.70004,-5.6333 -2.1,-7.1 -1.40003,-1.53329 -3.6667,-2.29996 -6.8,-2.3 -1.93336,4e-5 -3.90003,0.30004 -5.9,0.9 -2.00002,0.53337 -4.36669,1.33337 -7.1,2.4 -1.73335,0.8667 -3.00001,1.30004 -3.8,1.3 -1.20001,4e-5 -2.20001,-0.4333 -3,-1.3 -0.73334,-0.86663 -1.10001,-1.99996 -1.1,-3.4 -10e-6,-1.13329 0.26666,-2.09996 0.8,-2.9 0.59999,-0.86662 1.56666,-1.66662 2.9,-2.4 2.33332,-1.26662 5.09998,-2.26662 8.3,-3 3.26664,-0.73328 6.46664,-1.09995 9.6,-1.1 m -3.1,41.9 c 3.3333,10e-6 6.0333,-1.09999 8.1,-3.3 2.1333,-2.26665 3.19996,-5.16665 3.2,-8.7 l 0,-2.1 -1.8,0 c -4.4667,2e-5 -7.93336,0.20002 -10.4,0.6 -2.46669,0.40002 -4.23335,1.10002 -5.3,2.1 -1.06669,1.00002 -1.60002,2.36668 -1.6,4.1 -2e-5,2.13335 0.73331,3.90001 2.2,5.3 1.53331,1.33334 3.39998,2.00001 5.6,2"
       style="font-size:100px;fill:#ffffff"
       id="path4326" /><path
       d="m 894.63113,136.35 c 1.93328,5e-5 3.46662,0.53338 4.6,1.6 1.13328,1.06671 1.69995,2.50005 1.7,4.3 l 0,38.8 c -5e-5,1.73334 -0.60005,3.13334 -1.8,4.2 -1.13338,1.06667 -2.63338,1.6 -4.5,1.6 -1.80005,0 -3.23338,-0.5 -4.3,-1.5 -1.06671,-1 -1.60004,-2.36666 -1.6,-4.1 l 0,-2.5 c -1.53337,2.66667 -3.60004,4.73334 -6.2,6.2 -2.60003,1.4 -5.53336,2.1 -8.8,2.1 -12.00001,0 -18.00001,-6.73333 -18,-20.2 l 0,-24.6 c -10e-6,-1.79995 0.56666,-3.23329 1.7,-4.3 1.13332,-1.06662 2.63332,-1.59995 4.5,-1.6 1.93332,5e-5 3.46665,0.53338 4.6,1.6 1.13331,1.06671 1.69998,2.50005 1.7,4.3 l 0,24.7 c -2e-5,3.46668 0.69998,6.03335 2.1,7.7 1.39998,1.66668 3.59997,2.50001 6.6,2.5 3.46663,1e-5 6.2333,-1.13332 8.3,-3.4 2.13329,-2.33332 3.19996,-5.39998 3.2,-9.2 l 0,-22.3 c -4e-5,-1.79995 0.56663,-3.23329 1.7,-4.3 1.13329,-1.06662 2.63329,-1.59995 4.5,-1.6"
       style="font-size:100px;fill:#ffffff"
       id="path4328" /><path
       d="m 941.14363,136.35 c 1.7333,-0.13328 3.09996,0.23338 4.1,1.1 0.99996,0.86671 1.49996,2.16671 1.5,3.9 -4e-5,1.80004 -0.43337,3.13338 -1.3,4 -0.86671,0.86671 -2.43337,1.43337 -4.7,1.7 l -3,0.3 c -3.93336,0.40004 -6.83336,1.73337 -8.7,4 -1.80002,2.2667 -2.70002,5.10003 -2.7,8.5 l 0,21 c -2e-5,1.93334 -0.60002,3.43334 -1.8,4.5 -1.20002,1 -2.70002,1.5 -4.5,1.5 -1.80001,0 -3.30001,-0.5 -4.5,-1.5 -1.13334,-1.06666 -1.70001,-2.56666 -1.7,-4.5 l 0,-38.7 c -10e-6,-1.86662 0.56666,-3.29995 1.7,-4.3 1.19999,-0.99995 2.66665,-1.49995 4.4,-1.5 1.73332,5e-5 3.13332,0.50005 4.2,1.5 1.06665,0.93338 1.59998,2.30005 1.6,4.1 l 0,4 c 1.26664,-2.93329 3.13331,-5.19995 5.6,-6.8 2.5333,-1.59995 5.3333,-2.49995 8.4,-2.7 l 1.4,-0.1"
       style="font-size:100px;fill:#ffffff"
       id="path4330" /><path
       d="m 990.72488,136.35 c 1.93328,5e-5 3.46662,0.53338 4.6,1.6 1.13328,1.06671 1.69995,2.50005 1.7,4.3 l 0,38.8 c -5e-5,1.73334 -0.60005,3.13334 -1.8,4.2 -1.13338,1.06667 -2.63338,1.6 -4.5,1.6 -1.80005,0 -3.23338,-0.5 -4.3,-1.5 -1.06671,-1 -1.60004,-2.36666 -1.6,-4.1 l 0,-2.5 c -1.53337,2.66667 -3.60004,4.73334 -6.2,6.2 -2.60003,1.4 -5.53336,2.1 -8.8,2.1 -12.00001,0 -18.00001,-6.73333 -18,-20.2 l 0,-24.6 c -10e-6,-1.79995 0.56666,-3.23329 1.7,-4.3 1.13332,-1.06662 2.63332,-1.59995 4.5,-1.6 1.93332,5e-5 3.46665,0.53338 4.6,1.6 1.13331,1.06671 1.69998,2.50005 1.7,4.3 l 0,24.7 c -2e-5,3.46668 0.69998,6.03335 2.1,7.7 1.39998,1.66668 3.59997,2.50001 6.6,2.5 3.46663,1e-5 6.2333,-1.13332 8.3,-3.4 2.13329,-2.33332 3.19996,-5.39998 3.2,-9.2 l 0,-22.3 c -4e-5,-1.79995 0.56663,-3.23329 1.7,-4.3 1.13329,-1.06662 2.63329,-1.59995 4.5,-1.6"
       style="font-size:100px;fill:#ffffff"
       id="path4332" /><path
       d="m 1027.6374,187.05 c -7.2667,0 -13.1334,-1.43333 -17.6,-4.3 -2.1334,-1.26666 -3.2,-3.06666 -3.2,-5.4 0,-1.33332 0.3666,-2.39999 1.1,-3.2 0.7333,-0.86665 1.6333,-1.29999 2.7,-1.3 1.1333,1e-5 2.7,0.53335 4.7,1.6 2.1333,1.00001 4.0666,1.76668 5.8,2.3 1.8,0.53334 4.0666,0.80001 6.8,0.8 2.8,10e-6 4.9666,-0.46666 6.5,-1.4 1.5999,-0.93332 2.3999,-2.23332 2.4,-3.9 -10e-5,-1.13332 -0.3334,-2.03332 -1,-2.7 -0.6001,-0.66665 -1.7334,-1.26665 -3.4,-1.8 -1.6,-0.59998 -4.0667,-1.26665 -7.4,-2 -5.9334,-1.19998 -10.2,-2.89998 -12.8,-5.1 -2.5334,-2.19997 -3.8,-5.2333 -3.8,-9.1 0,-2.9333 0.8666,-5.56663 2.6,-7.9 1.7333,-2.39996 4.1,-4.23329 7.1,-5.5 3.0666,-1.33328 6.5333,-1.99995 10.4,-2 2.8,5e-5 5.4999,0.36672 8.1,1.1 2.5999,0.66671 4.9333,1.66671 7,3 2.1333,1.33338 3.1999,3.10004 3.2,5.3 -10e-5,1.33337 -0.3667,2.4667 -1.1,3.4 -0.7334,0.8667 -1.6334,1.30004 -2.7,1.3 -0.7334,4e-5 -1.4667,-0.1333 -2.2,-0.4 -0.6667,-0.3333 -1.5334,-0.79996 -2.6,-1.4 -1.9334,-0.99996 -3.6001,-1.73329 -5,-2.2 -1.4001,-0.53329 -3.1334,-0.79996 -5.2,-0.8 -2.4667,4e-5 -4.4334,0.50004 -5.9,1.5 -1.4,1.00004 -2.1,2.3667 -2.1,4.1 0,1.6667 0.7333,2.93337 2.2,3.8 1.4666,0.8667 4.3,1.73336 8.5,2.6 4.4666,0.93336 7.9666,2.00003 10.5,3.2 2.5333,1.20002 4.3333,2.70002 5.4,4.5 1.1333,1.80002 1.6999,4.10002 1.7,6.9 -10e-5,4.53334 -1.9001,8.16667 -5.7,10.9 -3.7334,2.73333 -8.7334,4.1 -15,4.1"
       style="font-size:100px;fill:#ffffff"
       id="path4334" /></g><ellipse
     style="opacity:0;fill:#fa004f"
     sodipodi:ry="157.39999"
     sodipodi:rx="158.89999"
     sodipodi:cy="248.8"
     sodipodi:cx="237.7"
     d="m 396.59999,248.8 c 0,86.92962 -71.14195,157.4 -158.89999,157.4 -87.75805,0 -158.899997,-70.47038 -158.899997,-157.4 0,-86.92961 71.141947,-157.399991 158.899997,-157.399991 87.75804,0 158.89999,70.470381 158.89999,157.399991 z"
     cx="237.7"
     rx="158.89999"
     cy="248.8"
     transform="translate(-76.809124,-88.76986)"
     ry="157.39999"
     class="st7"
     id="ellipse100" /><path
     style="opacity:0;fill:#ffffff"
     inkscape:connector-curvature="0"
     d="m 166.59087,104.83014 c 0,0 -0.8,-16.5 17.5,-17.5 20.3,-1.1 63,19.7 58.6,79.3 -4.3,57.6 -12,66.4 -12,66.4 0,0 2,7.9 4,14.4 0.8,2.7 3.6,12.1 -3.3,13.6 -7.1,1.6 -17.3,-0.1 -25.8,0.4 -4.6,0.3 -6.3,-2.9 -6.7,-6.7 0,0 -2.4,-13.6 -2.6,-13.5 -3.1,1.4 -16.5,3.4 -26,3.1 -10.2,-0.3 -27.4,-2.9 -27.4,-2.9 v 14 c 0,2.2 -1.7,5.7 -5.9,5.9 -2.3,0.1 -25.9,0.1 -27.9,0 -4,-0.2 -5.8,-4.2 -5.2,-9 0.6,-4.8 1.2,-6.8 1.2,-6.8 0,0 10.9,-3.2 7.5,-21.1 0,0 -25.2,31.9 -62.799997,33.1 0,0 27.199997,-20.3 35.999997,-51.7 7.9,-28.1 41.8,-39 58.4,-38.4 16.6,0.6 27.3,5.8 41.1,4 5.6,-0.7 24.2,-3.2 24.6,-24.6 0.3,-20.6 -21.1,-24.6 -24.6,-24.6 -5.6,0.2 -19.1,-3.4 -18.7,-17.4 z"
     class="st2"
     id="path102" /><circle
     style="opacity:0;fill:#ffffff"
     sodipodi:ry="17.200001"
     sodipodi:rx="17.200001"
     sodipodi:cy="140.2"
     sodipodi:cx="257.29999"
     d="m 274.49999,140.2 c 0,9.4993 -7.7007,17.2 -17.2,17.2 -9.4993,0 -17.2,-7.7007 -17.2,-17.2 0,-9.4993 7.7007,-17.2 17.2,-17.2 9.4993,0 17.2,7.7007 17.2,17.2 z"
     cx="257.29999"
     cy="140.2"
     transform="translate(-76.809124,-88.76986)"
     r="17.200001"
     class="st2"
     id="circle104" /><path
     style="fill:#ffffff;stroke:#ffffff;stroke-width:0.68222106"
     inkscape:connector-curvature="0"
     d="m 145.18087,316.64014 c -42.98,-4 -85.173997,-27.54 -111.139997,-62.02 -20.343,-27 -30.642,-56.28 -31.6,-89.83 -0.79724,-27.92 4.3095,-51.1 16.58,-75.261 24.04,-47.331 70.140997,-79.452001 122.889997,-85.622001 23.2,-2.7139 47.917,-0.20086 69.718,7.0884 24.023,8.031901 43.623,20.239001 61.875,38.535001 23.833,23.891 37.965,50.977 44.008,84.343 1.84,10.16 2.5073,31.541 1.3243,42.431 -9.3689,86.237 -86.356,148.45 -173.65,140.33 z m -4.0331,-57.442 c 1.534,-1.7846 1.6453,-2.4487 1.6453,-9.8115 v -7.8973 l 2.8994,0.41321 c 19.163,2.7309 33.164,2.983 44.56,0.80239 2.9769,-0.56964 5.5894,-1.0358 5.8055,-1.0358 0.21609,-6e-5 0.93951,3.1466 1.6076,6.9926 1.4124,8.1306 2.4658,11.031 4.378,12.055 2.1842,1.1689 27.546,0.97584 30.436,-0.2317 4.2916,-1.7931 4.3729,-6.0849 0.37537,-19.808 l -2.1698,-7.4487 1.3807,-3.1134 c 4.2166,-9.5085 7.1945,-26.03 9.7961,-54.352 1.3422,-14.611 1.4209,-17.427 0.70571,-25.242 -0.8722,-9.5315 -2.4605,-16.647 -5.3422,-23.933 -6.9174,-17.489 -20.757,-30.866 -38.149,-36.874 -4.672,-1.6138 -6.5382,-1.8852 -12.962,-1.8852 -6.4425,0 -7.9043,0.21388 -10.331,1.5115 -5.818,3.1116 -9.1127,8.9273 -9.1127,16.085 0,9.4578 6.4838,15.403 18.423,16.892 10.311,1.2863 18.964,6.6972 22.638,14.157 1.3452,2.731 1.5776,4.2584 1.5776,10.366 0,6.4522 -0.18827,7.5467 -1.8964,11.025 -6.0352,12.29 -19.678,15.937 -44.495,11.895 -14.731,-2.399 -19.814,-2.734 -26.736,-1.7618 -15.468,2.1724 -31.066,9.964 -40.406,20.184 -4.6255,5.0611 -7.6312,10.626 -10.973,20.317 -5.7765,16.752 -13.384,28.372 -27.922997,42.652 l -6.5289,6.4123 4.4344,-0.44598 c 18.229997,-1.8334 37.936997,-12.139 53.310997,-27.878 l 4.5326,-4.6403 0.31235,2.9067 c 0.78459,7.3014 -1.9987,15.005 -6.2075,17.182 -1.5932,0.82385 -2.033,1.598 -2.3907,4.2076 -0.88308,6.4428 -0.58577,8.4228 1.5916,10.6 l 2.03,2.03 15.768,-0.20633 15.768,-0.20633 1.6453,-1.9141 z m 46.34,-192.1 c 6.1883,-2.8112 9.8375,-8.5947 9.8621,-15.63 0.0175,-5.0156 -0.99496,-7.7893 -4.1586,-11.392 -6.2687,-7.1397 -17.572,-7.6613 -24.31,-1.1218 -11.328,10.994 -3.9472,29.431 11.769,29.399 2.4919,-0.005 5.1668,-0.49598 6.8374,-1.2548 z"
     id="path106" /></svg>