<?xml version="1.0" encoding="UTF-8" standalone="no"?>
<!-- Created with Inkscape (http://www.inkscape.org/) -->

<svg
   xmlns:dc="http://purl.org/dc/elements/1.1/"
   xmlns:cc="http://creativecommons.org/ns#"
   xmlns:rdf="http://www.w3.org/1999/02/22-rdf-syntax-ns#"
   xmlns:svg="http://www.w3.org/2000/svg"
   xmlns="http://www.w3.org/2000/svg"
   version="1.1"
   width="100%"
   height="100%"
   viewBox="0 0 1050 320"
   id="svg2"
   xml:space="preserve"><metadata
     id="metadata60"><rdf:RDF><cc:Work
         rdf:about=""><dc:format>image/svg+xml</dc:format><dc:type
           rdf:resource="http://purl.org/dc/dcmitype/StillImage" /><dc:title></dc:title></cc:Work></rdf:RDF></metadata><defs
     id="defs58" /><style
     type="text/css"
     id="style4" /><g
     transform="translate(0,-182.1)"
     id="Black_inverted"
     style="display:none"><rect
       width="2091.7"
       height="500"
       x="0"
       y="0"
       id="Background_1_"
       style="display:inline" /><g
       id="Logo_1_"
       style="display:inline"><ellipse
         cx="237.7"
         cy="248.8"
         rx="158.89999"
         ry="157.39999"
         id="ellipse9"
         style="fill:#ffffff" /><path
         d="m 243.4,193.6 c 0,0 -0.8,-16.5 17.5,-17.5 20.3,-1.1 63,19.7 58.6,79.3 -4.3,57.6 -12,66.4 -12,66.4 0,0 2,7.9 4,14.4 0.8,2.7 3.6,12.1 -3.3,13.6 -7.1,1.6 -17.3,-0.1 -25.8,0.4 -4.6,0.3 -6.3,-2.9 -6.7,-6.7 0,0 -2.4,-13.6 -2.6,-13.5 -3.1,1.4 -16.5,3.4 -26,3.1 -10.2,-0.3 -27.4,-2.9 -27.4,-2.9 0,0 0,9.6 0,14 0,2.2 -1.7,5.7 -5.9,5.9 -2.3,0.1 -25.9,0.1 -27.9,0 -4,-0.2 -5.8,-4.2 -5.2,-9 0.6,-4.8 1.2,-6.8 1.2,-6.8 0,0 10.9,-3.2 7.5,-21.1 0,0 -25.2,31.9 -62.8,33.1 0,0 27.2,-20.3 36,-51.7 7.9,-28.1 41.8,-39 58.4,-38.4 16.6,0.6 27.3,5.8 41.1,4 5.6,-0.7 24.2,-3.2 24.6,-24.6 C 287,215 265.6,211 262.1,211 c -5.6,0.2 -19.1,-3.4 -18.7,-17.4 z"
         id="path11" /><circle
         cx="257.29999"
         cy="140.2"
         r="17.200001"
         id="circle13" /></g><g
       id="Text_1_"
       style="display:inline"><text
         transform="translate(454.3588,324.7874)"
         id="text16"
         style="font-size:199.3565979px;letter-spacing:9;fill:#ffffff;font-family:Dosis-ExtraBold">IMPACTASAURUS</text>
</g><g
       id="Guides_1_"
       style="display:inline" /></g><g
     transform="translate(0,-182.1)"
     id="Fuschia_inverted"
     style="display:none"><rect
       width="2091.7"
       height="500"
       x="0"
       y="1"
       id="Background"
       style="fill:#fa004f;display:inline" /><g
       id="Logo"
       style="display:inline"><ellipse
         cx="237.7"
         cy="248.8"
         rx="158.89999"
         ry="157.39999"
         id="ellipse22"
         style="fill:#ffffff" /><path
         d="m 243.4,193.6 c 0,0 -0.8,-16.5 17.5,-17.5 20.3,-1.1 63,19.7 58.6,79.3 -4.3,57.6 -12,66.4 -12,66.4 0,0 2,7.9 4,14.4 0.8,2.7 3.6,12.1 -3.3,13.6 -7.1,1.6 -17.3,-0.1 -25.8,0.4 -4.6,0.3 -6.3,-2.9 -6.7,-6.7 0,0 -2.4,-13.6 -2.6,-13.5 -3.1,1.4 -16.5,3.4 -26,3.1 -10.2,-0.3 -27.4,-2.9 -27.4,-2.9 0,0 0,9.6 0,14 0,2.2 -1.7,5.7 -5.9,5.9 -2.3,0.1 -25.9,0.1 -27.9,0 -4,-0.2 -5.8,-4.2 -5.2,-9 0.6,-4.8 1.2,-6.8 1.2,-6.8 0,0 10.9,-3.2 7.5,-21.1 0,0 -25.2,31.9 -62.8,33.1 0,0 27.2,-20.3 36,-51.7 7.9,-28.1 41.8,-39 58.4,-38.4 16.6,0.6 27.3,5.8 41.1,4 5.6,-0.7 24.2,-3.2 24.6,-24.6 C 287,215 265.6,211 262.1,211 c -5.6,0.2 -19.1,-3.4 -18.7,-17.4 z"
         id="path24"
         style="fill:#fa004f" /><circle
         cx="257.29999"
         cy="140.2"
         r="17.200001"
         id="circle26"
         style="fill:#fa004f" /></g><g
       id="Text"
       style="display:inline"><text
         transform="translate(454.3588,324.7874)"
         id="text29"
         style="font-size:199.3565979px;letter-spacing:9;fill:#ffffff;font-family:Dosis-ExtraBold">IMPACTASAURUS</text>
</g><g
       id="Guides"
       style="display:inline" /></g><g
     transform="translate(0,-182.1)"
     id="Black_normal"
     style="display:none"><g
       id="Logo_3_"
       style="display:inline"><ellipse
         cx="237.7"
         cy="248.8"
         rx="158.89999"
         ry="157.39999"
         id="ellipse34" /><path
         d="m 243.4,193.6 c 0,0 -0.8,-16.5 17.5,-17.5 20.3,-1.1 63,19.7 58.6,79.3 -4.3,57.6 -12,66.4 -12,66.4 0,0 2,7.9 4,14.4 0.8,2.7 3.6,12.1 -3.3,13.6 -7.1,1.6 -17.3,-0.1 -25.8,0.4 -4.6,0.3 -6.3,-2.9 -6.7,-6.7 0,0 -2.4,-13.6 -2.6,-13.5 -3.1,1.4 -16.5,3.4 -26,3.1 -10.2,-0.3 -27.4,-2.9 -27.4,-2.9 0,0 0,9.6 0,14 0,2.2 -1.7,5.7 -5.9,5.9 -2.3,0.1 -25.9,0.1 -27.9,0 -4,-0.2 -5.8,-4.2 -5.2,-9 0.6,-4.8 1.2,-6.8 1.2,-6.8 0,0 10.9,-3.2 7.5,-21.1 0,0 -25.2,31.9 -62.8,33.1 0,0 27.2,-20.3 36,-51.7 7.9,-28.1 41.8,-39 58.4,-38.4 16.6,0.6 27.3,5.8 41.1,4 5.6,-0.7 24.2,-3.2 24.6,-24.6 C 287,215 265.6,211 262.1,211 c -5.6,0.2 -19.1,-3.4 -18.7,-17.4 z"
         id="path36"
         style="fill:#ffffff" /><circle
         cx="257.29999"
         cy="140.2"
         r="17.200001"
         id="circle38"
         style="fill:#ffffff" /></g><g
       id="Text_3_"
       style="display:inline"><text
         transform="translate(454.3588,324.7874)"
         id="text41"
         style="font-size:199.3565979px;letter-spacing:9;font-family:Dosis-ExtraBold">IMPACTASAURUS</text>
</g><g
       id="Guides_3_"
       style="display:inline" /></g><style
     type="text/css"
     id="style3169" /><g
     transform="translate(-61.374958,275.53857)"
     id="Black_inverted-6"
     style="display:none"><rect
       width="2091.7"
       height="500"
       x="0"
       y="0"
       id="Background_1_-3"
       style="display:inline" /><g
       id="Logo_1_-1"
       style="display:inline"><ellipse
         cx="237.7"
         cy="248.8"
         rx="158.89999"
         ry="157.39999"
         id="ellipse3174"
         style="fill:#ffffff" /><path
         d="m 243.4,193.6 c 0,0 -0.8,-16.5 17.5,-17.5 20.3,-1.1 63,19.7 58.6,79.3 -4.3,57.6 -12,66.4 -12,66.4 0,0 2,7.9 4,14.4 0.8,2.7 3.6,12.1 -3.3,13.6 -7.1,1.6 -17.3,-0.1 -25.8,0.4 -4.6,0.3 -6.3,-2.9 -6.7,-6.7 0,0 -2.4,-13.6 -2.6,-13.5 -3.1,1.4 -16.5,3.4 -26,3.1 -10.2,-0.3 -27.4,-2.9 -27.4,-2.9 0,0 0,9.6 0,14 0,2.2 -1.7,5.7 -5.9,5.9 -2.3,0.1 -25.9,0.1 -27.9,0 -4,-0.2 -5.8,-4.2 -5.2,-9 0.6,-4.8 1.2,-6.8 1.2,-6.8 0,0 10.9,-3.2 7.5,-21.1 0,0 -25.2,31.9 -62.8,33.1 0,0 27.2,-20.3 36,-51.7 7.9,-28.1 41.8,-39 58.4,-38.4 16.6,0.6 27.3,5.8 41.1,4 5.6,-0.7 24.2,-3.2 24.6,-24.6 C 287,215 265.6,211 262.1,211 c -5.6,0.2 -19.1,-3.4 -18.7,-17.4 z"
         id="path3176" /><circle
         cx="257.29999"
         cy="140.2"
         r="17.200001"
         id="circle3178" /></g><g
       id="Text_1_-1"
       style="display:inline"><text
         transform="translate(454.3588,324.7874)"
         id="text3181"
         style="font-size:199.3565979px;letter-spacing:9;fill:#ffffff;font-family:Dosis-ExtraBold">IMPACTASAURUS</text>
</g><g
       id="Guides_1_-9"
       style="display:inline" /></g><g
     transform="translate(-61.374958,275.53857)"
     id="Fuschia_inverted-6"
     style="display:none"><rect
       width="2091.7"
       height="500"
       x="0"
       y="1"
       id="Background-2"
       style="fill:#fa004f;display:inline" /><g
       id="Logo-2"
       style="display:inline"><ellipse
         cx="237.7"
         cy="248.8"
         rx="158.89999"
         ry="157.39999"
         id="ellipse3187"
         style="fill:#ffffff" /><path
         d="m 243.4,193.6 c 0,0 -0.8,-16.5 17.5,-17.5 20.3,-1.1 63,19.7 58.6,79.3 -4.3,57.6 -12,66.4 -12,66.4 0,0 2,7.9 4,14.4 0.8,2.7 3.6,12.1 -3.3,13.6 -7.1,1.6 -17.3,-0.1 -25.8,0.4 -4.6,0.3 -6.3,-2.9 -6.7,-6.7 0,0 -2.4,-13.6 -2.6,-13.5 -3.1,1.4 -16.5,3.4 -26,3.1 -10.2,-0.3 -27.4,-2.9 -27.4,-2.9 0,0 0,9.6 0,14 0,2.2 -1.7,5.7 -5.9,5.9 -2.3,0.1 -25.9,0.1 -27.9,0 -4,-0.2 -5.8,-4.2 -5.2,-9 0.6,-4.8 1.2,-6.8 1.2,-6.8 0,0 10.9,-3.2 7.5,-21.1 0,0 -25.2,31.9 -62.8,33.1 0,0 27.2,-20.3 36,-51.7 7.9,-28.1 41.8,-39 58.4,-38.4 16.6,0.6 27.3,5.8 41.1,4 5.6,-0.7 24.2,-3.2 24.6,-24.6 C 287,215 265.6,211 262.1,211 c -5.6,0.2 -19.1,-3.4 -18.7,-17.4 z"
         id="path3189"
         style="fill:#fa004f" /><circle
         cx="257.29999"
         cy="140.2"
         r="17.200001"
         id="circle3191"
         style="fill:#fa004f" /></g><g
       id="Text-1"
       style="display:inline"><text
         transform="translate(454.3588,324.7874)"
         id="text3194"
         style="font-size:199.3565979px;letter-spacing:9;fill:#ffffff;font-family:Dosis-ExtraBold">IMPACTASAURUS</text>
</g><g
       id="Guides-9"
       style="display:inline" /></g><g
     transform="translate(-61.374958,275.53857)"
     id="Black_normal-8"
     style="display:none"><g
       id="Logo_3_-6"
       style="display:inline"><ellipse
         cx="237.7"
         cy="248.8"
         rx="158.89999"
         ry="157.39999"
         id="ellipse3199" /><path
         d="m 243.4,193.6 c 0,0 -0.8,-16.5 17.5,-17.5 20.3,-1.1 63,19.7 58.6,79.3 -4.3,57.6 -12,66.4 -12,66.4 0,0 2,7.9 4,14.4 0.8,2.7 3.6,12.1 -3.3,13.6 -7.1,1.6 -17.3,-0.1 -25.8,0.4 -4.6,0.3 -6.3,-2.9 -6.7,-6.7 0,0 -2.4,-13.6 -2.6,-13.5 -3.1,1.4 -16.5,3.4 -26,3.1 -10.2,-0.3 -27.4,-2.9 -27.4,-2.9 0,0 0,9.6 0,14 0,2.2 -1.7,5.7 -5.9,5.9 -2.3,0.1 -25.9,0.1 -27.9,0 -4,-0.2 -5.8,-4.2 -5.2,-9 0.6,-4.8 1.2,-6.8 1.2,-6.8 0,0 10.9,-3.2 7.5,-21.1 0,0 -25.2,31.9 -62.8,33.1 0,0 27.2,-20.3 36,-51.7 7.9,-28.1 41.8,-39 58.4,-38.4 16.6,0.6 27.3,5.8 41.1,4 5.6,-0.7 24.2,-3.2 24.6,-24.6 C 287,215 265.6,211 262.1,211 c -5.6,0.2 -19.1,-3.4 -18.7,-17.4 z"
         id="path3201"
         style="fill:#ffffff" /><circle
         cx="257.29999"
         cy="140.2"
         r="17.200001"
         id="circle3203"
         style="fill:#ffffff" /></g><g
       id="Text_3_-6"
       style="display:inline"><text
         transform="translate(454.3588,324.7874)"
         id="text3206"
         style="font-size:199.3565979px;letter-spacing:9;font-family:Dosis-ExtraBold">IMPACTASAURUS</text>
</g><g
       id="Guides_3_-0"
       style="display:inline" /></g><ellipse
     cx="237.7"
     cy="248.8"
     rx="158.89999"
     ry="157.39999"
     transform="translate(-77.699997,-88.800003)"
     id="ellipse3211"
     style="fill:#fa004f" /><path
     d="m 165.7,104.8 c 0,0 -0.8,-16.500003 17.5,-17.500003 20.3,-1.1 63,19.700003 58.6,79.300003 -4.3,57.6 -12,66.4 -12,66.4 0,0 2,7.9 4,14.4 0.8,2.7 3.6,12.1 -3.3,13.6 -7.1,1.6 -17.3,-0.1 -25.8,0.4 -4.6,0.3 -6.3,-2.9 -6.7,-6.7 0,0 -2.4,-13.6 -2.6,-13.5 -3.1,1.4 -16.5,3.4 -26,3.1 -10.2,-0.3 -27.4,-2.9 -27.4,-2.9 0,0 0,9.6 0,14 0,2.2 -1.7,5.7 -5.9,5.9 -2.3,0.1 -25.9,0.1 -27.9,0 -4,-0.2 -5.8,-4.2 -5.2,-9 0.6,-4.8 1.2,-6.8 1.2,-6.8 0,0 10.9,-3.2 7.5,-21.1 0,0 -25.199997,31.9 -62.799997,33.1 0,0 27.2,-20.3 36,-51.7 7.9,-28.1 41.799997,-39 58.399997,-38.4 16.6,0.6 27.3,5.8 41.1,4 5.6,-0.7 24.2,-3.2 24.6,-24.6 0.3,-20.6 -21.1,-24.6 -24.6,-24.6 -5.6,0.2 -19.1,-3.4 -18.7,-17.4 z"
     id="path3213"
     style="fill:#ffffff" /><circle
     cx="257.29999"
     cy="140.2"
     r="17.200001"
     transform="translate(-77.699997,-88.800003)"
     id="circle3215"
     style="fill:#ffffff" /><g
     transform="translate(-61.374958,275.53857)"
     id="Guides_2_-7" /><path
     d="M 144.28692,316.54052 C 101.30918,312.54326 59.116308,289.00043 33.147808,254.52696 12.805088,227.52177 2.5064794,198.2442 1.5485057,164.69433 0.7512633,136.77355 5.8579591,113.59352 18.128767,89.434145 42.168673,42.103176 88.269638,9.9822134 141.01603,3.8121364 c 23.20013,-2.7138654 47.91708,-0.2008639 69.71849,7.0883616 24.02271,8.031911 43.62329,20.239034 61.87484,38.535285 23.83294,23.891293 37.96536,50.976557 44.00796,84.342727 1.84001,10.16025 2.50731,31.54125 1.32426,42.43083 -9.36889,86.23709 -86.35586,148.45063 -173.65466,140.33118 z m -4.03309,-57.44192 c 1.53395,-1.78459 1.64532,-2.44871 1.64532,-9.81148 l 0,-7.89733 2.89944,0.41321 c 19.16252,2.7309 33.1643,2.98303 44.56014,0.80239 2.97691,-0.56964 5.58935,-1.03576 5.80546,-1.03583 0.21609,-6e-5 0.93951,3.14663 1.60759,6.99265 1.41235,8.13059 2.46577,11.03112 4.37799,12.05451 2.18415,1.16892 27.54618,0.97584 30.43625,-0.2317 4.29159,-1.79314 4.37293,-6.08494 0.37537,-19.8078 l -2.16985,-7.44872 1.38066,-3.1134 c 4.21664,-9.50853 7.19446,-26.0305 9.79608,-54.35207 1.34216,-14.6109 1.42088,-17.42668 0.70571,-25.24218 -0.8722,-9.53151 -2.46054,-16.64729 -5.34221,-23.93306 -6.91735,-17.48929 -20.75692,-30.866152 -38.14939,-36.873948 -4.67199,-1.613821 -6.53823,-1.88525 -12.9622,-1.88525 -6.44254,0 -7.90434,0.213877 -10.33057,1.511468 -5.81802,3.111576 -9.11274,8.927279 -9.11274,16.08547 0,9.45782 6.48384,15.40291 18.42311,16.89231 10.31115,1.2863 18.96384,6.69722 22.63806,14.15661 1.34519,2.731 1.57765,4.25843 1.57765,10.36626 0,6.45218 -0.18827,7.54671 -1.89642,11.02506 -6.03516,12.28954 -19.67756,15.93664 -44.49461,11.89499 -14.73059,-2.39899 -19.81431,-2.73399 -26.73607,-1.76185 -15.46755,2.17237 -31.06551,9.96403 -40.406042,20.18405 -4.625534,5.06107 -7.631203,10.62635 -10.972606,20.31677 -5.776475,16.75243 -13.383553,28.37218 -27.922907,42.65204 l -6.528855,6.41233 4.434437,-0.44598 c 18.229644,-1.83338 37.937387,-12.13924 53.311453,-27.8784 l 4.53264,-4.64029 0.31235,2.90669 c 0.78459,7.30135 -1.99868,15.00507 -6.20751,17.18154 -1.59315,0.82385 -2.033,1.59798 -2.39069,4.20757 -0.88308,6.44278 -0.58577,8.4228 1.59163,10.60021 l 2.02996,2.02996 15.76802,-0.20633 15.76803,-0.20633 1.64532,-1.91414 z M 186.59977,67.008803 c 6.18832,-2.811159 9.83748,-8.594706 9.86208,-15.630396 0.0175,-5.015557 -0.99496,-7.789277 -4.15859,-11.392456 -6.26873,-7.139697 -17.57153,-7.661257 -24.31002,-1.121771 -11.32822,10.993668 -3.94724,29.431403 11.76918,29.399464 2.49193,-0.005 5.16684,-0.495984 6.83735,-1.254841 l 0,0 z"
     id="path3043"
     style="fill:#935d8c;fill-opacity:1;stroke:#935d8c;stroke-width:0.68222106;stroke-opacity:1" /><text
     x="377.65613"
     y="186.25"
     id="text3040"
     xml:space="preserve"
     style="font-size:40px;font-style:normal;font-variant:normal;font-weight:bold;font-stretch:normal;line-height:125%;letter-spacing:0px;word-spacing:0px;fill:#000000;fill-opacity:1;stroke:none;font-family:Nunito;-inkscape-font-specification:Sans Bold"><tspan
       x="377.65613"
       y="186.25"
       id="tspan3042"
       style="font-size:100px;fill:#935d8c;fill-opacity:1">Impactasaurus</tspan></text>
</svg>