<?xml version="1.0" encoding="utf-8"?>
<!-- Generator: Adobe Illustrator 22.1.0, SVG Export Plug-In . SVG Version: 6.00 Build 0)  -->
<svg version="1.1" id="Layer_1" xmlns="http://www.w3.org/2000/svg" xmlns:xlink="http://www.w3.org/1999/xlink" x="0px" y="0px"
	 viewBox="0 0 119.16 38.839" style="enable-background:new 0 0 119.16 38.839;" xml:space="preserve">
<style type="text/css">
	.st0{fill:#EAEAEA;}
	.st1{fill:#F4F4F4;}
	.st2{fill:#939393;}
	.st3{fill:#E5CCA5;}
	.st4{fill:#BCBCBC;}
	.st5{fill:#474747;}
	.st6{fill:#EFF8FB;}
	.st7{fill:#6A6B6B;}
	.st8{fill:#C3C3C3;}
</style>
<g>
	<path class="st0" d="M38.341,13.722c-0.01-0.131-0.025-0.263-0.041-0.394c-0.011-0.092-0.026-0.19-0.042-0.279
		c-0.351-0.295-0.75-0.558-1.165-0.797c-0.45-0.263-0.921-0.499-1.402-0.717c-0.477-0.225-0.967-0.429-1.461-0.628
		c-0.246-0.1-0.494-0.196-0.744-0.289c-0.248-0.097-0.499-0.187-0.751-0.279c0.528,0.088,1.051,0.207,1.569,0.341
		c0.337,0.087,0.673,0.185,1.006,0.289C32.94,4.772,27.27,0.736,21.08,0.736c-6.191,0-11.86,4.036-14.23,10.234
		c0.334-0.104,0.669-0.201,1.006-0.289c0.519-0.133,1.042-0.254,1.57-0.341c-0.253,0.091-0.503,0.182-0.752,0.279
		c-0.248,0.092-0.497,0.19-0.744,0.289c-0.493,0.199-0.982,0.403-1.461,0.628c-0.48,0.219-0.951,0.454-1.401,0.717
		c-0.415,0.239-0.814,0.502-1.166,0.797c-0.015,0.09-0.03,0.186-0.041,0.279C3.845,13.46,3.83,13.592,3.82,13.723
		c-0.023,0.264-0.032,0.529-0.035,0.795c-0.005,0.531,0.031,1.062,0.098,1.588c0.073,0.527,0.169,1.051,0.312,1.557
		c0.071,0.254,0.15,0.504,0.242,0.745c0.046,0.121,0.097,0.24,0.149,0.355c0.026,0.057,0.054,0.114,0.081,0.169l0.033,0.064
		c0.039,0.02,0.08,0.04,0.119,0.059l0.236,0.113c0.131,0.06,0.313,0.146,0.464,0.213c0.009-0.007,0.017-0.015,0.024-0.022
		l-0.438-1.666c0.093-0.026,0.924-0.24,2.355-0.512c-0.115-0.022-0.232-0.047-0.347-0.074c-0.326-0.081-0.648-0.18-0.96-0.306
		C6,16.735,5.848,16.663,5.702,16.581c-0.145-0.084-0.289-0.178-0.399-0.303c1.573,0.513,4.824,0.281,7.714-0.018
		c2.643-0.272,5.292-0.449,7.954-0.454c2.663,0.005,5.313,0.182,7.954,0.454c2.891,0.299,6.142,0.531,7.714,0.018
		c-0.11,0.125-0.254,0.22-0.399,0.303c-0.145,0.082-0.297,0.153-0.452,0.219c-0.312,0.126-0.633,0.225-0.96,0.306
		c-0.049,0.012-0.097,0.022-0.145,0.032c1.57,0.291,2.484,0.528,2.582,0.554l-0.418,1.588c0.085-0.038,0.169-0.074,0.253-0.113
		l0.236-0.113c0.039-0.019,0.079-0.039,0.119-0.059l0.032-0.064c0.028-0.055,0.056-0.112,0.082-0.169
		c0.053-0.116,0.103-0.235,0.149-0.355c0.092-0.242,0.172-0.492,0.243-0.745c0.143-0.506,0.24-1.03,0.312-1.557
		c0.067-0.526,0.103-1.057,0.098-1.588C38.374,14.251,38.364,13.985,38.341,13.722z"/>
	<path class="st1" d="M22.865,35.762c-0.208,0.032-0.417,0.058-0.624,0.073c-0.133,0.007-0.275,0.02-0.403,0.02l-0.048,0.001
		c0.161-0.359,0.283-0.639,0.376-0.849C22.355,35.218,22.595,35.48,22.865,35.762z"/>
	<path class="st1" d="M23.318,36.223c0.647,0.64,1.449,1.007,2.33,1.073c-1.482,0.602-2.879,0.834-3.954,0.907
		c-1.072,0.072-2.16-0.055-3.225-0.347c0.09-0.016,0.155-0.027,0.234-0.037c0.088-0.01,1.998-0.26,2.86-1.54l0.081,0.002
		l0.212-0.002c0.143,0,0.273-0.012,0.41-0.017c0.325-0.028,0.643-0.074,0.955-0.137C23.252,36.157,23.284,36.19,23.318,36.223z"/>
	<path class="st2" d="M25.151,17.047c-0.062,0.081-0.131,0.17-0.205,0.263c-0.378,0.479-0.903,1.09-1.526,1.689
		c-0.724-0.022-1.467-0.035-2.232-0.035c-1.265,0-2.477,0.033-3.629,0.09c1.627-0.675,3.582-1.335,5.699-1.731
		C23.876,17.205,24.508,17.112,25.151,17.047z"/>
	<path class="st2" d="M15.628,17.776c-0.58,0.408-1.237,0.929-1.873,1.56c-1.629,0.163-3.05,0.36-4.222,0.55
		C11.335,19.058,13.392,18.295,15.628,17.776z"/>
	<path class="st2" d="M35.531,21.138l-0.662,4.636l-3.174,2.223l-8.278-0.941l-1.246-4.104c-0.03-0.1-0.114-0.173-0.217-0.19
		c-0.306-0.05-0.578-0.075-0.804-0.075c-0.227,0-0.498,0.026-0.806,0.075c-0.102,0.017-0.186,0.09-0.217,0.19l-1.216,4.004
		l-8.232,1.832l-3.262-2.285l-0.643-5.202c0.14-0.079,0.282-0.158,0.426-0.236c0.201-0.044,0.429-0.09,0.68-0.137l0.606,4.909
		c0.009,0.077,0.052,0.145,0.114,0.19l2.244,1.572c0.046,0.032,0.101,0.048,0.155,0.048c0.02,0,0.039-0.002,0.06-0.007l6.768-1.506
		c0.023-0.005,0.046-0.014,0.067-0.024c0.063-0.033,0.113-0.091,0.133-0.162l1.219-4.013c0.327-0.085,1.164-0.28,1.9-0.28
		c0.734,0,1.572,0.195,1.899,0.28l1.219,4.013c0.032,0.104,0.122,0.178,0.23,0.191l6.768,0.769c0.066,0.007,0.132-0.009,0.186-0.048
		l2.245-1.572c0.061-0.043,0.102-0.111,0.112-0.185l0.599-4.194C34.859,20.996,35.235,21.074,35.531,21.138z"/>
	<path class="st2" d="M36.367,18.231l-0.583,2.21c-1.192-0.263-3.809-0.779-7.372-1.125c1.164-0.496,2.349-1.119,3.433-1.897
		C33.964,17.718,35.521,18.039,36.367,18.231z"/>
	<g>
		<path class="st3" d="M12.499,25.146c0.462-0.249,0.983-0.213,1.8-0.211c0.088,0.003,0.178,0.001,0.272-0.001
			c0.08-0.001,0.161-0.003,0.247-0.004c0.841-0.009,1.541,0.072,1.528-1.249c-0.013-1.321-0.599-2.389-1.44-2.38
			c-0.841,0.007-1.655,1.089-1.605,2.409c0.014,0.344,0.064,0.592,0.145,0.771C12.713,24.665,12.51,25.118,12.499,25.146z
			 M22.612,19.713c-0.326,0.264-0.67,0.511-1.028,0.726l-1.193,0.72c-0.749,0.091-1.398,0.277-1.435,0.287
			c-0.022,0.006-0.043,0.015-0.062,0.027c-0.058,0.033-0.102,0.089-0.123,0.155l-1.216,4.005l-6.497,1.445l-2.046-1.433
			l-0.595-4.823c1.162-0.213,2.716-0.46,4.583-0.669c-0.2,0.24-0.394,0.491-0.579,0.755l-1.111,1.595l1.619-1.079
			c0.024-0.017,1.054-0.695,2.74-1.52c1.68-0.126,3.534-0.207,5.519-0.207C21.671,19.7,22.146,19.706,22.612,19.713z"/>
		<path class="st3" d="M29.727,24.605c-0.009-0.032-0.185-0.563-0.967-0.47c0.09-0.196,0.131-0.461,0.102-0.825
			c-0.103-1.318-0.87-2.365-1.71-2.336c-0.84,0.03-1.379,1.122-1.333,2.443c0.046,1.32,0.752,1.31,1.592,1.281
			C28.54,24.678,29.161,24.332,29.727,24.605z M33.874,20.81l-0.586,4.101l-2.063,1.444l-6.489-0.738l-1.21-3.987
			c-0.027-0.088-0.096-0.156-0.185-0.183c-0.04-0.012-0.843-0.241-1.695-0.315l0.155-0.01c0.135-0.009,2.372-0.284,5.045-1.205
			C29.805,20.145,32.221,20.509,33.874,20.81z"/>
	</g>
	<g>
		<path class="st1" d="M12.499,25.146c0.462-0.249,0.983-0.213,1.8-0.211c0.088,0.003,0.178,0.001,0.272-0.001
			c0.08-0.001,0.161-0.003,0.247-0.004c0.841-0.009,1.541,0.072,1.528-1.249c-0.013-1.321-0.599-2.389-1.44-2.38
			c-0.841,0.007-1.655,1.089-1.605,2.409c0.014,0.344,0.064,0.592,0.145,0.771C12.713,24.665,12.51,25.118,12.499,25.146z
			 M22.612,19.713c-0.326,0.264-0.67,0.511-1.028,0.726l-1.193,0.72c-0.749,0.091-1.398,0.277-1.435,0.287
			c-0.022,0.006-0.043,0.015-0.062,0.027c-0.058,0.033-0.102,0.089-0.123,0.155l-1.216,4.005l-6.497,1.445l-2.046-1.433
			l-0.595-4.823c1.162-0.213,2.716-0.46,4.583-0.669c-0.2,0.24-0.394,0.491-0.579,0.755l-1.111,1.595l1.619-1.079
			c0.024-0.017,1.054-0.695,2.74-1.52c1.68-0.126,3.534-0.207,5.519-0.207C21.671,19.7,22.146,19.706,22.612,19.713z"/>
		<path class="st1" d="M29.727,24.605c-0.009-0.032-0.185-0.563-0.967-0.47c0.09-0.196,0.131-0.461,0.102-0.825
			c-0.103-1.318-0.87-2.365-1.71-2.336c-0.84,0.03-1.379,1.122-1.333,2.443c0.046,1.32,0.752,1.31,1.592,1.281
			C28.54,24.678,29.161,24.332,29.727,24.605z M33.874,20.81l-0.586,4.101l-2.063,1.444l-6.489-0.738l-1.21-3.987
			c-0.027-0.088-0.096-0.156-0.185-0.183c-0.04-0.012-0.843-0.241-1.695-0.315l0.155-0.01c0.135-0.009,2.372-0.284,5.045-1.205
			C29.805,20.145,32.221,20.509,33.874,20.81z"/>
	</g>
	<path class="st1" d="M8.015,27.588c0.039,0.137,0.08,0.276,0.122,0.411c-0.419,0.123-1.272,0.241-1.657,0.173
		c-0.32-0.322-0.916-2.539-1.047-3.716c-0.107-0.954-0.032-1.16,0.065-1.24c0.113-0.095,0.534-0.335,0.899-0.53l0.493,4.004
		c0.009,0.077,0.05,0.145,0.114,0.19L8.015,27.588z"/>
	<path class="st1" d="M23.758,27.643l-0.03,0.255c0,0-0.897,0.831-2.341,1.018c-1.444,0.186-2.579-0.702-2.579-0.702
		c0.048,0.155,0.114,0.503,0.441,0.8c-0.385-0.046-0.8-0.077-1.236-0.077c-0.157,0-0.317,0.004-0.47,0.012
		c-0.889,0.046-2.138,1.39-3.018,2.744c-0.431,0.137-1.78,0.564-3.34,1.025c-1.456-2.018-2.173-4.08-2.245-4.294l0.001-0.001
		c-0.029-0.082-0.059-0.164-0.086-0.248l0.375,0.262v0.001l0.925,0.648l0.309,0.216c0.046,0.032,0.101,0.05,0.155,0.05
		c0.02,0,0.04-0.003,0.06-0.006l8.504-1.893c0.096-0.021,0.172-0.092,0.201-0.186l1.213-3.992c0.209-0.028,0.394-0.043,0.551-0.043
		c0.157,0,0.341,0.015,0.551,0.043l1.248,4.111c0.032,0.104,0.122,0.18,0.23,0.191L23.758,27.643z"/>
	<path class="st1" d="M33.464,27.423l0.275-0.193c-0.045,0.19-0.095,0.38-0.146,0.567c-0.382,1.223-0.832,2.305-1.333,3.261
		c-0.111,0.008-0.227,0.012-0.353,0.012c-0.386,0-0.78-0.032-1.216-0.073c-0.757-0.069-1.959-0.207-2.339-0.251
		c-0.327-0.26-1.446-1.15-2.377-1.882c-0.037-0.03-0.068-0.057-0.099-0.082c-0.164-0.138-0.35-0.296-0.727-0.296
		c-0.343,0-0.843,0.125-2.054,0.491c0.629-0.47,0.633-1.076,0.633-1.076l0.03-0.255l7.977,0.907
		c0.065,0.008,0.132-0.009,0.187-0.047l0.802-0.562L33.464,27.423z"/>
	<path class="st4" d="M27.594,10.638c0.024,0.709,0.007,1.996-0.324,3.2c-0.014,0.046-0.011,0.094,0,0.137
		c-0.421-0.044-0.841-0.082-1.262-0.116c0.472-0.989,0.575-2.043,0.598-2.414C26.967,11.188,27.328,10.879,27.594,10.638z"/>
	<path class="st4" d="M15.556,11.446c0.022,0.371,0.125,1.423,0.597,2.412c-0.421,0.033-0.841,0.073-1.261,0.117
		c0.011-0.044,0.013-0.09,0-0.136c-0.33-1.202-0.347-2.489-0.324-3.2C14.833,10.879,15.193,11.188,15.556,11.446z"/>
	<path class="st5" d="M29.727,24.605c-0.566-0.273-1.187,0.073-2.316,0.095c-0.84,0.03-1.546,0.038-1.592-1.281
		c-0.046-1.321,0.492-2.413,1.333-2.443c0.84-0.029,1.607,1.018,1.71,2.336c0.028,0.363-0.012,0.628-0.102,0.825
		C29.542,24.042,29.718,24.573,29.727,24.605z M27.086,22.671c0.236-0.005,0.426-0.201,0.422-0.438s-0.2-0.427-0.438-0.422
		c-0.237,0.004-0.426,0.2-0.422,0.437C26.653,22.486,26.848,22.676,27.086,22.671z"/>
	<ellipse class="st6" cx="27.076" cy="22.238" rx="0.429" ry="0.429"/>
	<path class="st5" d="M16.345,23.68c0.012,1.321-0.687,1.241-1.528,1.249c-0.085,0.003-0.166,0.003-0.247,0.004
		c-0.095,0.003-0.185,0.003-0.272,0.001c-0.816-0.001-1.338-0.038-1.8,0.211c0.011-0.028,0.213-0.481,0.947-0.666
		c-0.081-0.179-0.131-0.427-0.145-0.771c-0.05-1.32,0.763-2.402,1.605-2.409C15.746,21.292,16.332,22.36,16.345,23.68z
		 M15.047,22.99c0.236-0.006,0.424-0.204,0.417-0.44c-0.007-0.237-0.204-0.425-0.44-0.418c-0.238,0.006-0.425,0.204-0.419,0.44
		C14.61,22.809,14.808,22.996,15.047,22.99z"/>
	<ellipse class="st6" cx="15.036" cy="22.562" rx="0.429" ry="0.429"/>
	<g>
		<path class="st4" d="M9.925,14.714c0,0,0.131-1.701,0.398-2.354c0.137-0.336,0.978-0.55,1.62-0.703
			c0.642-0.153,1.665-0.458,1.864,0.443c0.199,0.901,0.519,1.559,0.733,1.849l-0.275-3.714l-4.418,1.07l-0.29,3.287l0.137,0.26
			L9.925,14.714"/>
		<path class="st4" d="M32.276,14.714c0,0-0.131-1.701-0.397-2.354c-0.137-0.336-0.978-0.55-1.62-0.703
			c-0.642-0.153-1.666-0.458-1.865,0.443c-0.198,0.901-0.52,1.559-0.734,1.849l0.276-3.714l4.418,1.07l0.29,3.287l-0.137,0.26
			L32.276,14.714"/>
	</g>
	<path class="st4" d="M26.032,3.598c0,0-0.117,8.906-2.197,8.906s-2.496,0-2.496,0h-0.416c0,0-0.417,0-2.497,0
		s-2.249-8.903-2.249-8.903l-1.022,3.023l0.016,4.147l0.726,0.577l0.33,1.781l0.462,1.039l8.904,0.016l0.412-0.742l0.347-1.253
		l0.05-0.791l0.983-2.808L26.032,3.598z"/>
	<path class="st4" d="M32.584,11.903c0,0,0.429,3.072,1.561,3.626c1.133,0.554,0,0,0,0l-1.586-0.479L32.584,11.903z"/>
	<path class="st4" d="M9.575,11.903c0,0-0.429,3.072-1.561,3.626c-1.133,0.554,0,0,0,0l1.587-0.479L9.575,11.903z"/>
	<path class="st5" d="M32.889,15.036c0.54,0.177,1.082,0.364,1.573,0.651c-0.263-0.104-0.534-0.178-0.808-0.246
		c-0.272-0.069-0.547-0.128-0.822-0.181c-0.552-0.104-1.106-0.192-1.664-0.26c-0.557-0.073-1.113-0.133-1.673-0.181
		c-0.559-0.047-1.117-0.095-1.678-0.127c-2.241-0.137-4.489-0.172-6.737-0.175c-2.249,0.001-4.495,0.044-6.737,0.176
		c-0.56,0.032-1.119,0.08-1.678,0.127c-0.559,0.047-1.118,0.108-1.673,0.181c-0.557,0.067-1.111,0.156-1.664,0.26
		c-0.276,0.052-0.55,0.112-0.824,0.18c-0.272,0.067-0.545,0.142-0.808,0.246c0.491-0.287,1.034-0.475,1.574-0.652
		c0.045-0.015,0.091-0.027,0.137-0.042c-0.003-0.012-0.006-0.022-0.009-0.035c-0.009-0.062-0.209-1.538,0.139-3.65
		c0.017-0.101,0.09-0.183,0.189-0.211l0.571-0.163c0.124-4.43,1.948-6.513,2.005-6.577c-1.63,2.623-1.615,5.734-1.587,6.458
		l3.549-1.009c0.003-0.001,0.005-0.001,0.009-0.002c0.015-0.003,0.03-0.005,0.044-0.006c0.004,0,0.009-0.001,0.015-0.001
		c0.018-0.001,0.038,0.001,0.058,0.005c0.003,0,0.006,0.003,0.01,0.003c0.015,0.003,0.028,0.009,0.044,0.015
		c0.007,0.003,0.01,0.007,0.017,0.009c0.011,0.007,0.023,0.014,0.035,0.022c0.003,0.003,0.007,0.003,0.009,0.007
		c0.003,0.003,0.004,0.004,0.006,0.006c0.003,0.003,0.007,0.005,0.01,0.009c0.003,0.003,0.096,0.096,0.247,0.236
		c-0.036-1.17,0.02-4.524,1.618-7.305c-0.033,0.097-1.301,3.804-0.865,7.958c0.142,0.114,0.291,0.225,0.436,0.323
		c0.07,0.049,0.114,0.128,0.114,0.213c0.001,0.014,0.032,1.338,0.616,2.465c0.009,0.017,0.015,0.035,0.02,0.052
		c1.455-0.099,2.913-0.139,4.368-0.14c1.455,0.001,2.914,0.043,4.367,0.143c0.005-0.019,0.012-0.038,0.021-0.055
		c0.585-1.126,0.615-2.45,0.615-2.465c0.002-0.085,0.045-0.165,0.116-0.213c0.145-0.098,0.292-0.209,0.435-0.323
		c0.437-4.154-0.83-7.86-0.864-7.958c1.596,2.78,1.654,6.135,1.618,7.305c0.149-0.14,0.244-0.233,0.247-0.236
		c0.003-0.003,0.008-0.005,0.01-0.009c0.003-0.002,0.003-0.004,0.007-0.006c0.003-0.003,0.007-0.004,0.009-0.007
		c0.012-0.009,0.023-0.015,0.035-0.023c0.005-0.002,0.01-0.005,0.016-0.009c0.016-0.007,0.031-0.012,0.046-0.015
		c0.003,0,0.007-0.003,0.009-0.003c0.019-0.004,0.039-0.006,0.058-0.005c0.005,0,0.009,0.001,0.014,0.001
		c0.015,0.001,0.031,0.003,0.045,0.006c0.003,0.001,0.005,0.001,0.009,0.002l3.549,1.009c0.028-0.725,0.044-3.835-1.587-6.458
		c0.056,0.064,1.881,2.148,2.004,6.577l0.572,0.163c0.097,0.027,0.172,0.109,0.189,0.211c0.348,2.112,0.147,3.588,0.138,3.65
		c-0.002,0.013-0.005,0.024-0.009,0.036C32.797,15.007,32.843,15.021,32.889,15.036z M32.243,14.847
		c0.027-0.236,0.155-1.529-0.116-3.289l-4.017-1.142c0.036,0.68,0.052,2.156-0.334,3.563c-0.005,0.017-0.011,0.033-0.02,0.05
		c0.04,0.004,0.08,0.007,0.119,0.013c1.129,0.13,2.254,0.31,3.365,0.554C31.576,14.673,31.911,14.756,32.243,14.847z M27.269,13.838
		c0.33-1.204,0.348-2.49,0.324-3.2c-0.265,0.241-0.626,0.55-0.989,0.808c-0.022,0.371-0.125,1.425-0.598,2.414
		c0.421,0.034,0.842,0.072,1.262,0.116C27.258,13.932,27.255,13.885,27.269,13.838z M16.153,13.857
		c-0.471-0.989-0.575-2.04-0.597-2.412c-0.364-0.258-0.724-0.567-0.989-0.808c-0.023,0.711-0.006,1.998,0.324,3.2
		c0.013,0.046,0.011,0.092,0,0.136C15.311,13.93,15.732,13.891,16.153,13.857z M14.404,14.026c-0.008-0.015-0.014-0.032-0.019-0.049
		c-0.387-1.407-0.37-2.883-0.335-3.563l-4.016,1.142c-0.27,1.759-0.144,3.051-0.117,3.288c0.334-0.09,0.668-0.173,1.005-0.251
		c0.555-0.123,1.115-0.226,1.675-0.321c0.562-0.094,1.125-0.165,1.689-0.233C14.324,14.035,14.364,14.032,14.404,14.026z"/>
	<g id="XMLID_1_">
		<g>
			<polygon class="st5" points="25.314,3.714 25.314,7.047 22.951,7.047 22.951,6.074 22.419,6.074 22.419,10.573 23.223,10.573 
				23.223,13.088 19.09,13.088 19.09,10.573 19.891,10.573 19.891,6.074 19.361,6.074 19.361,7.047 17,7.047 17,3.714 			"/>
		</g>
	</g>
	<g>
		<path class="st7" d="M9.256,16.949c0,0-6.093,4.288-6.331,5.922l0.458-0.094c0,0,7.295-4.836,13.079-5.425l0.131-0.734
			L9.256,16.949z"/>
		<path class="st7" d="M18.82,16.336L14.02,19.74l0.26,0.208c0.195-0.158,8.524-2.702,8.524-2.702l1.756-1.101
			C23.382,16.293,18.82,16.336,18.82,16.336z"/>
		<path class="st7" d="M22.991,20.454c3.408,0,8.515-3.337,8.515-3.337l-1.651-0.314c-0.082,0.082-2.663-0.09-2.663-0.09
			l-1.225-0.341l-2.927,3.335l-0.238,0.579C23.012,20.199,22.991,20.454,22.991,20.454z"/>
	</g>
	<path class="st7" d="M34.11,31.096l-1.053,0.296l-4.864-0.105l-3.042-2.366l-3.678,0.92l-4.254-0.368l-2.382,2.603l-4.47,1.335
		l-2.231-0.692c-0.071-0.061-0.113-0.096-0.113-0.096l1.001,2.453c0,0,2.269,2.432,3.536,2.718s3.556-0.02,5.273-0.287
		c1.717-0.265,3.086-0.879,3.638-1.88c0.551-1.002,0.633-1.288,0.633-1.288s1.636,2.31,3.046,2.575c1.41,0.265,5.6-1.165,5.6-1.165
		s2.555-0.695,3.005-1.573c0.45-0.879,1.636-3.761,1.636-3.761L34.11,31.096z M8.606,33.095c-0.024-0.011-0.047-0.021-0.071-0.032
		c-0.167-0.144-0.305-0.263-0.394-0.34L8.606,33.095z M21.814,33.55l-0.031-0.028l0,0c0.037-0.041,0.075-0.083,0.114-0.124
		c0,0.001,0,0.001,0.001,0.001l0.003,0.003c0.06,0.043,0.12,0.088,0.18,0.133l-0.032,0.043l0,0l0.02,0.023
		c-0.116-0.088-0.186-0.141-0.186-0.141S21.859,33.493,21.814,33.55z"/>
	<path class="st2" d="M6.01,18.231c0.344-0.079,0.81-0.178,1.38-0.288c-0.351,0.239-0.766,0.54-1.218,0.9L6.01,18.231z"/>
	<path class="st8" d="M18.621,27.366c0,0,0.096,0.62-0.771,0.884c-0.867,0.265-6.36,1.902-6.986,1.813
		c-0.627-0.088-2.216-1.15-2.216-1.15l-0.386-1.371l2.353,1.467L18.621,27.366z"/>
	<path class="st8" d="M23.541,27.246c0,0-0.069,0.623,0.808,0.851c0.878,0.227,6.437,1.624,7.058,1.508
		c0.621-0.116,2.164-1.245,2.164-1.245l0.325-1.387l-2.162,1.29L23.541,27.246z"/>
	<path class="st8" d="M5.562,26.226c0,0,0.761,1.522,1.991,0.995l0.878,0.322l-0.088,0.645L6.5,28.422l-0.498-0.293L5.562,26.226z"
		/>
	<path class="st1" d="M34.171,26.963c-0.043,0.149-0.086,0.643-0.132,0.79c0.453,0.133,1.563,0.103,1.98,0.03
		c0.346-0.348,0.991-2.747,1.133-4.022c0.115-1.032-0.152-1.442-0.257-1.529c-0.122-0.102-0.578-0.362-0.973-0.574l-0.636,4.231
		c-0.01,0.083-0.055,0.157-0.124,0.205L34.171,26.963z"/>
	<path class="st8" d="M36.825,25.489c0,0-0.824,1.648-2.154,1.077l-0.95,0.348l0.095,0.697l1.996,0.254l0.539-0.317L36.825,25.489z"
		/>
	<path class="st8" d="M17.479,37.767c0,0,4.509,2.273,9.614-0.82l-1.64-0.112c0,0-3.578,1.416-6.409,0.633L17.479,37.767z"/>
	<polygon class="st7" points="24.603,6.339 24.603,4.422 23.575,4.422 21.709,4.422 17.707,4.422 17.707,6.339 18.65,6.339 
		18.65,5.365 20.6,5.365 20.6,11.283 19.798,11.283 19.798,12.381 22.513,12.381 22.513,11.283 21.709,11.283 21.709,5.365 
		23.661,5.365 23.661,6.339 	"/>
	<g>
		<path class="st5" d="M22.051,33.579l0.312,0.372c0.007,0.009,0.7,0.834,1.548,1.674c0.563,0.558,1.245,0.842,2.025,0.842
			c0.266,0,0.546-0.034,0.829-0.102c0.262-0.064,0.547-0.131,0.839-0.201c1.054-0.252,2.248-0.538,2.826-0.7
			c0.114-0.032,0.242-0.061,0.376-0.092c0.77-0.178,1.827-0.423,2.386-1.544c0.421-0.841,0.989-1.934,1.409-2.733
			c-0.365,0.168-0.747,0.351-1.018,0.493c-0.418,0.22-0.967,0.326-1.676,0.326c-0.422,0-0.835-0.036-1.293-0.076
			c-0.915-0.085-2.465-0.266-2.48-0.269l-0.119-0.013l-0.094-0.075c-0.014-0.01-1.371-1.092-2.468-1.954
			c-0.044-0.037-0.085-0.07-0.121-0.101c-0.115-0.098-0.115-0.098-0.184-0.098c-0.352,0-1.374,0.318-3.614,1.012l-0.137,0.044
			l-0.135-0.051c-0.015-0.005-1.485-0.55-3.246-0.55c-0.144,0-0.288,0.003-0.428,0.011c-0.177,0.009-1.166,0.479-2.433,2.482
			l-0.082,0.129l-0.145,0.047c-0.021,0.007-2.2,0.711-4.512,1.372l-0.15,0.043l-0.142-0.066c-0.015-0.006-0.919-0.426-1.78-0.821
			c0.47,0.693,1.07,1.558,1.597,2.237c0.922,1.187,2.085,2.285,4.314,2.285c0.28,0,0.576-0.017,0.882-0.052
			c2.267-0.256,2.851-0.359,3.165-0.415c0.107-0.018,0.19-0.033,0.298-0.047c0.017-0.003,1.874-0.242,2.395-1.411
			c0.537-1.201,0.645-1.487,0.65-1.498l0.19-0.505l-0.051-0.048c0.038-0.04,0.075-0.083,0.114-0.124c0,0.001,0,0.001,0.001,0.001
			l0.003,0.003c0.06,0.043,0.12,0.088,0.179,0.134L22.051,33.579z M7.93,10.907c-0.493,0.199-0.982,0.403-1.461,0.628
			c-0.48,0.219-0.951,0.454-1.401,0.716c-0.415,0.239-0.814,0.502-1.166,0.798c-0.015,0.089-0.029,0.186-0.041,0.278
			c-0.015,0.131-0.031,0.261-0.041,0.394c-0.023,0.264-0.032,0.529-0.035,0.795c-0.005,0.531,0.032,1.062,0.098,1.588
			c0.073,0.527,0.169,1.051,0.312,1.557c0.071,0.254,0.15,0.504,0.243,0.744c0.045,0.122,0.096,0.241,0.149,0.356
			c0.026,0.057,0.054,0.114,0.081,0.169l0.033,0.064c0.039,0.02,0.08,0.04,0.119,0.059l0.236,0.113
			c0.131,0.061,0.313,0.147,0.464,0.214c0.009-0.007,0.017-0.015,0.024-0.022l-0.437-1.666c0.092-0.026,0.924-0.24,2.355-0.513
			c-0.115-0.021-0.233-0.047-0.347-0.074c-0.325-0.081-0.648-0.18-0.959-0.306c-0.154-0.066-0.307-0.137-0.452-0.219
			c-0.145-0.083-0.288-0.178-0.399-0.303c1.573,0.514,4.823,0.281,7.714-0.017c2.643-0.272,5.292-0.449,7.954-0.455
			c2.663,0.006,5.313,0.183,7.954,0.455c2.891,0.298,6.142,0.531,7.715,0.017c-0.11,0.125-0.254,0.219-0.398,0.303
			c-0.144,0.082-0.298,0.153-0.452,0.219c-0.312,0.125-0.633,0.225-0.96,0.306c-0.048,0.011-0.096,0.022-0.145,0.032
			c1.57,0.291,2.484,0.528,2.581,0.555l-0.418,1.587c0.085-0.038,0.169-0.073,0.252-0.113l0.236-0.113
			c0.038-0.019,0.079-0.038,0.119-0.059l0.032-0.064c0.028-0.055,0.055-0.112,0.082-0.169c0.053-0.116,0.103-0.234,0.15-0.356
			c0.092-0.241,0.172-0.492,0.242-0.744c0.143-0.505,0.241-1.03,0.312-1.557c0.067-0.526,0.103-1.057,0.098-1.588
			c-0.002-0.265-0.012-0.531-0.034-0.795c-0.011-0.131-0.026-0.263-0.042-0.394c-0.011-0.092-0.026-0.19-0.042-0.278
			c-0.352-0.296-0.75-0.558-1.166-0.798c-0.45-0.262-0.921-0.498-1.402-0.716c-0.477-0.225-0.968-0.429-1.461-0.628
			c-0.247-0.1-0.495-0.196-0.744-0.289c-0.248-0.096-0.499-0.187-0.751-0.278c0.528,0.087,1.051,0.207,1.569,0.341
			c0.337,0.087,0.674,0.185,1.006,0.29C32.939,4.772,27.27,0.736,21.08,0.736c-6.191,0-11.86,4.036-14.23,10.234
			c0.333-0.104,0.668-0.202,1.006-0.29c0.519-0.132,1.042-0.254,1.57-0.341c-0.253,0.091-0.503,0.183-0.752,0.278
			C8.425,10.71,8.176,10.807,7.93,10.907z M39.143,14.493c0.028,0.57,0.014,1.142-0.05,1.71c-0.06,0.567-0.167,1.128-0.317,1.685
			c-0.079,0.277-0.168,0.551-0.275,0.822c-0.054,0.136-0.112,0.271-0.174,0.405c-0.032,0.067-0.065,0.132-0.102,0.201l-0.055,0.1
			c-0.02,0.037-0.037,0.064-0.068,0.113l-0.057,0.09l-0.09,0.046c-0.096,0.05-0.175,0.087-0.263,0.128l-0.254,0.114
			c-0.171,0.073-0.341,0.142-0.513,0.208c-0.12,0.047-0.225,0.09-0.325,0.132l-0.283,1.074c-0.007-0.002-0.092-0.024-0.251-0.061
			l-0.015,0.113c0.312,0.163,0.925,0.493,1.135,0.666c0.421,0.347,0.45,0.898,0.357,1.927c-0.048,0.528-0.223,1.555-0.466,2.5
			c-0.42,1.625-0.643,1.816-0.93,1.889c-0.146,0.038-0.37,0.075-0.589,0.075c-0.444,0-1.048,0.012-1.455-0.086
			c-0.104,0.37-0.402,1.333-0.992,2.538c0.03-0.015,0.059-0.026,0.085-0.04c0.727-0.382,2.126-0.991,2.185-1.018l1.105-0.48
			l-0.566,1.064c-0.013,0.023-1.227,2.305-1.969,3.794c-0.738,1.476-2.121,1.797-2.949,1.987c-0.125,0.03-0.243,0.057-0.339,0.083
			c-0.594,0.167-1.797,0.454-2.858,0.709c-0.013,0.003-0.026,0.007-0.038,0.009c-0.653,0.404-1.365,0.763-2.144,1.059
			c-2.852,1.081-5.859,1.019-8.584,0.018c-0.443,0.057-1.024,0.126-1.8,0.215c-0.336,0.038-0.664,0.057-0.976,0.057
			c-2.597,0-3.973-1.319-4.978-2.61c-1.076-1.383-2.391-3.435-2.447-3.521l-0.763-1.19l1.289,0.58
			c0.617,0.277,2.452,1.127,2.977,1.37c0.043-0.012,0.085-0.024,0.125-0.037c-0.872-1.245-1.588-2.663-2.094-4.236
			c-0.429,0.13-1.092,0.23-1.607,0.23c-0.188,0-0.357-0.015-0.487-0.044c-0.288-0.066-0.616-0.343-1.064-1.917
			c-0.26-0.914-0.453-1.911-0.51-2.425c-0.112-1.002-0.091-1.54,0.325-1.887c0.251-0.21,1.099-0.655,1.274-0.746l-0.038-0.31
			c-2.692,1.583-4.305,2.98-4.338,3.009L0,26.294l1.372-2.163c1.085-1.714,2.339-3.1,3.493-4.167
			c-0.048-0.019-0.092-0.038-0.139-0.057l-0.254-0.114c-0.087-0.041-0.166-0.079-0.262-0.128l-0.09-0.046l-0.058-0.09
			c-0.032-0.049-0.047-0.076-0.068-0.113l-0.057-0.1c-0.036-0.068-0.07-0.134-0.102-0.201c-0.064-0.135-0.121-0.27-0.174-0.405
			c-0.107-0.271-0.196-0.545-0.275-0.822c-0.151-0.557-0.258-1.118-0.318-1.685c-0.063-0.568-0.079-1.14-0.05-1.71
			c0.015-0.285,0.043-0.569,0.082-0.853c0.02-0.142,0.042-0.284,0.07-0.425c0.029-0.143,0.058-0.277,0.102-0.435l0.031-0.11
			l0.079-0.062c0.449-0.353,0.934-0.619,1.426-0.855c0.405-0.19,0.819-0.359,1.235-0.512c1.164-3.229,3.164-6.093,5.794-8.088
			C14.554,1.09,17.751,0,21.08,0s6.526,1.09,9.244,3.153c2.629,1.996,4.63,4.859,5.793,8.088c0.417,0.154,0.83,0.321,1.237,0.513
			c0.493,0.236,0.977,0.503,1.426,0.855l0.079,0.062l0.031,0.11c0.044,0.157,0.073,0.291,0.102,0.435
			c0.028,0.141,0.051,0.283,0.07,0.425C39.101,13.923,39.129,14.208,39.143,14.493z M36.794,23.896
			c0.09-0.989,0.011-1.202-0.089-1.283c-0.101-0.085-0.44-0.277-0.77-0.456l-0.544,3.811c-0.01,0.074-0.052,0.141-0.114,0.184
			L34.5,26.697c-0.061,0.312-0.084,0.459-0.16,0.764c0.445,0.103,1.175,0.184,1.522,0.116
			C36.176,27.236,36.686,25.109,36.794,23.896z M35.784,20.442l0.583-2.21c-0.845-0.191-2.402-0.512-4.523-0.812
			c-1.082,0.779-2.267,1.401-3.432,1.898C31.975,19.663,34.593,20.179,35.784,20.442z M34.868,25.774l0.662-4.635
			c-0.295-0.064-0.672-0.143-1.122-0.229l-0.599,4.194c-0.011,0.074-0.052,0.142-0.113,0.184l-2.246,1.571
			c-0.053,0.038-0.12,0.055-0.185,0.048l-6.769-0.769c-0.108-0.012-0.199-0.087-0.23-0.19l-1.219-4.014
			c-0.327-0.085-1.164-0.28-1.899-0.28c-0.737,0-1.574,0.195-1.9,0.28l-1.219,4.014c-0.021,0.07-0.07,0.128-0.133,0.161
			c-0.02,0.011-0.044,0.019-0.067,0.025l-6.769,1.506c-0.021,0.004-0.039,0.007-0.06,0.007c-0.055,0-0.109-0.016-0.155-0.049
			L8.6,26.025c-0.063-0.044-0.104-0.113-0.114-0.19L7.88,20.927c-0.251,0.049-0.478,0.096-0.681,0.137
			c-0.143,0.079-0.286,0.159-0.426,0.237l0.642,5.201l3.263,2.286l8.232-1.831l1.216-4.004c0.031-0.101,0.114-0.175,0.217-0.191
			c0.308-0.05,0.578-0.075,0.806-0.075c0.225,0,0.497,0.026,0.803,0.075c0.103,0.016,0.187,0.09,0.217,0.191l1.246,4.103
			l8.278,0.942L34.868,25.774z M33.287,24.911l0.586-4.101c-1.652-0.3-4.069-0.664-7.028-0.891
			c-2.672,0.922-4.909,1.196-5.044,1.205l-0.156,0.011c0.852,0.073,1.655,0.302,1.695,0.314c0.089,0.026,0.157,0.094,0.185,0.183
			l1.211,3.987l6.488,0.737L33.287,24.911z M33.739,27.229l-0.275,0.192l-0.74,0.519l-0.802,0.562
			c-0.055,0.038-0.121,0.055-0.187,0.048l-7.977-0.907l-0.58-0.066c-0.108-0.012-0.198-0.087-0.23-0.191l-1.249-4.111
			c-0.208-0.028-0.394-0.043-0.55-0.043c-0.159,0-0.343,0.015-0.551,0.043l-1.212,3.993c-0.028,0.093-0.105,0.164-0.201,0.185
			l-8.504,1.893c-0.02,0.004-0.04,0.006-0.06,0.006c-0.055,0-0.109-0.016-0.156-0.05l-0.309-0.215L9.231,28.44v-0.003l-0.374-0.261
			c0.026,0.085,0.056,0.166,0.086,0.248l-0.001,0.001c0.072,0.213,0.789,2.275,2.245,4.293c1.56-0.46,2.909-0.888,3.339-1.024
			c0.878-1.354,2.13-2.698,3.019-2.744c0.153-0.007,0.312-0.012,0.47-0.012c0.435,0,0.85,0.032,1.235,0.077
			c-0.327-0.297-0.394-0.645-0.441-0.8c0,0,1.135,0.887,2.578,0.702c1.444-0.187,2.342-1.019,2.342-1.019s-0.004,0.607-0.633,1.077
			c1.21-0.366,1.711-0.492,2.054-0.492c0.378,0,0.564,0.158,0.727,0.297c0.032,0.026,0.063,0.052,0.099,0.082
			c0.93,0.732,2.05,1.622,2.377,1.882c0.379,0.044,1.581,0.181,2.338,0.251c0.437,0.039,0.831,0.073,1.217,0.073
			c0.125,0,0.242-0.005,0.352-0.012c0.501-0.955,0.951-2.039,1.333-3.26C33.644,27.61,33.694,27.42,33.739,27.229z M30.796,17.129
			c-0.002-0.001-0.004-0.003-0.006-0.003c-0.64-0.048-1.281-0.091-1.924-0.127c-0.892-0.051-1.784-0.093-2.675-0.131
			c-0.052,0.077-0.157,0.229-0.308,0.435c-0.486,0.656-1.449,1.862-2.683,2.884c1.747-0.313,4.779-1.088,7.401-2.918
			C30.666,17.222,30.731,17.174,30.796,17.129z M24.946,17.31c0.073-0.092,0.143-0.181,0.204-0.262
			c-0.642,0.065-1.275,0.158-1.893,0.276c-2.117,0.396-4.073,1.055-5.699,1.73c1.152-0.055,2.365-0.089,3.63-0.089
			c0.765,0,1.509,0.013,2.232,0.034C24.043,18.401,24.568,17.788,24.946,17.31z M25.648,37.296c-0.882-0.065-1.683-0.432-2.33-1.072
			c-0.033-0.034-0.066-0.067-0.098-0.1c-0.312,0.063-0.63,0.109-0.955,0.137c-0.137,0.005-0.266,0.017-0.41,0.017l-0.212,0.003
			l-0.081-0.003c-0.86,1.28-2.772,1.53-2.86,1.541c-0.079,0.009-0.143,0.02-0.233,0.037c1.065,0.292,2.153,0.418,3.225,0.347
			C22.77,38.13,24.167,37.897,25.648,37.296z M22.242,35.836c0.207-0.016,0.415-0.043,0.623-0.074
			c-0.271-0.282-0.51-0.543-0.698-0.755c-0.092,0.212-0.214,0.491-0.376,0.849h0.048C21.967,35.856,22.108,35.842,22.242,35.836z
			 M21.585,20.441c0.358-0.216,0.702-0.464,1.028-0.726c-0.467-0.008-0.942-0.015-1.425-0.015c-1.985,0-3.839,0.081-5.519,0.207
			c-1.686,0.824-2.716,1.502-2.74,1.52l-1.619,1.08l1.111-1.595c0.184-0.265,0.378-0.516,0.579-0.755
			c-1.867,0.208-3.421,0.456-4.583,0.67l0.595,4.822l2.046,1.433l6.497-1.444l1.216-4.006c0.02-0.066,0.065-0.121,0.123-0.155
			c0.019-0.012,0.039-0.021,0.061-0.027c0.038-0.01,0.687-0.195,1.436-0.287L21.585,20.441z M22.332,16.762
			c-0.452-0.007-0.905-0.011-1.357-0.012h-0.001c-0.663,0.001-1.329,0.008-1.995,0.021l-1.228,0.581
			c-0.001,0.001-0.008,0.004-0.017,0.009c-0.184,0.09-1.796,0.903-3.312,2.354c1.359-0.715,3.357-1.648,5.708-2.372
			C20.833,17.129,21.572,16.93,22.332,16.762z M13.754,19.335c0.637-0.632,1.293-1.152,1.873-1.56
			c-2.235,0.519-4.292,1.281-6.094,2.11C10.706,19.696,12.125,19.499,13.754,19.335z M14.177,17.388
			c0.749-0.21,1.521-0.394,2.313-0.547c-1.135,0.042-2.271,0.094-3.405,0.158c-0.659,0.037-1.315,0.081-1.97,0.131
			c-0.329,0.026-0.655,0.051-0.98,0.087c-0.093,0.009-0.184,0.019-0.277,0.032c-0.855,0.512-4.136,2.571-6.389,5.264
			C5.656,20.991,9.469,18.705,14.177,17.388z M8.137,27.998c-0.043-0.136-0.083-0.274-0.121-0.411L7.005,26.88
			c-0.064-0.044-0.104-0.113-0.114-0.19l-0.493-4.004c-0.365,0.195-0.786,0.435-0.899,0.53c-0.097,0.08-0.172,0.286-0.066,1.24
			c0.131,1.176,0.726,3.393,1.047,3.716C6.865,28.24,7.719,28.122,8.137,27.998z M7.39,17.943c-0.571,0.11-1.036,0.21-1.38,0.288
			l0.162,0.612C6.624,18.482,7.039,18.182,7.39,17.943z"/>
		<g>
			<path class="st5" d="M46.827,16.846h-4.195v-2.175h10.942v2.175h-4.174v12.341h-2.575L46.827,16.846L46.827,16.846z"/>
			<path class="st5" d="M53.988,18.289h2.109l0.178,1.932h0.089c0.777-1.42,1.932-2.197,3.085-2.197c0.555,0,0.91,0.067,1.243,0.222
				l-0.444,2.22c-0.377-0.111-0.666-0.178-1.132-0.178c-0.866,0-1.909,0.599-2.575,2.242v6.659h-2.552V18.289z"/>
			<path class="st5" d="M68.163,22.218c-0.021-1.155-0.51-2.131-1.975-2.131c-1.087,0-2.109,0.488-3.063,1.065l-0.932-1.709
				c1.199-0.755,2.73-1.42,4.462-1.42c2.729,0,4.062,1.664,4.062,4.705v6.459h-2.087l-0.199-1.199h-0.067
				c-0.977,0.821-2.086,1.466-3.374,1.466c-1.909,0-3.24-1.288-3.24-3.196C61.749,23.927,63.701,22.706,68.163,22.218z
				 M65.788,27.455c0.888,0,1.577-0.444,2.375-1.198v-2.441c-2.952,0.376-3.929,1.154-3.929,2.242
				C64.235,27.034,64.879,27.455,65.788,27.455z"/>
			<path class="st5" d="M71.984,18.289h2.598l1.73,5.66c0.289,1.065,0.622,2.176,0.91,3.286h0.089
				c0.311-1.11,0.622-2.22,0.933-3.286l1.731-5.66h2.464l-3.707,10.899H75.78L71.984,18.289z"/>
			<path class="st5" d="M83.906,14.937c0-0.866,0.665-1.465,1.576-1.465c0.911,0,1.576,0.598,1.576,1.465
				c0,0.843-0.665,1.442-1.576,1.442C84.571,16.379,83.906,15.781,83.906,14.937z M84.194,18.289h2.552v10.899h-2.552V18.289z"/>
			<path class="st5" d="M89.923,26.302c0.977,0.755,1.909,1.221,3.019,1.221c1.176,0,1.731-0.554,1.731-1.31
				c0-0.909-1.177-1.31-2.33-1.753c-1.443-0.533-3.063-1.354-3.063-3.174c0-1.909,1.531-3.263,3.973-3.263
				c1.509,0,2.729,0.621,3.617,1.309l-1.176,1.554c-0.755-0.554-1.531-0.932-2.397-0.932c-1.088,0-1.598,0.51-1.598,1.199
				c0,0.843,1.087,1.199,2.264,1.619c1.486,0.555,3.13,1.265,3.13,3.307c0,1.865-1.487,3.374-4.24,3.374
				c-1.487,0-3.063-0.645-4.128-1.51L89.923,26.302z"/>
			<path class="st5" d="M110.053,14.405c1.776,0,3.219,0.866,4.128,1.842l-1.42,1.598c-0.755-0.732-1.576-1.199-2.686-1.199
				c-2.375,0-4.084,1.998-4.084,5.26c0,3.307,1.576,5.305,3.995,5.305c1.288,0,2.242-0.533,3.064-1.442l1.42,1.576
				c-1.177,1.354-2.686,2.109-4.529,2.109c-3.684,0-6.593-2.664-6.593-7.481C103.349,17.223,106.324,14.405,110.053,14.405z"/>
			<path class="st5" d="M116.585,14.671h2.575v14.516h-2.575V14.671z"/>
		</g>
	</g>
</g>
</svg>
